<mxfile host="Electron" agent="Mozilla/5.0 (Windows NT 10.0; Win64; x64) AppleWebKit/537.36 (KHTML, like Gecko) draw.io/25.0.2 Chrome/128.0.6613.186 Electron/32.2.5 Safari/537.36" version="25.0.2" pages="2">
  <diagram name="Admin" id="Wb7mg0zQOdj741V9gWLV">
    <mxGraphModel dx="1167" dy="728" grid="1" gridSize="10" guides="1" tooltips="1" connect="1" arrows="1" fold="1" page="1" pageScale="1" pageWidth="850" pageHeight="1100" math="0" shadow="0">
      <root>
        <mxCell id="0" />
        <mxCell id="1" parent="0" />
        <mxCell id="FZeN8II75JH0alaHR2KP-1" value="" style="shape=image;verticalLabelPosition=bottom;labelBackgroundColor=default;verticalAlign=top;aspect=fixed;imageAspect=0;image=data:image/png,iVBORw0KGgoAAAANSUhEUgAABSAAAAH0CAYAAAAt9YM7AAAAAXNSR0IArs4c6QAAAARnQU1BAACxjwv8YQUAAAAJcEhZcwAAEnQAABJ0Ad5mH3gAAJY6SURBVHhe7P17dFRlgvd9/3y6X7UJFFHOLUxSEHEQkIPQNiDQdJp5ZUXxltAe4JbQz4DI8jDoMIogLpYcRDptMyoL0zBLwAYbm8JXMAufiRkbEGhbCCAooyZUaHAC4WBSkBj7aW/fP/auqr2vqkqqQnYS4PtZq9Z07euqfbj2rjD18zpclZGR8b0AAAAAAAAAwAP/l7kBAAAAAAAAAJoKASQAAAAAAAAAzxBAAgAAAAAAAPAMASQAAAAAAAAAz3gWQPomb9Nt86OvzMFmDVzSRk1R1lv/rhvyzIJk9VbH//h3DbiofbSEf9INb/27sp7ubRa0Hva9GfDWE2prlrWwtsuse94S7Td9wWmVv1Wj6WZBM2u77N814D+m6GqzoNVoxd/NvCc04K3W3n5XKv42Xoxm/duYXaNP3jutDdlmAQAAAOAdzwLI0Ppx+mjhOH20+mNdMAuR0NVPL2yVP46uGBcdrHqn1QZXrbjNIh6q1ryf1qr0/TStMsuaGPcpVZdAcIVWfZ9a77+brbTNitO0raxWw/+tWi+aZQAAAIBHPAsgLxfhXgmRV2sMFi5atMfTgGX/ZBZ65Aud+ed/0cF7/0VfrTXLUtUS59+K7Vin0nv/RQfv/W2rC/8vPGXd89IXvzCLvJNdo08mVCn05+76xe/MQsRqyu9mE1v7Wx2891908J/X6W9mWUsI98g0Xq0pcLLCudbZ66/Z8bcx4ulHumt3qEr3tYJe4QAAALgyEEAmZPVc6JVZrrJ7rR8GB+/9Fx1cK3VqRT8um8Sonyq9XUhf7SuXMvteej9SL/Xzh6denHBGvlBHvbLgB2YR0ARC+upVx78RheVKu/WRVhJC9pavt081+/bpjDLVvtX1fkXL+YEmFXRUyHdGjy34ziwEAAAAmtxVGRkZ35sbkzL4Vd2W0yv6/mhAH61f7axh6fa8+k4bqprCcSovMQslaYy6PPaUMtOjWy58vEyfvveBs1JkP9FwqUxHFj6qkKuSdM0dmzRwaFp0Q6LzakDbZeHwsZ6eEqOmKOvRW/VNobunUNtl/65eHfbpiKuXzj/phrdy1DHyPqSvXp2vMzvilZliz8M6v+j7mn0roj0n8p7QgByp7NWz6vrorUpTucruLdS1//GIbmgnqbxQB5/6z8hnr356ofr0/lJH/vmkOr2VIxnXY4l/jmfCdZM+Zm91DG+TjHaIMs8pfFzXdSaoG3P+Sdynq432NEWu026HH+1bob/qQfW51WfXiL1HyVxr22X/rl4q1MF3uyrr0VsVfnIjx7PP3fFEu513PGdmXWdZjIbPLbaOu/3NZ9AUbbPYus4yN/M5iz2vBtvMKbtGn/zbGVVuzkjc+9Fst5hjRu+589m7+umF6nPrOeu+x+zD4LgXkedurfQPDZ1/3hMakONouAa+u/G+J2bbm6LHNe+32Q6GBs5N8Y7tqGO1X/j7Eyv2b1r9xwozj2n+zUimzZKW94QG5FxvtJPdjmeNczSvIe7fjDjtEvdak7xXo6Yo69EbVfXqfNXdaX9vnPtK4m+jzPMxRNstlb+Nsddptn/D33Pzb4XJcVzz+1nv38aGzy22/d11zM+b6vt+xv07YDPrmufVcJvFenHFMd3XK10b72ivp81CSVKe8gPj5Q+VaPmvFmunWQwAAAAkqVEBpG/yNvXpKZ1yhoqDX1WmHo0NGRsIIH2TN+lH/zVRpyrsDXaw6Qoh7X3I3Pbzv+pTR7hohY9S+ero/q65Y5O6VU6Me+zE7B82cX/4OSTx4836gRNvf/+kG/6jq04bP4JcoYZje5S9r3jBU3j/9o/imvPndPKfP1X7t3L0o/Mh6Ys37B+Gzv1bP6TSv7B+yER+wMT5kSrnjx3z2lM6pi3uj3dL9Aec44e1/QPe/WMq+fNv+D4lrhvl+NEbuQfxAofYe25dk1zXG/1BGf2xHK9epK55vgnUWzf8vLh+hPdWx2U/VeipaP22yxbq2ncd52C3v/mjt+E2c6ivbpz9h5+D+GFmw202fcFpzfvp1fX8uI79Hlr7j/0PBPUGkJGtDbS96/yjx4i3r9hrSvRMJfM9aaDtTfV8N+W4Btcx8p7QDfpt5P3VTy9Up5Pzo+Xm36mI+O0bX7zvWlgSfxtTbbOGxG2nOOc4aoqy7jyp0sg5hwMsdzgXe8/jtGPC5yD2+b/66XDYuk5/C/9HIufzmuCZiP8MN3Sfkv3bGH5+YgNC578xqXzP431/Eol/bWHh++IOdK9++gn59vzW8Xc7yb+NDbaZQ4J7YUnu2U6lzSIeqlb5hCqVJvqPNFPzFbjLL6lGJS9P0eLtZgUAAAAgOakPwe72vHqY4aMklcQJH5MQWu8IHyWpJKDyKqntjWN0TXhbt+vVVjU6c9DRK7LiOVf4KEnXdEiTqj5TlWN/376XavgoKa+vOko686n5A7eRRnXVj2L295/6Ku4PoPpd/fRIdVS5ypyf3bFOf90XkjJHquOo8Eaf9EVh5MdYmr7UXyM/gK7XteF69vDlqj1W2YVPY4cxt73TCquin08kyWOm4Eyh40fT2k91RtKPujqGNiZx/p5whXdfKPRFyHXcyH1y/Oj+24tv6KvzPt1wpzlPZUhfvRr94fy3PV+qRj5d4zeqNZHw/XT/AP9CZxzhoyRdeMr4wbq2UF+dl9J6/9SDeVB7q+OoTKm80PVD3WozqeMoc+7VZNrsO425uVYquzZB+Ki438ML7+5TjXxKH+blEFp3wGGdv3OI7D+p060+1ex7w3EP/lNfFZYb33NLg9+TpjRqirqa4aOs+Rmd7//2ojM0s/5OnSyXZ9/P5P82Wrxqs6ufftAKsN51/L3fsc4RPsr6vu0ol4xh0Vd38Ennv1TI8b0z2zH5vy328Osv/my1x9pPm2cYdgN/G6PPjyMstO9T2q05xrORzPe8CeXlxISPkvS3F6Pho5r9b2Oqz3aKbfa7a1UqqfOPEwzDXnNIQUkKfa4dhI8AAAC4CCkHkNcMuFltVaZzqYZ6SftA35wzNlWc0wWlKXPaJnXpZpQ5fHu2RkofqoGPPR8NL1uDHSf1jaSOORe7Aq31g1Lnz8YEl7E/MqKhnCTp7MmYz0jS1cNuVJrzB2/wbEwQ0j5T0R+x9UrumMkrV3VMTxC3hs/fG/W3h32fyj81euN8obqzkjp0df9INQIHb6VyP032+Xth1E+V3k6qOVtuFNgBRrsOjWizv6uzTwqd/qFZUD/7++qphs4/r686mt8nhZ9vM0xo+HvSlK4edqPSGnnMv501J81oKqn8bVQTt5lPNzwaXYDG6rGboLeZU/CsaoxNfzsbktrdqj4JFztL4W+L8R9npHJ9e17q2Nf8DyBNq6G/LYmen7+dPBf7H6oa+p40sbZ9Mxt5TA//Nqb6bKd8/j9UZUjydfq7WWBbq9m5ucpl+DUAAAAuUuoBZIc0qeqcvjULGqvb8+o7f5tuc7z69DTqVDynTxcGdEppypwWrveqzBmWvn1voj4qLLNCyPD+Jk8zarWE/9RX966wenLlhH+oLozpkZO0eoK91Hrw2D9snPvb8WdVxe1x1hq11vPP1DXtJGXmxKyOW99cfM3C7o37zcmGerPaQ/ya+fwTn1fjetAm4+rIKsHhV33zyjWPq7teHxNsDXjr3zWgvnkmm4nVSy82DIn1T7rBeH7qmxevSTTZ38ZUhNyL0Ly6Tz/K+XcNWOYO+toua/he/u3F+TpYWG6FkOF6rv0k/7fFCvrOqS4SRoV7I5o95prX1R18kjLVyzh/9/yYLaG3ru1Q/zMU0QJ/G+s7L++ebQAAAKDppBxAWr0Mr2+aHobhhWWOBvTRwnGR15GjZkVJWq3ycJ3CMkm91CdOCKmSR9376Zmbeghp90xp2p4iX+jMP0d/oNbIpxsevYgQMoHEAU4cdq8z949Ze2L9djfK18Tn1uRa7flbPY1UXhgNJZyvRgy9bzJ2774Gf7A65xdznHuZ2UGx2TiDlKbjnGMyep2FOmNWbGZWbzAj2HK8YueIaz5WLz2jR2oMx5x1jvM+ss+rHpANS+lv48WIMzQ2Oq+o4z6+ui+mB6RkDWV3fd8ycxwhZLJ/W+z/OGMEfVYA7PX0AvWzesGWq8w893v/RQfvTaLnqGfi9CKNp9X9bWzGZxsAAAC4CKkHkJUnJfXS9YPNktRZw7lrVP5fKa5SXfKoHUJ21Y/qGZIdWm+HkNf/Q2qBqd2LrnFzlVlDXOu1Y51K7RDSnJcp7jC0iDjzadkSDWurT/gzMT8E7XOzfqRaP3jTOrgvqu2dsb13mlty559IgvuUbEBXryR/yKYoueCnIfb9bGCuMqttjXnsEmmKNgv3XI0J/RMNOU1GQ0MLw0Mb9+l0Ct8bSzjgidUk9ynuUOuL1BT3KfI3qoFpDsLz6O5IJmyP/zcmNU37t9EpLz+gQCCgdc+MNIsaEA7N7b815TtTDtcuPGUHW5G/JUn+bbH/44w7WP8XHbR74tf//U/wt7FJ7lND/8Y1TlPt0/ru1v8fr1L629gkbebds21paKqKPOUHAgq8Pk+pfgMAAAAAp5QDyPAiMV1yjPkYB7+qzBRDSSvMTFPHAWPsLWPU5bHYIdjX3LEpZt++Pr0kndQ3kQVnxqjLY2aPyGm6vqekc39Nccj4Fzqzdp9qlKlebz3h/n/6R03RDU/bP+DDcztGQhPHKqBOeU8oK/wZW/hHzLdB1+ZI8BC7UInlby/u1BllqpdzWN6oKfqHW32q2RddAKZh9QQ7dhhk/UiNHbZ39dML1atDKH7vnWaT7PmncJ+k6A/GmMUQUnPh3X2qaXer+hjDMC9GOPjpajxLqbEXv4g5t97quCw6bN06ljPE7a2O/5FomGFTtJl9Xpk5rnlS4y7okbQf6IPP2ki96vSiWSRFwxxn4DBqirJing0ztA2vlOuqFNEk98lesKVjTlP2km6K+xRdcCPm3PKeiN67OL3I2y5LNATbvg8XOTS46f42OuWpvx0Cp/UelVwAYx8z+rfJ7rXoDJDynogzBLu3Ov6H8e9NOAx0DL9N5m9L4mAqPKeq/cyn9Lexae6T9fz4dMOj5rVehAb+3UyW9QzFntvVTz8RuebU/jY2TZt582zbHqpTlqTK//mBWWKZ2l9+SfLdpFGjzUIAAAAgeVdlZGR8b25Mhm+yERQeDeijyKrU05Q5P1ddHMVRZTqy8FGFB+Jdc8cmDRwa/Rl2qnCczvXZpj7Xf6wDrzwXCQ5jjlflLrfEHvfCx8v06XuO1bNTEidoMFcPDg/Hst+eKfwXne66UH16f+mqFx7qGVWusnsdq4A65T1hzIdl1o39kehakTbvCQ3Iud5eydOuW16og0/9p30e0ldFXyp97K36xlzJ1hapZ68Gag0htAvLC3XwKemGt3Kk8OeTOear83VG7vZycbSt9Zlzca/7R/tWqHTPT5X1aPLnn+x9stTXvo5zcKzWXN/5mj/mnfeq7bJ/V68O8Z+peNcW8xzFtFm8gEeqMc7XbA9zVWbF2d+Zwn9Rdd845yvFvVazzcx2sBjPdoPPfoptll2jT/7tjCo3Z+gXv3NsjzC/4+Uqu/dTtY+5x+5rqNm3QqUnczQgRzHnpzht57xPqZx/zH4U757Hf+7MZ9RZFvc+xTwTDubfvciwYscG+/seYdzLmn0r9Fc9GOd8Fec+uJ/ZmGM5uFfjruf6bKm2WV5+QOP9Us3e5ZrygrEMR8zzajGPGXNe5/fpyFrpH2Lueez5x3x3pbj1FDmu3ZZnjfsRZt9nhfeb0t/G+u5T/DaM394J7qnjGUrleyLFuxfRvx1xv0e22Pat7xot5v7q/9tY3/7i30eL+bcvtq75nKXcZpJeXHFM93XqqMX3pmmVWSjZPSDHyx8q0XIWogEAAMBFaHQACQCXghdXHNN9vdK18Y72etosBIArVYP/gQYAAABoOqkPwQaAS8jTmzsqpCrdtyK1iRgA4PL1nTbMOCNfqKM2Ej4CAACgGRBAAri8Fafpls3pUq+T+mTBd2YpAFxxXlxxQsN96dqYcOg1AAAA0LQIIAFc/n7XXov/3Ea+m+s03SwDgCtJdo3G9Wqj3b9mWgoAAAA0H+aABAAAAAAAAOAZekACAAAAAAAA8AwBJAAAAAAAAADPpBRA+v1+XXvtteZmAAAAAAAAAIgrpQASAAAAAAAAAFJBAAkAAAAAAADAMwSQAAAAAAAAADxDAAkAAAAAAADAMwSQAAAAAAAAADxDAAkAAAAAAADAMwSQAAAAAAAAADxDAAkAAAAAAADAMwSQAAAAAAAAADxDAAkAAAAAAADAMwSQAAAAAAAAADxDAAkAAAAAAADAMwSQAAAAAAAAADxDAAkAAAAAAADAMwSQAAAAAAAAADxDAAkAAAAAAADAMwSQAAAAAAAAADxDAAkAAAAAAADAMwSQAAAAAAAAADxDAAkAAAAAAADAMwSQAAAAAAAAADxDAAkAAAAAAADAMwSQAAAAAAAAADxDAAkAAAAAAADAMwSQAAAAAAAAADxDAAkAAAAAAADAMwSQAAAAAAAAADxzVUZGxvfmxkT8fr8qKipUV1dnFrVavsnb1Of6j3Xglef0rVmYrMGv6racXo4NZTqy8FGFHFtam4cLfq1fdtqvJRM2qNgsbBWytGTzDN3WXird9G+asdIsv4Q8VK3yCdLGO9rrabOsSUzXuM1zNaR9+H1Ie5cO0LYidy2Xsev12JzhSo9sSOIzuHiePwsAAAAAAFx66AHZEDt8vPDxMn20cJz9avnw8eGCX6t48yRlmwUtbewkvVP8axXMNAtanidtll2jTyZUKfTnth4GTqu0bYJfC7P9Wrip1CyMFQ4fSzdan8n2a2E24ePF6rrooOYXF2mQWeD0u7baHarSfW/VaLpZBgAAAADAFYoAsgG+Pr0klen4ex+YRbgopZo74d+UnX0p9378Vu//2xn5yrrqlgU/MAtbTNfR/ZSukPZummMWwXM/0KR7u6rUd0bzVjS6zzUAAAAAAJcVAshkVJ1r/PBtXLamLwgpS+na+Mg1ZlErUKmT9HhsIdfoF5vTpV4n9f5DZhkAAAAAAFeey24OyGvu2KSBQ9PcG6vMOSDHqMtjTykzMkFejcpXT9SpikiFiCaZQ1L20OQ5g9Q2suG8Plr6vOZGQqJsFRTfoa57CnT3s9FhttmLntPcYef0x+xX9VrMPgzV0TkfI3NArpQed3wm7nyLMx9V8cSM6PvS95Q9IzpzZPai5zT35lItmXBK9xbfoSx7+wXHuT5c8Gv9MlwQR/S40bkfLWY7GBo4N8U7trNOCm1mse5DdHfHrLaPvA/7Vu+/d1Kd/9y9nt6PS/Vg8X3KjLxPNA+jWa9U72aP1X5XHdvMIs2f2DnBfixdFx3U9GGViffRhKLHektdnfNUVu/WqgmTddJZeWaR5k903KjSjVo4w+ylabaFpXyTX2/Yz+2ggqDu7GTs3x52XuWop8j5+SLvq/Ys0SvPropWkOIc03mfzDJTonv1nTa8dULD1VGL702TeURJ0uh5Wvf4YKUFtyh39lqzFAAAAACAy8Zl1QPSN3mbBg49qSORuRrH6chRs9Y0Zc5/SpnnApE6Bz6WMqdtUpduVo1r7tik2+Zv023zt6lPT0npQzXQfn/b/G3qe8cYc6cNyFbBTOnlbGvIcXb2v+mPpe1025zntGSsWbceRRt0d+Tzdnjm2Ge2ueBM+0GaOydLny61ypfsOa+siY/qYUeV7EXPqXji9frIrpOd/Z5Ks+5QcYExU2L7QZpbPEJnw/U2HVPbYTMicz2+NsPevnS/LtiBY+S8XMOso0Ovszcdcxwg1sMFv1bxxAz3vg70cc0vmb3oOQ064Chful8XnOefSpuNnaR37BA4XP7H0gz9stjdZpKkh+qUpTY6vLOB8NE1D+M2dZy5Xl2d1cau12PF9yl9z5JIvXdLs3RnQ3MNmmYWaX5xUPOLg3bglqU77ffzi4OaX7DU/EQTytKdxXOV9Vn4GjaqvP1wTXccs+uig3ZwGm6LjSrPus99XnHaYuHS3aqK1kjJoIKgHY5G96Vhc/XYIufsjA3dpzl6w96+ak/IDhzD9fxaGDd8lKQf6IPP2ki+Wo1JMOnoyOE3KU2S/P2VZxYCAAAAAHAZuXwCyG7Pq0dP6VRh/QvEXHPHHeqiMh1Zvzqy7dv3Vqi8Kk2ZP59mv5/oDjCrPtYBR6j5acrzQRZrhhEOvrZpvy6onfqOrqfb4EVz9y4s3l6qC8rQoEiAl617h7XThT0bHD0QizVj0zEpa0RMOFq6ydFTceURlUrqeoNH5z92ksZlxemxufJV1/viZ593lxdt0LZSSVl9YkPDBjw8cZDaVu/Xy44eqK/NeE+lytC4Re7rfHFAlRRqow8SLTE+tofSJZUfcPbwm6M3jF6BgyYOV3r1bv3R0Stv/4yNKleWbncFZQ1YOTYSisUNymJ6Gjat8k1+R8/COTpcKqlTDzvEW6qxw3yq2vOqo9fmHL2xqVTKGqdx9nMWry0abex63Z4llW9yBIRFk/XHPSGlD7s3Gu4meZ8aY9XONgqpVp17mSWWnbs/V40kBQ+J/o8AAAAAgMvZZRNAXjPgZrVVmc6VmCVOY5R+Y5p09IARUn6gb85Juv4f1Gyz+RWduuiAo0HVpSpOMExXkjSzj7J0Xp9uN1ZWLj2nC2qnDq7M7Zj2m0O3PZQ9OkttG3nML0+fNzclIVuDsqQLn/3F3YtUx3S2WmrbyTEMXN+pRydJp38Yf2itJBUdV5WkzIlBPZhwRfCl6pclVX32J+NZKNOZaim9U4LkqtUJ6YzxCO2f4dfCcIg381ZlKqTS7UZrlVaqSj51zFI9bdE41kI8pTpsPD8nv6qU1Fldw+F6UvepkYp/qEpJnX/8nVli2b5YU3JzGX4NAAAAALjsXTYBZHJ66UfpknrmRoZTu4Zaeyh70XMqLv614+WcZ7BlZN9wvaR2um2O87x+reL65kxsJjd2aidVn9OXZkGMbBW42vXXmjusnVmpYWO7qKuktsNmGPfJOV9lKubojewl2ltthVvWUOiDkd5+UrT3XfqwudGh0sVBzS92zKV4Geh6Q2dJPg2Z47zGoObPGa7INKxNrFunOMPQi4PuOSil5O4TAAAAAAC4KFdYAFmmb6okHY3O/+h6XexCMwlYC8m0M+ZFfE9Gp7FmV/zVOXuYtnu+xvArZrGaZvTl6fNS++t1o1ngYi8YY8zruGRPI3pA2j1SLzjmf3S9jIVvkrNK2yY45zL0acgcR7hl976rcs552IzDppuL1esw5Jj/0f1yLhrTVCpOxxmGHnmZC/g0cJ8AAAAAAMBFuWwCyG8rT0rqqh/ZC8lI0Xkho1pgqLWylH1zO6l6v95KOWixPxtHcgFdA+IOtb5IdpB3sXNDWuGoc77KOGb2UZak0iJj8Z0E6m+zeEOtE/mBjp+W1OnvSnqWxqLJesUOt6whx2rxodZ5+QEFAgGte2akWdS0XEOtE4nfFoMmJtdL0hpyHRUz1DpZce+TJeV9Zv9dnSVV/k+ChYpGz9O6QECBfJagAQAAAABc3i6bAFIlB3RK0YVkpGnKnDZUqqpxVQv918e6kD5UAyeH63mtVH89Lal9lrLDwYW92rI737ADsJt/ImvR3Cwt2Zx4+G84oDMXR0mJvWBL1sQUV+Oul30dw+5IeREYl5Xv6aPqOOc289HoKtil53RBUtbA6DLDDxckHoJdf5uVam7RMSnrDr0Tt9zt6YPp9a5wrJlFxmrL4ZDMOV/iKm0rKpWy7oup672R6t7B+l9pQ+72dhXmosn6sFTKnFhfr8JV2v9ZyLUoTddFB3Vnp1DMKtgVp0NS+34a5KhnrfztsPIt7a32acicBlYTT+o+2ewgdcjE5FYUnz6yVj61UWWZWWJhFWwAAAAAwJXiqoyMjO/NjYn4/X5VVFSorq7OLGoduj2vvtOG2vMX1qh89URVDdikgTd+pgOu4dXTlDk/V10cH5WkU4XjVG4sYuObvE19rv/Y+HyqzDDxmP6YfUSDiu9Q1z0Fujuy6rI9pNh+d2FPge7+6g4VT5T+mP2qXgt/PFzbHtodUb1fS+zVth8u+LV+2Sn6XrKDzzmDdNJYWTpmP3Lvyyo/Z5yDda7u83eXOWO8yGrW9jnEnWPSccywhwt+rV+6dvSeezj0zEdVPDHaa/HCngK9rElxztcSc63mMeOen3s1ccu3ev+9k+r85+66ZUH8Hm6xwVip3s12rMocNna9HouZDzGkvUvtocJxy23Vu7XKWLHZOm5l/GM5Tc1X4C6/pKC25M5u1ErM1rEUPdd6xLZH7PkPKgjqzvD9Lt2ohZt66LE5w1W1yT1U21WverdWTTiuscX3SfXVCyvd6BreHnteCe6TrMDSPY9korrfacNbJzT8dFdlPpKgv/XoeVr3+GClBbewEA0AAAAA4LJ2eQWQQDOavuC05v1U2v3rTpqUzBjwVidP+YHx8odKtPxXi7XTLG4N7PDVDCBbvYeqVT7hb5fwswEAAAAAQNO5fIZgA81s1QKfSlWr4TNqkp8LshXJyx8vv2pUsqaVho+XrG/1/oQqqcxH+AgAAAAAAAEkcDGu0S9+3VEh3xnNW9H4AfrNbmq+AoGAxvuD2pI7RYu3mxXQeN9pw1snlRXqqMWJhl4DAAAAAHCFIYAELkZxmm7ZnC71qtOLZllrtWa2cnNzldvIeR9Rj4cuaLgvXRvvTdMqswwAAAAAgCsUc0ACAAAAAAAA8Aw9IAEAAAAAAAB4hgASAAAAAAAAgGcuiwDS7/fr2muvNTcDAAAAAAAAaGGXRQAJAAAAAAAAoHUigAQAAAAAAADgGQJIAAAAAAAAAJ4hgAQAAAAAAADgGQJIAAAAAAAAAJ4hgAQAAAAAAADgGQJIAAAAAAAAAJ4hgAQAAAAAAADgGQJIAAAAAAAAAJ4hgAQAAAAAAADgGQJIAAAAAAAAAJ4hgAQAAAAAAADgGQJIAAAAAAAAAJ4hgAQAAAAAAADgGQJIAAAAAAAAAJ4hgAQAAAAAAADgGQJIAAAAAAAAAJ4hgAQAAAAAAADgGQJIAAAAAAAAAJ4hgAQAAAAAAADgGQJIAAAAAAAAAJ4hgAQAAAAAAADgGQJIAAAAAAAAAJ4hgAQAAAAAAADgGQJIAAAAAAAAAJ4hgAQAAAAAAADgGQJINK+x6/VYcVAPzjQLWpGZRZpfHNT8zevV1SwDEhk9T+sCAeVPNQtakan5CgQCCrw+TyPNshY1UvNeDyjQIu33nTa8dUyfLPguye0AAAAAgFQRQKJpteKAcVBBKw0VW3GbIWrkM+sUCOQrzyxocXnKDwS07pnWFSmqVbdZ1IsrTmi4L13bFvzAKPmBJr2fLt9PT+j9h4wiAAAAAEBKCCCbgx0wzTdfBUtd5Y8tmm5+UpLUddFBzS8u0iAt1YPmPoxXon0gBSvHamG2XwsnTNZJswyNkpdv9W5zv9Zp3mhneaKgKhqwWYGWuR/ny9yH9dlAKw3omt2a2crNzVXurxZrp1nWonZq8a9ylZubq9lrzDLvTF9wWvf1aqPdv26vp81CSfpdey3+cxtlTTitDdlmIQAAAAAgWQSQzaFosl7J9luhVrZfC7OXaG+1s/y4qhxv46quVIXm6A3HflbtCUkq1buOba88u8r8JNDi1s62wqXIa2vQVX70bI3rfTyVFTu184Upjv1sUVBSzd7ljm2ztdb5oan95VdQJXtrlNZ7VCsbdoyW9a3u+2mtQn++XpOKzbKoVQuu1+5QrYbPqBH/eQcAAAAAGueqjIyM782Nifj9flVUVKiurs4salGt9bwSm65xm+dqyOmNWjhjjqSlerD4PqXvWRI3QOy66KCm33xYq4weeV0XHdT0YZV6N3us9ju2p2pQQVB3Zjk2lIbPyxL/OO5zjtmHoXyTX2+stHt7zhmuqk1+HR7o+Ez17pjri7RT+/D7kPYuHaBtReH31jlok19FNxzU9GE+e3tp9Fzt46WHP2JyHndmkeZPdFyE0Q5uDZ1bvGO76yTdZjazfpX5vMws0vyJnbV36QCdnOis62iP1mJqvgJ3dVbJy1O0eLs1VHfWkEptMQNEye7FOF7aavaOs7Z33rtcU16I358vLz+g8dqi3K3dte7xm/S5fbyw+Md17ren8gPj5Y9+xBCMfnb0PK17fLAqt+bqUL+Axoc/FCrR8pgeh9Yxovt17MdRrq25eqfbOs0akhZTzzr38PZYNc52mZqvwF2OqwhuUe7s2Ja2NHRu0WuNHr0mci9jP29y7m+k5r0+S4PDX13XfgwxxzTPq+E2c5q+4LTm/fRqbbwjQe9Hp4eqVT6hSqWbM/SL35mFAAAAAICG0AOyVSjTmWopvVMvs8BzXRcdVL8Djt6ZS3erKuu+6PDwJO2f4fi8HZ5Fe3y6gzRJypwY1J3aaJdvVHn74fqla/j4Uj1YbIe0kR6f0pA5BzVurKOava/pnbY5epdm6c7wXI+O3qfvltqBo7M3qjP0DA+9Nnuomsau12PFczVEzn29Kk10zi+5VA/OlP7oONa7pT7X+SffZtbQ+zs7OY63dLc0bG6c++TTkDnOtjXao5XaWVEpqbO620Oym0ae+vul4OG10vYd+jyUppuGp9oHcq1m270rl++tscMsZ2/O2GDLf5cdeoZ7afoGa7pz+PfoeVpnB5zh/WwJ+jU+Zvi4ta9ZHYrtestVEvJrvL2ATLQ3aLyeoLnuUDY89Dp3uUpCziMYpuYrEBgvfzB8/rnKzT2k/vnOM8tT/lRpleNYW4JpGvx4eEh9Km0WHXpt9op1GvnMOgXscNfdZtFh/GH1tVnUdxpzc61Udm3D4aMk/e5alUrKGvCtWQIAAAAASAIBZGs0dr0eK44GVd06+aTTxz2Zj/DkswPc4WDRZH1YKinrVg1ybG5yrt6Fc3S4VEq/+WeRkKzronHKVKnedfRAPPnsq9pb7dOQiUboVr1bqyL1Vmn/ZyGpfWd1c9dqMoMmDld6TI/NVdo2w/l+jt4wenTu37RbVfIpa3RqAzkjbeHcX9Fk/XFPSMoaFxPIVu1Z4mjbxrXHz557S4WFhQleb2nBz81PNK28/IAC4dBrdHd1Vo2+TpxPxWcPvz60RpJ2ascXzTQM29W7cK0OBeU6bt5dg5UWKtEqR0C4dvYWBeVXtjlPZahEyyP7sq5BvuvU012riYzUvNH+OL0j12q2+d7o0bl2a4lq1JiANxl5untImmr2Lnf1gLXaLE2D7zJi22TaLLtO/XxS6cFrnFvrcY32lUnq9HeGYQMAAABAIxBAtgqrdPJ09F3X0f2U3oigqqlUnK6vi1TTKD+QaGizJE3XoJt9Uuk+Y9iw3U6derh681V99idPwtn4lqpfViOPmcxcnzHstqiuVIVRcnL7YVXJp47GMO6qr9zD+E8+O0ALUxyC/afn71VOTk6C171a8F/mJy5S8GtFZ4G0ei7K3z+mR2Aq8vr5peChSG+7nRWVku8mjWrSXpaxgofNPpFO1rXVfLHDGJJ9VF+HpLQO7mgxtp6HRo/STb6Gzj+B7SdUaW5rKlP7y2/PAepmhbvq0N0VKifVZr3+Lp/aqLLMLEis9HQbyfd31TNrAgAAAAAgAQLI1qRTD3XVdA26Wdq7p9TVI7DqdAq/lFMSu7J2dC7FltJLHdtLyrovZpXv+uZMbBZjeyg9TsgXj7V6ufP871OmWSlZ9fSATb+hZYLqppem6/x24BQsUUnIr/5Tw2WVOhFvXsCE7KDv7NHopjWH4veYa06ju6uzpLQhs4zVu53zILYQ/3VKS7Knaexq5PXN+dgU6jkvs3cjAAAAAKDVIYBsJSK9Dsf+TFk6rP3P7lN5+34aNHa6unYyazcVaxGXTGNeRGt17ZZkzYmp0uj8j65XzGI1zcjuxdhQ6Gct3OMz5nXcqHKzYhNIJgxNVbMPwXb0oMvr51fw8GLt+KJG/n55djCWIrvXnDvos0Oyi+xZeVHs6zTna4y8Ei4M0wyCX6smHALXI7z4TdAxH2N4HsoWEfpajpgZAAAAANAKEUC2CKuHX0yvxvadNWh0P+mzP+mk5uhwqU9Zoz1cmGbmrcqUVF7UiEDP/myMJAO6+sUfan2xKk6nPhdiLHvBIEfv1FjhYdO7VWQsvhNXvW1mz+EYZ05Oa6h+qQ4nc4wUeT0Ee2S3znF7NXbuNk/9/da8jTt3f66aRoaFef381lyAZsC3NSjJ2bMyDju8NDXNQjnxh1pfnCbapx2O+vvV1+IjNap3mhQq0TuuFcnja5I2s3uuxs4vmWg4exLKfqiQatU5hT+vWZ1qpdAPVWoWAAAAAAAaRADZHGYW6cGZ0bfWoiIhlW43e651VtbNimzff6BU6cPGKcujXm4qrVSVpMyB0UVdBhXEDsE++VWlpCz1C1/DzCLNn5hoLLQd0A27NyYwS8X+TbtV1X64pses8tx44eu43bXadqpWaVtRqRRzbtM1riC80rQdoLbvp0HhBWLGrtdjCYdg199mJ5/dpnJl6U7n8cau1y+H+VS1562U5nZsGSM1L9+5CrG1qIhzfsaI3jfJH96+fYc+D/mVPbpzir3c6gmm1hxS0BGyWQGZI5Ccmq/AXfHix2gPwYsbwr1Ti7cHJf94rTMXnGm0nTpxVpI/O2ZF6NSs1Tt7a+KcW57yI6tg28dyzqVpr+odt9WapM2s80obMt11fXn54+VXUMXO1b6TVXytDodSWdX6W93aS9LpH8qDv8QAAAAAcNkjgGwOK8fq8EDnHIvS3qUDtK0oWsUKx3xKb1+pk+HtK/epXD6lt4/Wa1JFk/XKplLXXIu3n14SOwR75Vit2hNS5kT7GiZK72Yv0d5qdzXLKm2bsNEKzBzzHzoD2KQUTdYr2RtVHmceyJT3FWZfR/qwudH9bQ6Hhlb4am2fqyHGHJSuY64cq4VLd6vKdW6PSpuiPUn3z1hirdg9xy6f01kfJhyC3VCbzdEbZlvMGa6qTX698uylEIfs1OKt0nTnUOiYlZbtXny+NMe8jfbK1b4UB2BP7S+/avT57njBlL1wSbhn5ZrZWr63Rv677HO7S9qSu1wl8WYh2L5YU7Za4WF0WHd+6j0018xW7sslUsw8kOsaHSCunb1cJaE0DX48uj9niJiXH95uzzXpuIZ8R2/QnS9MUe7WoDF0vb8OOe5VzLEev07FiYZgN9Rmo+dpXXj7XX5Jjv2+Hg2td74wRcv3ynV94zuUaHnu7NgQOyk/0AeftZF61elFsyieh+qUpTbavTnZVbMBAAAAAE5XZWRkfG9uTMTv96uiokJ1dXVmUYtqrecFAGitvtX7751UVllXZT5SX7D4nTa8dULDTzdUDwAAAACQCD0gAQBXoGu08c9tpF4n9f5DZlnU9AXnNNxH70cAAAAAuBgEkACAK9KqBZ20sUzKmnBaG7LNUkkPVWveT2tVurmTJhWbhQAAAACAZDEE+3Izdr0emzNc6eZ2U+lGLZwxx9wKAFcYa4h1v8+665YFP0hiOwAAAAAgVQSQAAAAAAAAADzDEGwAAAAAAAAAniGABAAAAAAAAOAZAkgAAAAAAAAAniGABAAAAAAAAOAZAkgAAAAAAAAAniGABAAAAAAAAOAZAkgAAAAAAAAAniGABAAAAAAAAOAZAkgAAAAAAAAAniGABAAAAAAAAOAZAkgAAAAAAAAAniGABAAAAAAAAOAZAkgAAAAAAAAAniGABAAAAAAAAOAZAkgAAAAAAAAAniGABAAAAAAAAOAZAkgAAAAAAAAAniGABAAAAAAAAOAZAkgAAAAAAAAAniGABAAAAAAAAOAZAkgAAAAAAAAAniGABAAAAAAAAOAZAkgAAAAAAAAAniGABAAAAAAAAOAZAkgAAAAAAAAAniGABAAAAAAAAOAZAkgAAAAAAAAAniGABAAAAAAAAOAZAkgAAAAAAAAAniGABAAAAAAAAOAZAkgAAAAAAAAAniGAbDb3a8mMtVo9YphZAAAAAAAAAFy2CCABAAAAAAAAeIYAEgAAAAAAAIBnrsrIyPje3JiI3+9XRUWF6urqzKIW1VrPS5JGjFipR/q1MTdH1B5+TdN27ZE0TE9NelgDq7dp0l9+rNUTBij8qWid+7Vkxjhlnj+oFRte0i7njvo8rw2jMlS+I09zjzi2j56ndY8PVlpwi3Jnr3UUAAAAAAAAAN6jB6THdu2aqUkFeZpUsE3ldphovbdeVrDo0H2cNky4UV9stuvsOKY2/R7Wkj6S9AcVHq6V2t2oEZ3cH5vcM0PSMX3qDB8ljRx+k9Ikyd9fee4iAAAAAAAAwHMEkK3OMRUWzNSy0/bbI5+pXFLn663Fa3Z98aVq1Ua9ezsXs7lffbtLtYe3ab1jqyTt3P25aiQpeEj0fwQAAAAAAEBzI4Bsbc5Xqdy14Q+a6+wpeXqPvjgvtckYphHhKn1uVqZq9cUXRm9KSdq+WFNycxl+DQAAAAAAgBZBAHnJ2aNl+4+5hmFP7pkhndge7TUJAAAAAAAAtBIEkJeiI5+pPDIM2xp+XX70D2YtAAAAAAAAoMURQDabY6o6L7VJzzALGsFajKZNxjCN6HOzMuMsPhMxep7WBQIK5LMEDQAAAAAAAJofAWSz2aOvqiV1H62njBWsG2PXF1+qtt0APTIqI+7iM2Gsgg0AAAAAAICWRADZjNYXvqYD59to4IS12jDDeq0e4VzNOgX2YjRKtPiMjVWwAQAAAAAA0JKuysjI+N7cmIjf71dFRYXq6urMohbVWs/LW8P01KSHNVAHtWLDS9plFgMAAAAAAACtAD0gL1Wdhql3O6l8P+EjAAAAAAAAWi8CyEvS/VoyYYDanNimuYkWnwEAAAAAAABaAQLIS0mnJ7V6xlptmDFOmSe2aVLhH8waAAAAAAAAQKvCHJAAAAAAAAAAPEMPSAAAAAAAAACeIYAEAAAAAAAA4BkCSI/5/X5de+215mYAAAAAAADgikAACQAAAAAAAMAzBJAAAAAAAAAAPEMACQAAAAAAAMAzBJAALimDCoKav3m9upoFrcZ0jdsc1PzioB6caZbBO3nKDwS07pmRZkHrMXqe1gUCCgTylWeWXVK+04a3jumTBd+ZBXB4ccUxla/41twMAAAAXJEIIAG0Ikv1YHFQjy2abha0uK6LDmp+cZEGmQUtrvW2WZOyw7v8qWZBy8vLDyjw+jy1uujTozZ7ccUJDfela9uCH5hFV4xk/kPI05s7KtTrJEEtAAAAQAAJXAqiPercr2gYNqjA/d4tHFCtTrAfx6tgqflhpGyVtk3wa2G2X2+sNMtwRdu+WFNyc5WbO1trzbJLxPQFp3Vfrzba/ev2etoshFtxmm7ZnC7fT0/o/YfMQgAAAODKQgAJtHrRQCv8WrUn5KpRcdr9Pp6qr6a597OpVFJIe5c6ts2YY34MAGzf6r6f1ir05+s1qdgsQ1y/a6+NZVLWhGq9aJYBAAAAV5CrMjIyvjc3JuL3+1VRUaG6ujqzqEW11vNSKz83q2fdXA05vVELN/XQY3OGK90uqdqzRK88uyq2bvvw+5D2Lh2gbUWOKpI0dr1rP1Kp3s0eq/2u8n4qXTpAJycGdWeWvb16t1ZNmKyTkc/J7rl3nzIj781jWuXa5FfRDQc1fZjP3m4c0zaowHG8uNeoOMeMv6+W1nXRQU0fVhk5N/O9W7SdXD3yZhZp/sTO8e9jKmYWaf5ER8PGtJl1/HSjvZ3nXLHIef9iOe/VoIKg7uy0W6tWSr90PGvl5vVFjhHdr3nPuy46qOk3H9aqCcc11nHfo/XM58HkvNYkvyO2hs5NcZ5ZlW6MhMTm500x+2vou+m8T1/d67qn8do2GXn5AY33OzYEtyh3tqPv3+h5Wvf4YFVuzdXsNdHNefkBje9QouW/Wqye5j4Mwchn85QfGK/Oe5drlaZr1pC0cA1tielxOFLzXp+lwZHmq1HJy1O0eHu0Rl5+QOO1Rblbu2vd44MV2Vv4ePa5h7fHCFnnv1Nx6jrLYjR8bjH7M+rEtLsh2maWkc+sc7SXVLN3uaa8EHt20xec1ryfXq2Nd8Tv/Rj9Tr+lrs7vQpy/7+bzG/O8Kt4zK+N71fDflujzneT3M+aYju9JTJkhznVKkrJr9Mm/nZH+3F23XMHD1gEAAHBlowckpKz7NH9OP5WGe8JtKlX6sLmOBTSW6sFiO6iM9MCThsw5qHFjHfuxf5xpz5Joj7qllbo9ZlivT0PmBHWnwvvbqPL2wzXdWW9mkebbPyzdx4xd2CNzYlDTO22z6y3R3uos3WnMzWUFOaV619GL8MNOj8aev3HMd0uzdGfCoc2tx8mvKiV1Vlfn9TSHsev12MB90fsdbv8U2+zkswOiz4IdRkT36Y8NJtoP13THM7tqT0iZE93HHFQQtEOI8LO4Wxo2N3auxPbDNb14nM7Eff7n6I3I8xeyw4joeS10BRyOnqqbSp1HMFhD6qcPk6v36R91r+t57LrooPodcBxr6W5VZd0XGSafSpt1XXRQ8+cMV9WmaLn1bBvfYUnpw+Zq/kRFrtNq29h6DRn5zDr1P5yr3Fz79XKJavzjFchPbfmVtbMdn7fDs8g+c91BmiSlDZmlWb0/1/LcXOXmLldJyK/xrmPmKT8wS4PPbonsY/leafDj6zRvtKOaJPnHK/D4dSqO1KuR/y67XmQ4da62BO1Q0XFeuc6A0aybyOh5WheYpcFy7muVdJdzfsk85U+VVjmOtSWY5jr/VNosLz+gWUMqtSVc/nKJNGRWnMV8vtOYm2ulsmvjho9RWbqzeK6yPgs/j7F/35P6bs4sinlm6/9e1aeJ/g0rmqxXIt8fO3B0fOcWxgsfJan4Wh0OSb6b63SZz9QKAAAAJEQACTtUcfQEWblP5ZLSb7B+KnVdNE6ZKtW7juG5J599VXurfRoy0REaZnVWukIq3e4Ii4om65V4w3odPbmkOSraE5KybrUDpOkaNzZLKt3oClGsY0qZY42J/6t3a1VkX6u0/7OQ1L6zukUqTFfXTpJK97l6B+6f4e79MmjicKVX79YfHcfcP2OjypWl283Qql4/04I3C1VYmOD15gL9zPxIExtU4JjPcWwPpSukM4397V6fmPu7StuKSiVlqZ+nK0C7ey+d3H5YVc5jjl2v27Ok8k2OgLBosv64J6T0YffGhKPlmxI//01u5r0a0j6299XJZ8ca7we4ex0WTdaHpXJ8T5K1VGOH+VS1Z4lrf9azbXyHFQ5Vou1mta1PHZ09MZOw84Up7nBw+2IVByX5+3u7ArSrd+FO7fiixnXMkc9ky6+gtjh6Yu58YZVKQmkafJd5ZjUqeTnae3Ln7s9VozRdV0/vwouRd9dgpcX0jtypxbOd79dqttF7cu3WEtUoTTcNN0PDBoyep2y/FNzq6CG6fbFW7a1R2pC73fcpu079fFLpwWucW+Mq3+QMwOfocKmkTj2sv9tJfTej/wY0puetyZN/w1LyA33wWRvJ93el+DUCAAAALhsEkJCqK1Xh2mD1+rJ+QE7XoJt9MeGdtEonTzt+VEpSaaWq5IvtVRJH+QH3DzpXD76xP1NWe6nqdJmrTvxwUar67E/xe51E2Ofq6D0Wa6n6ZcXbV5nOVEvpnXq5ttbvT1rwQI5ychK8HligP5kfuVillaqKvLGuJfWgqom4zsUj1Ye13xw66dB1dD+lq1SHjfAifk/R2HpeGjQwq8HzTySZuT5jzLxVmZKqvjJ6kZrBUNjp4+7vgN3rqymCoKNna8xNTa7mix0JhjZL0kiN6p0mBQ8ZQ7J36sRZSR26u1eyDn2uHc6hz57KU39/Q+efwPYTqjS3JWHk8JuUpqAOGb1Id1ZY35Puzh6hvf4un9qo0vyzHCP2P3bsnxHtHZjUd9P+N8D8d6JxvPk3LFWr/udqSX9Tj2yzBAAAALgyEECiAb3Usb0d3hkrJrvmplM4qLB7Vc2JXak5VbGBSZgZIDVs/wx7CK3jOlzD/cb2UHp4+KnrOp1zhrV2di+1mbcqs3S39lY7eyFW6mQjAq9kWCtwO171zZHWTLp18tlDQY1zc81V2RLs3rhmyBeXtXq58/zrm/OxfrGhUIQR6DedPOUHAgo4Xs55BltGT13ns4dWG+dW35yJzWJ0d3WWVFnRcPw48pl1xvmPV2NOv2eHNEl+jTfaInBXY/aWnOb/brbcv2EAAAAAoggg0QCrB6BKo3NnuV4xc15F58yz5utKfT7AhjUuTIvOmbdEe6utsDESQhYdV1WcefQir5SG4LXAEGz7/GX3sCs/MFn7Pwspc+BSe1ihN6y5NY2VtJfu9r4HZAOsnoLmfI3hV5yFJ5pNnF5XcdmL3xhzzJmrnzeJmB7QTcFaEMZvzIu4fK/3PSDrd1Rfh+zFcJzzNYZfCReGaQZ2L8bO3eofRh1eMMY9r+MW1Te1ZCJWj9RgdP5H18tY+KaJNP93szX+GwYAAABceQgg0YBkA5M4Vo61f8A13GPRNSy16E8qrZYVnrkkGkqXqlXaNsEOISNDqxsz1DoR74dgd+vkixscpd+wXv2yrOGNJ7cfVpWnw7Dtod6l2xoRGtj3MkbT3If4Q60vTlPts+J0SGrfT4Pq2489bLq8yAxH4mmgzVbuU7l8yhptzmmZaNqBJI2ep3WBgAKB/Ng5Haf2l19ScHtjAj1rKHKMJAO6+iUYan2Rjp6tkXzXqadZkBIrHE3rPaqec7OHkIdK9I4xbDquBtos7lDrRMp+qJBq1TnBY5aspL5H9n9Qcc/Das8L2SDzb4s3/4ZZ3+Pkew9P//HfJF2t48VmCQAAAHBlIIBEg/Zv2q0qc5XqOLouOhizQvWggVkN91icWaQ7s5xhi72QSdZ9rv11XfSotXjHplR6I8rqTWasih07z2T0mDGrJLe4pXrQ2fb2Ig5xg6Ob+ykzHNAW/Uml1Vm6fWznuGHlxbN7FjlDTnvlWnePSzsgu/ln9j2YrnGbEw1tD8/XOe7i5mBb+Za1wMScJuy5FJ4fzly0JUUnn91mD/F0n1vXRUXRa7bn0XSG8NbKwfFC24bazFrkKX2Ye9X3QQX3KVOl+tBcYTxJ1vyBkuRX/6lGYfBr1Ujy94tGk9Zqy8YQbDsgi9aze066a9nsgM5cHCVFa7eWqMY3WLNSXI27PlaQ51d2zMrRqdipxduDUsy5jdS8/PAq2HaA6rtJo8Kh4eh5WtfYNlvzjrX4zuNxQmSTvZJz1oBvzZLUJPXdtOYndS4YNahgroYoZPSuTu5vixf/hllBarILlNkriId+qEQzIQAAAACXu6syMjK+Nzcm4vf7VVFRobq6OrOoRbXW81IrP7fIjzXt1qqYYWgme0iosbV8k3txCmtIrqNCtbHvsev1WExAFbsisGSHWa55wUr1rmN13vA5pe9Z4lotu+uig5o+rNJdN85xzXOX4tdLeH7NyWiLKuOanT+8nWVWW/hi74PC++x8kddmPBfVu7VqpfTLOcNV5Wpfd72qPUv0ylf3av5EGfdUcUME5zUNKgjqzk7xnyv3MeM8j3KvwB73WUnwXEmx98H1TMZ9dmwx7V//NUqxx6ras0R/1KNxzldJ7S/yLITFnJN9j1wr1Ndj9Dyte3yw0hTUllzHKsphU/NdcwnW7F2uVZquWUMq3fUj+7EEt+bqnW7rNKv358Zq0IobUAa35tqrbVtlnfcu15QXop+yhiwbx4yzH7n2ZQWm4zsYK1Lb51rpqBcWHhod4VjNOqbMocY4X7M9rJW4ncOhR2re67M0OHIrg9qSe0j941y7JfZandep8LXGNMYW5TpWCpek6QtOa95Pr9bGO9rraVeJxXrGlNTflIa+m+YzHf2bYf7NSvZvSxP9G+bQ8HfKll2jT/7tjCo3Z+gXvzMLAQAAgCsDAaTHWvO5tYgEQREAoLX7Vu+/d1JZZV2V+cg1ZqH3muQ/mjS/F1cc032dOmrxvWlqXH9jAAAA4NLHEGwAAJCEa7Txz22kXif1/kNmGeJ6qFr39ZJK3yd8BAAAwJWNABIAACRl1YJO2lgmZU04rQ3ZZilcsmv0yYQqhf7cnaHXAAAAuOIRQAJwGVQQ1Pzihl4HEyx4AuBy9/Qj3bU7VKt+I78zi+Dw4oQz8pV11S0LfmAWAQAAAFcc5oD0WGs+NwAAAAAAAMBr9IAEAAAAAAAA4BkCSI8Fg0F6PwIAAAAAAOCKRQAJAAAAAAAAwDMEkAAAAAAAAAA8QwAJAAAAAAAAwDMEkICXRs/TukBAgUC+8swyuIx8Zl2rb6e8/IACgYDWPTPSLGpZl/pz1tD5T81XIGC1fSAQUCA/bq3Gs4+fP9UsAAAAAAA0BQJIJOl+LZmxVqtHDDMLrkiXQljW2rTeNstTfmsMFVt1mzWzNbOVm5ur3NzlKgmZhQAAAACA1o4AEvDS9sWakpur3NzZWmuWXRKscK5V9vprAWtn5yo3N1dTXthpFrWs5nzOIr0VY1+N7kHYnOcPAAAAAGh2BJAAEpvaX34FVbK3Rmm9R4kIEmHBrVYY63zNXmPWAgAAAABAuiojI+N7c2Mifr9fFRUVqqurM4taVGs9L7dhemrSwxrYLvy+Vgc2z9Sy09a7ESNW6pF+baQT2zSp8A+RTyXabg2JHqfMyPtjKix4TusdNRquY5VrR54Kr7ePY9SLHD+B2sOvadquPebmBo18Zp1mDUmLvK/Zu9zRqyxP+YHx8qtGJS9P0eLt4VqJto/UvNdnabAv/N4st2vVe0xrfr/x2qLcrd217vHBCtcMbg0HK+HjJxLUlnAPrtHzXPtQqETLf7VYcfvNmXWd+4mU36TPX56iE3cFND58AnH3aZ5j/LZIlrtNrHNw7isvP6DxHYzzsK+ncmuuZq8xz8cUvVbr/lRqS+4h9Xd8xrxPFnO/qbeZ+TyYnMfNy3fsw/VMxNPAucme0/AuZ6s465ifN7Xwc+a6v+GN8ZntpuAW5c52tIR5TuaxYtjf9bPGfhzM+5rc82OJd1/D+4tXBgAAAABIDj0gm8X9WjLjYQ2s3qZJBXmaVJCnFYelgRNW6qlOVo1du2aq8ISk7qMj29TpSf0qXvjY53ltmDFOmSei+5tU8Jn65twfrdPpSa2eMU6dD78WqVN4IkM5M57X5GgtSVLmqLV6JONLrSjI06SC13TgfIZyJj2pEfZ5WZ/fpnI7cIweM69R4WNefsAOmuyeUy+XSENmOYb4rtXsl0tUozQNvis6+11efpzwcfQ8rQvM0mCVaHmkJ9Yq6a55rt56DR/T5h+vwOM36fOXrXrL99bIf9c6zRst67zszy/fW2MHOM4eYI4wJzKkNFdbgq4juIx8Zp0CdpgT3s+WoF/jA+FjhqVp8OMBZZ9dbtfboqBvsGa5FuOwQ5XgFsc5Feu6qe62SF6e+vul4OG10vYd+jyUppuGp7qnFNpMkuTX+MB4KdweW4NKGzLd3Raj52ldYLw67w23RbjNzLkS62+znS9MiW63g6roebmHWYeHXue+XKIaxxFiTM1XIOYeHFJ/530aPU/r+h1ylC9XSch5/im0WYs8Z8kZ+cw69T/sOO+XS1TjH+9eQCbJ809WUt/zOM9P4vs6UqN6W2Gmv1/qbQAAAAAAsBBANoMRI0YrU8dU6AgRd+1apwPn22jgT6Kh4frC16xtY5/UCA3TU2MHqM35g1rh6vk4TE8NyogNJfUHzXW8n/wT67OvOwLC9YXbVK4MjTEXkjl/UCs2vKRdkqQ9Wrb/mNTuRo0IB6FNafQ8Zful4FZ3iLJqb43ShtwdDZC2L9aUrUHJP96aV25qvsb7peBWowfeXYOVFtNraqcWz3b32ErqmFJMj8GdLxQrqMYEb8nI091D0lSzd7mrZ9Xa2VsUNMJXyeo9Fg3F1upQUFKH7tFwcXR3dZYdGEas1ex6e5TVwx5+fWiNJO3Uji+aZxi2q6fZmkMx7R++56tcAeEWBeVXthkoN9RmTWqk5o32x/by01rNdr7fvlhTXOU7tXh7UJJf/Rs7h2K9mvg5S9LOF6a4ewxuX6zioCR/f28W1Unyex7v+UnMeu4V870CAAAAAKSCANJzwzQio4104jNjePQefVUtqf2PNcKxbVnRQdW2G6BHZjysge1qdaAoHAzaOg1T73ZS+VFn+Gi6X327S7XH9rg/q2OqOi+1Sc9wbY2pd6ZKtWqj9I7OjU1j5PCblBYJtaJ2VlRK6qzuzt5Ya2ZrS1Dy3xWwhqsGtxhDIK0eejVf7Kg3YEvpmKHPtcM1XPmovg5JaR16Ojc2jan95ZdUWWGeffzQp8EAZPsJVcpqr0YvBuKQ188vBQ9FwpydFZWS7yaNcvWYa2qx98kt0T2Pf58abLOmNHqUbvI18pjBrxP0wGsCTf2c2fx3mYvQmD1QYx0969lVJvk9T/T8JBbuKcvwawAAAABoPAJIz2UovZ2k7uO0YcZa1yunu1lX0umX9PrhWklS7eF1kTkiIzqmq41qVXXG2O7U6cfqLKlNv4eNYzrnoGwZPTuk2cNsjfDCNR9elNVLS9YwVHPON7vHX2yw4pbqMZtXjb5ONPTUd51Siz3XanbucpWEnOGQOcQ2WXZQc/ZodJPdGzGmx1xzsu952pBZRvjlnAO0hfivU1p999MhL994Fl1zM3qhnvNK+TmzxC5CYw6nj66gHn7VN+fmxWrd33MAAAAAuLIRQHrO6nUo13yNjldk6LOtz/N6pF8blZ84pjb9HtaSPs7CJHsnnv4fVcaZrzHycg3dbl5WDyhzTrvwy1wsZaTmvT5e/lBQwZBf41835jK0e/x17lb/4NDUjtmKhL6WI/5L0k4t/pVzXrs0DX68ESGk3WvOHfTZi3Z4NYQ2GfY9N+drjLzMkLo5Bb9WjdJ0XQN5l7UwS41K7HlGo/eqhTTqOWuIPR9pyDk3a3hOS29cst9zAAAAALgCEEB6Lt5Q60Tu15JR1vyOcwu36cB5KXOUsWiMHS5m9nQsOBMj/lDrZI3ofaPa6Jg+PeLcenH7DIs77DmBkc9M12BfjUrWzNbs7UHJN1jTXXP82cNuG5iXMJVjxkgwrPai9hkWZ35DS+rDROPavlhT7BAyXigW7oUXsxBPePi1ER7l5lqLwjQ0V6E1FDZWk7RZgqHWF6eJ9hkeAl/vYiXWvVWwOKlArEnazOvnLB47wA5ub+T8o42QXFvFv9d5dyXugTrymXUKBJpmWgMAAAAAuFIRQDaD9X+x53V0rlIdY5iemjTOsViNPR+kMpTj+twfVHi4Vuo+Tqtdi8ncryWRevZCMjF1kmCvvF17eFv8OSudq3Q3xpp3VBJK0+DHG5gvbmq+Zg1JU83eVVZQY88H6V4R2V68I2aV3pGal+/oLZnsMWOM1Lyp1oIV75jzv9m93S5uOPJavbO3JmaVZ2u176CKk1okw2FqfkyYaIWB8Ybf2kGY4gW49QRTaw4p6AjZjp6tcc0LOfKZdYmH2TZJm9n33D8+5lobb6dOnJXkz069p6iLdT9jzy1P+ZHn0wrAXL1Ip+YnHoLdJG3WxM9ZMuw5LZ1hrLVCddyrbBpJfc/tRWUc93rkM+s0vkNNgh6orIINAAAAAE3hqoyMjO/NjYn4/X5VVFSorq7OLGpRrfW83O7XkhnjlGlsLd+Rp7lHpMk51pyQtYdf0zTHytUjRqzUI/3axK563ed5bRjl7I14TIUFz7lDw05PavWEAWrj3KZaHdg8055bsv5zijVMT01yzyNpnm+yrGGoxsbw6sGj52nd44OVpqC2uOaVs4d1GitVR+uHGeW2eo+ZRHmMqfnG/HLR860viKvZu9yxynCcuuaq3vb1VTpXhw6fbwd33Zh9xbRhVPh6zfOxrqtz3DZU5HPR/braLVSi5b86obsD4yXjfKVk2qwy7j3vbJ5jzD2X+76n0GaWkZr3unseyWi7hJ+7eOK0bz3XaDH2FyrR8jXS9DjnK9W/v9j7HWXe15i6jX3OEtSLYZx3zd7lWqXprnscc04OzvOP+920uVZNT1TX+B676gS3KHe2lJ/gmQ2fo3kcAAAAAEDyCCCvaFYA2bmRIeLlJiZoAQAAAAAAwEVjCDYAAAAAAAAAzxBAAgAAAAAAAPAMASQAAAAAAAAAzzAHJAAAAAAAAADP0AMSAAAAAAAAgGcIIAEAAAAAAAB4hgDSY36/X9dee625GQAAAAAAALgiEEACAAAAAAAA8AwBJAAAAAAAAADPEEACAAAAAAAA8AwBJAAAAAAAAADPEECiaXV6UqtnrNWSPmYBAAAAAAAArkQEkIAkdXtefedv023zN6lLN2fBGHV5bJtumzzNuREAAAAAAABJIoAEHC5USZk/J2wEAAAAAABoKldlZGR8b25MxO/3q6KiQnV1dWZRi2qt56VWfm7SMD016WENrN6mSX/5sVZPGKA2dknt4dc0bdee2Lrtwu9rdWDzTC07bb2bnLNWOd0d1Q3lO/I094g9RHvCAFWG39sm56xVTvuDWrHhJe2SpD7Pa8OoTjqweaa++olz38dUWPCc1kuS7teSGeOkHXkqvH6lHukXPntnnSR1e159pw2VPv5YNUOv17mFjyok2T0gn1LmuYA+Wr86Uv2aOzZp4NC06OePxim/8TMdeOWv6jY/V13s7Rc+XqZP3/sgUs8yTZmOOlKZjkSODwAAAAAAcGmjBySk7uO0YcKN+mJzniYV5GnSjmNq0+9hxzyO92vJDDuoLLDqrDgsDZywUk91smqsL7Q/u/mgau3AMVx3UoE7bExeGw2csFY5Ch/3NR04n6GcSU9qhKNW5qi1eiR9e711kveBzh3tpR53jDELbNaQ7IFDT+rIwnH6aOE4fbQwoFM9c3XbY8/rGmfV9KEaOP8OfbParldYprZDn1LmYEedbs+r7/xcpX28zN7XOB052kt95r8qn6MaAAAAAADApYoAEnaPwWhvRh35TOWSOl8/TJI0YsRoZeqYCgv/EPnErl3rdOB8Gw38yf2RbV6oPfyaJkWOu0e7jtVK7dKV6ax0/qBWNFQnBaH/+li6cYw7TAwbnKvM9BqVr3b2UFyt8sIyKX2oujnDRUmnCifqVIX9puSATklK6xwNN30/H6q2VR+r1NErMrQ+oFOqLwQFAAAAAAC4dBBAQjpfpXLXhj9obkGePQR7mEZktJFOfGYMad6jr6oltf9xI3saJqfynHMYuLRr10xNMoZX1x7bYw3bbioVz+n4udgwUZJ8fXpJOqlvwqFiWJxwUSrTuRLH2xjTdH1P6cKXH+hb1/YyfVMlte3Qy7UVAAAAAADgUkQAiQZkKL2dPUx7xlrXq745Hy91oSNl6jLCGFIdVnXOCAyjUgoNu/2D0iS1HfqUbpu/zfF6SpnpZmUAAAAAAIBLEwEkGnBMVeclnYjO/+h6hReNudyUBFSum5XezSyo34WzZeamxCr+qhp7YZrw/I+ul2NRGwAAAAAAgEsVASQakOJQ69P/o0rH/JHJuV99W11vyg9U9aXUcYC7R2PoSJmUHieYHDxQXVSjMwfNFa7rw1BrAAAAAABw+SOARIPW/+WgatsN0CM5ySw4Y/WYbNNvnCabRYoGlJk9w/u6X0tmjGv0gjFe+va991Qz9A51dG4sCai8Kk2ZE53Ds6cpM6eXdPS96IIzSflAp3aVST1z1ZcFZwAAAAAAwGWKABINO/2SphVsU3mceSCX9DEr79GyDdtUrgzlxK33B83dfFC1kX2Nk3bkacXhWvduWoXVOnc0TW1d8zF+oFOvLFO5hmpgZM7GXKV9vKxxQ6ZLHtVHqz+WYuaB3KQuZi9LAAAAAACAS9BVGRkZ35sbE/H7/aqoqFBdXZ1Z1KJa63mplZ8bAAAAAAAA4DV6QAIAAAAAAADwDAEkAAAAAAAAAM8QQAIAAAAAAADwDAEkAAAAAAAAAM8QQAIAAAAAAADwDAEkAAAAAAAAAM8QQHosGAyqrq7O3AwAAAAAAABcEQggAQAAAAAAAHiGABIAAAAAAACAZwggAQAAAAAAAHiGABIAAAAAAACAZwggAQAAAAAAAHiGABIAAAAAAACAZwggAQAAAAAAAHiGABIAAAAAAACAZwggAQAAAAAAAHiGABIAAAAAAACAZwggAQAAAAAAAHiGABIAAAAAAACAZwggAQAAAAAAAHiGABIAAAAAAACAZwggAQAAAAAAAHiGABIAAAAAAACAZwggAQAAAAAAAHiGABIAAAAAAACAZwggAQAAAAAAAHiGABIAAAAAAACAZwggAQAAAAAAAHiGABIAAAAAAACAZwggAQAAAAAAAHiGABIAAAAAAACAZwggAQAAAAAAAHiGABIAAAAAAACAZwggAQAAAAAAAHjmqoyMjO/NjYn4/X5VVFSorq7OLGpRrfW8YnR6UqsnDFAbHVNhwXNab5Y7TM5Zq5zujg0ntmlS4R8cG9DSfJO3qU9P6cLHy/Tpex+YxQAAAAAAAKAHZOtkhY+1OrA5T5MK7BfhI5rQNXds0m3zX5XPLAAAAAAAAGhiBJDN6fRLmlaQp0n19n68X327SzqxXctOm2VoTULrx+mjheOu3N6P3Z5X3/nbdNv8TerSzVkwRl0e26bbJk9zbgQAAAAAAFcoAshWqrbqmLkJaJUuVEmZPydsBAAAAAAA8TEHZHOIzP1oO39QKza8pF3uWrb7tWTGOHU+/Jqm7dpjFiat66KDmj6sUu9mv6Wum+dqSHu7oHq3Vk2YrJPOyjOLNH9iVvR96UYtnDHHWUPSUj1YfJ8yI+9D2rt0gLYVRWsMKgjqTm3Uwk099Nic4Uq3t5dv8uuNldF6kbqOQ1btWaJXnl0Ved910UFNv/mwVk04rrGO45r1InWHOQYTxz3/2Hrx9pWM8NyPYacKx6m8xFkjbJoy5+eqS+R9jcpXT9SpClelhnV7Xn2n3awzqyfqm587jl31sQ688py+dVWu75hmmalMRxY+qpC5OZFuz6vvtKHSxx+rZuj1Ohf57Bh1eewpZZ4L6KP1qyPVr7ljkwYOTYt+/mic8hs/04FX/qpujvOMP8emeS2Jzz0vP6Dx/hqVvDxFi7ebpQAAAAAAwGsEkM1scs5a5bQ3A8hhemrSwxrYzlXVoVYHNs9MaUi2M2yLBm12iOgI6Kx6coSJsXUSbtvcQ0WOMDMaKkbDyYT7dwahY9dbgWXMefncQacdlDoDzdj9W9vGfjXAFXpa51aqd7PHar/jmGpkCClFA7iauAGkHZC5QrZpynzsH1QRExo2wD5OW1cYF2f/g1/VbTm9XIFdOPQzQ1Jr+8mEoV1SIgHkMh3v8JR6nA0f1wwg7ffpzpDQPn9HiBoNKB2hqX1NrvN3HDd8nVYoHC+EzFN+YLz8kmr2LteUF3a6SgEAAAAAgPcYgt0q7NGyDeEFZ7apXFLt4deiC9AUpBY+OpVv8jsCtjk6XCqpUw91lSQt1dhhPlXtedXRk3GO3thUKmWN07ix9qaxPZQuqfyAs1fhHL1h9qSUYnpGnnx2m8rlU9bo6ZKkrovGKVOletf52aLJ+uOekPuYtvJNjl6WK/epXFL6Dda+JKlbJ59UfVj7HT0xTz7rDh81dr1uz5LKN9nho6LHTB92rwY5qjaZbv+gNEmnjkR7+EmrVZ5q+Oh0NODoCbha545Kuv4fdI1khXwjehl1pG/fW6HyKqnLiOftet4I/dfH0o1j4h9jcK4y02tUvtoZDq5WeWGZlD5U3Qa7autUoaOXaMkBnZKU1nlMpNz386FqW/WxSh3XGVof0Cn1Uo87ovUsa3UoKEk1+nw34SMAAAAAAC2BAPKyFtKZUveW/TP8WhgO/2beqkyFVLrd6AFYWqkq+dQxPES66LiqJGVODOrBme6qMYwwUCrTmWopvVMvSdM16GafVF0pcxTyye2H3ceUJJXqsDF021RxOiS1H67pm9fboWqsrqP7KT3Ovk5+VSmps7oaoWeTqPiraiR1ydmmTCNgayx3mGnoNkYd06ULZ8uMgg9U9WWNlH59/HCwqVQ8p+PnYsNESfL16SXppL4xb3qccFEq07mY3qRO03R9T+nClx8YQW6ZvqmS2nbo5doqSWtn5yo3l+HXAAAAAAC0FALIK1jXGzpL8mnInKDmFztejvkbLXP0RvYS7a22Qkir3sGY3opJO308Ts9Ji7N3YzJOPjtACzeVWiFk+PwLlrrqdOvkk5SlO53XWBx0z3vZ5FarfOEyq/dhzjbdFne16KZXU2nOlRjWVT/y+NihI2WJe1pWnUvY8zNeaJiQ3bO07dCn7DYNv55SpvuhBQAAAAAArQQB5BXM6gEY0t6lfi3Mjn25F45ZpW0T7LKlu1Uln4bMuYgQMoGqrxoxH+PKsZFzfrdUUtZ9rhCy4nRIUqnejXONC7PdC+k0rQ906pVx+mjhOH20+mNdUJoyp3kfQsYXpwdiUysJqFw3Kz3F64vttVkPu2fphY+XWe1qvhyL2gAAAAAAgNaBAPJKZg61TlbRZL1ih5ANfnbsz5TVPjx/5Crt/ywkZd0aM+9iomHSqdo/ww4hI/NcejzUOlkVz+lTO4T0pCdixQc6UyV16TPNKBij9BvTpKMHXIuzfFt50oNekR+o6kup4wB3j8bQkTIpPU4wOXiguqhGZw4m6rUZT+Kh1onk5QcUCKzTvNFmCQAAAAAAaA4EkFeyosn6sFTKnNhAT8aZRXpskXtotBUYxs4x6TZd42YOV3r1bhXZwaK1KE2W7nQOkx67Xr8c5lPVnreii8QkZbrGbS4ywsyl6pdlDPNe+Zb2Vvs0ZI5Z10ODX1VfY0GUawbcrLaq8agn4gc6tatM6pnrmnPymjsesRaA+S+jZ2DFOatH5s/NwPLifPvee6oZeoc6OjeWBFRelabMic7h2dOUmdNLOvpedMGZpESv02zf+PLU3y9Jabpp+EizEAAAAAAANIOrMjIyvjc3JuL3+1VRUaG6ujqzqEW11vMKGzFipR7p18bcLNmrXU/btcex5X4tmTFOnWO2p6brooOaPkyuFakTser63Burd2uVY6Xq2Dqlejfbsaq0pEEFQd1p9ogs3aiFM5yrZ0vSUj1YfJ8yHVvKN7mHfFvHqzSOYX0ufc8Sx8resfuqcpVHJX9+9ZmmzPm56mJuliSV6cjC6ErP19yxSQOHpiUsT1q359V32lDVFI5TuWOBFt/kbepz/cc64FxZe/Crui3H2TuwnmOmUjce+7z08TLXytu+ydvUp6e1and0SPQYdXnMPU/jBeNzVnudNM7Bau80o2742G2jWyTVqHy1YwVtW15+QOP9NSp5mYVoAAAAAABoCQSQaDKDCoK6s5M7uAQAAAAAAMCVjSHYAAAAAAAAADxDAAkAAAAAAADAMwSQAAAAAAAAADzDHJAAAAAAAAAAPEMPSAAAAAAAAACeIYD0mN/v17XXXmtuBgAAAAAAAK4IBJAAAAAAAAAAPEMACQAAAAAAAMAzBJAAAAAAAAAAPEMACaTA16mbxj3+vLIfmmMWAQAAAAAAIA4CSFwxsh+ao3GPPy9fp25mEQAAAAAAADxCAAkAAAAAAADAMwSQAAAAAAAAADxzVUZGxvfmxkT8fr8qKipUV1dnFrWo1npeauXnJi3Vg8X3KX3PEr3y7KrI1q6LDmr6sEq9mz1W+426mZH3Ie1dOkDbiiIbbGa90rj7Sd+zRK98da/mT8yKlJRv8uuNlZG3TSLrtjHq/4v/pf/rBz80iyRJtVVntevNlQqdrpDi1P/7t9/oz3/8D506ekSy54Ac8cBM/a2uVsW/WypJ6tKzj376y3/WD6/5kSq++ES7/1DgqtsmvYMk6f9893cdev//p9KPPrCPbg0Ll6RjBz9yHffLPe/rk6K3I/WaXyr3qaF7brGeK190Q+lGLZwRnUuz66KDmn7zYa2acFxjHfurMp5PSdLY9XpsznClRzYYxxy7Xo/N6afSpQN0cmJQd4ZPv3q3Vk2YrJORzynO+Sd4tmcWudrBPH8AAAAAABAfPSCRBDugKd2ohdl++7VNHWeuV1dntbHr9ZgdWoXrvVuapTuLizTIWU9S+rC5mj9Reteut2pPSJkTD2rcWKPiRSr96AO9vfhfFHj+EVWdPK7aqrMqWrlIgecfUeD5R7Tt5eci4ePw+2dowP93osr+8qdI+YWvz2j4Aw8r67Yx5q4lR/goSR/+/tVI+NilZx+N+b//VX+rq43s61TZZ+r/i/8Vs6/0rj3U92c52v3mawo8/4gqvvhEvX7ys5h6LaHB+5TkPbfCR2nv0vDz49eq0+P04ExHJUlqP1zTi++TNtn1NpUqfdhcV72uiw5q/pzhqgrXiRzTfH58GjInqNtPh89to8rbD9f0Ais4tiT3bHdddFDzJ3Z2nP9GlWfdp/mufQEAAAAAgHgIINGwsT2ULqn8gLO31xy9YfQkGzRxuNKrd+uPjt5q+2dsVLmydPui6Y6adk80R4+1k9sPq0o+dXR0MGtOXXr2UaeMG1XxxSeunoeH339H/+fv/68yBtzmqi+7h+PgOx+QJFcvSUnq9ZNRkv35sMPFW1R3vjpmX//nu7/r0z8VRj5fGfxCktTGF+3f17CfacGbhSosTPB6c4F+Zn4kGQ3cp2TvebdOPqn6sPY7ehWefHZA3B6vrh6WK9/S3mopc2A46FuqscN8qtqzxPVZ65g+DZloBIKlGx29J+focKmkTj2i4WJSz3b4mK86ekXO0RubSqWscU0emgMAAAAAcLkhgETDio6rSlLmxGBsj7WIpeqXJVV99idjeGuZzlRL6Z16ubbq9HF3vaLJeiXbHNrbfLr0+kf98Jof6cLZStf2U0eP6MLXZ3T1tW1cq2f/8If/H414YKau/lGbmPDR16mb2ne+QRe+PuPaHjpdob/V1cbsq+58tSqP/nfkfeP8SQseyFFOToLXAwv0J/Mjyaj3PiV/zytOh6zejZuNXrMxSnXY9Qys0snTjtBw5q3KlFT1lTEkO164GBMsxpHMsz3zVmUqpNLtxjFLK1s0NAcAAAAA4FJBAIkkzNEb2UusnmgTg5pfHNR8c7ir3ZMsfdhcuzz8mqsh7R31WrH/893fVRuqMjdLkq7+URv9qF20R2Lbjl3VJr2D/vZNrb457/7Mj9ql6+oftVF61x7KfW6F65XetYer7iUthXt+8tkBWrip1B5ibddr9PDlkM6Umtts7TsrGu0mo+Fnu+sNnSPDuV3X6ZqDEgAAAAAAJEIAiSSt0rYJ9vx3S3erSj4NmeMIauyeZFWOuQBdr0t8sQ4zaKw6eVwH/59NurZde414YKarR+M356v0t29qVXXyeGT+R+fLOe9k0/FoCHZ9Ur3nK8dGyt4tleTFHIrVlUq9Zet/tk9+VWkvTBPnGluw1y4AAAAAAJcKAkgYpmvQzY6ViuMpmqxX7KAmOvw0dthtkxg9T+sCAQUC+cozy1L0TejrmJ6MYafK/lv/5+//rzr7e7u2d+nZR22v66jqyq9iQsPSjz5Q2V/+pDbpHTT0nujZJRpq7S2PhmDXq/H3fP8MO4Q0hkzHMoZ5r9yncvmUNdqYU9Ss11jxnm2GWgMAAAAAcFEIIK9odoB088/sEGi6xm2OHT6rmUV6zFhEpuvofkp3DYVdpW1FpVLWfTF1L4r/OqVZ/0PZz4w0S1Ny4WylfnjNjyILxDidOnpEp499qS69bnatPt3vF3dLksr+ssNRO+qTordV8cUnSu/aQ8PvnxHZfuzgR7q2XXtXMHn5SfaeT9e4zeZK6FZgGDPHpGFQwX3KVKk+dCwkU7QnpPRhj7qGScfWS1Iyz3bRZH1YKk9WaQcAAAAA4EpwVUZGxvfmxkT8fr8qKipUV1dnFrWo1npeauXnZlmqB4vvU6b9rmrPEr3y1b2aP1F617H6cddFBzV9mLNnZKmrPGLsej0WMzdeSHuXDrBXELaPV7oxdohuXCM17/VZGuyTavYu15QXdpoVUjL8/hnq1vuWyPvaqrPa9ebKSO/Ghsp9nbppxAMz9be6WhX/Ljp8OPuhOUrv2kNVJ49Htnfp2Uc//eU/64fX/ChST5K+3PN+ZKXt7Ifm6Opr27iOkXXbGPX/xf9S2V/+5FqRu3mlcJ8avOeKec4UftYcgWHsM2avwm2stq54dc169jlVOVfUljSoIKg7O7nrxuwrwbMdWy/OcQEAAAAAQAwCSI+15nO7VIx8Zp1mDUlTcGuuZq8xS3G5sAK+yrjhHwAAAAAAuHQxBBut2+h5mj4kTQpuIXwEAAAAAAC4BBFAopUaqXmvBxR4fLC0d7lyZ681KwAAAAAAAOASQACJVmqnFv8qV7m5uRc97yMAAAAAAABaDgEkgFbh5LMDtJD5HwEAAAAAuOwQQAIAAAAAAADwDAEkAAAAAAAAAM8QQHosGAyqrq7O3AwAAAAAAABcEQggAQAAAAAAAHiGABIAAAAAAACAZwggAQAAAAAAAHjmqoyMjO/NjYn4/X5VVFS0ujkNW+t5pWpyzlrldI++L9+Rp7lHnDUAAAAAAACASws9IFuR9YV5mlSQp0mbD6rWLAQAAAAAAAAuQQSQAAAAAAAAADxDAAkAAAAAAADAM8wB2WyG6alJD2tgu/D7Wh3YPFPLTrtrSZI6PanVEwaosp45IM35ImsPv6Zpu/Y4q0i6X0tmjFNm5P0xFRY8p/WuOpaRz6zTrCFpCm7N1ew1ZikAAAAAAADQOPSAbBb3a8mMhzWweps1x2NBnlYclgZOWKmnOpl1G2aFj8dUaO9rUkGePkif4t5Xpye1esY4dT78WqRO4YkM5cx4XpMd1SwjNap3miTJ3y/PLAQAAAAAAAAajQCyGYwYMVqZOqbCwj9Etu3atU4HzrfRwJ/c76rbsGG6ob2kE5+5ejKuL3T3ppz8kwFqc/6gXnf0ilxfuE3lytCYEcOiFSVJO7XjixpJUvDwWqMMAAAAAAAAaDwCSM8N04iMNjGBobRHX1VLav9jjXBtb4j9ue7jtCEnUXh5v/p2l2qP7dEu1/ZjqjovtUnPcG2VpJ0vTFFuLsOvAQAAAAAA0LSYA9Jz5jyMhvMHtWLDS+6gMIk5IEeMWKlH+rWJvHfNAWl/PlpqOLFNkxy9MQEAAAAAAACvEEB6zl58pjqF0C+JADIqurhNNIS0Qs/OcRemAQAAAAAAAJoPQ7A919ih1snao2UbXtMB19DqxEOtExn5zDoFAgHlTzVLAAAAAAAAgMYjgGwG6/9yULXtBuiRhHM2puJ+LZn0pDvM7DRMvdtJtVXH7A17tGz/Man7OK2OWXAmHlbBBgAAAAAAgDcYgt1s4s8FWR4ZZh2/3HJMhQXPRRexiTPHY3Q/DnHqSbU6sNm9YrbsHpCzhqQpuJWFaAAAAAAAANB0CCABAAAAAAAAeIYh2AAAAAAAAAA8QwAJAAAAAAAAwDMEkAAAAAAAAAA8QwAJAAAAAAAAwDMEkAAAAAAAAAA8QwAJAAAAAAAAwDMEkB7z+/269tprzc0AAAAAAADAFYEAEgAAAAAAAIBnCCABAAAAAAAAeIYAEgAAAAAAAIBnCCABAAAAAAAAeIYAEk2r05NaPWOtlvQxCwAAAAAAAHAlIoAEJKnb8+o7f5tum79JXbo5C8aoy2PbdNvkac6NAAAAAAAASBIBJOBwoUrK/DlhIwAAAAAAQFO5KiMj43tzYyJ+v18VFRWqq6szi1pUaz0vtfJzk4bpqUkPa2D1Nk36y4+1esIAtbFLag+/pmm79sTWbRd+X6sDm2dq2Wnr3eSctcrp7qhuKN+Rp7lH7CHaEwaoMvzeNjlnrXLaH9SKDS9plyT1eV4bRnXSgc0z9dVPnPs+psKC57ReknS/lswYJ+3IU+H1K/VIv/DZO+skqdvz6jttqPTxx6oZer3OLXxUIcnuAfmUMs8F9NH61ZHq19yxSQOHpkU/fzRO+Y2f6cArf1W3+bnqYm+/8PEyffreB5F6lmnKdNSRynQkcnwAAAAAAIBLGz0gIXUfpw0TbtQXm/M0qSBPk3YcU5t+DzvmcbxfS2bYQWWBVWfFYWnghJV6qpNVY32h/dnNB1VrB47hupMK3GFj8tpo4IS1ylH4uK/pwPkM5Ux6UiMctTJHrdUj6dvrrZO8D3TuaC/1uGOMWWCzhmQPHHpSRxaO00cLx+mjhQGd6pmr2x57Xtc4q6YP1cD5d+ib1Xa9wjK1HfqUMgc76nR7Xn3n5yrt42X2vsbpyNFe6jP/Vfkc1QAAAAAAAC5VBJCwewxGezPqyGcql9T5+mGSpBEjRitTx1RY+IfIJ3btWqcD59to4E/uj2zzQu3h1zQpctw92nWsVmqXrkxnpfMHtaKhOikI/dfH0o1j3GFi2OBcZabXqHy1s4fiapUXlknpQ9XNGS5KOlU4Uacq7DclB3RKUlrnaLjp+/lQta36WKWOXpGh9QGdUn0hKAAAAAAAwKWDABLS+SqVuzb8QXML8uwh2MM0IqONdOIzY0jzHn1VLan9jxvZ0zA5leecw8ClXbtmapIxvLr22B5r2HZTqXhOx8/FhomS5OvTS9JJfRMOFcPihItSmc6VON7GmKbre0oXvvxA37q2l+mbKqlth16urQAAAAAAAJciAkg0IEPp7exh2jPWul71zfl4qQsdKVOXEcaQ6rCqc0ZgGJVSaNjtH5Qmqe3Qp3Tb/G2O11PKTDcrAwAAAAAAXJoIINGAY6o6L+lEdP5H1yu8aMzlpiSgct2s9G5mQf0unC0zNyVW8VfV2AvThOd/dL0ci9oAAAAAAABcqggg0YAUh1qf/h9VOuaPTM796tvqelN+oKovpY4D3D0aQ0fKpPQ4weTggeqiGp05aK5wXR+GWgMAAAAAgMsfASQatP4vB1XbboAeyUlmwRmrx2SbfuM02SxSNKDM7Bne1/1aMmNcoxeM8dK3772nmqF3qKNzY0lA5VVpypzoHJ49TZk5vaSj70UXnEnKBzq1q0zqmau+LDgDAAAAAAAuUwSQaNjplzStYJvK48wDuaSPWXmPlm3YpnJlKCduvT9o7uaDqo3sa5y0I08rDte6d9MqrNa5o2lq65qP8QOdemWZyjVUAyNzNuYq7eNljRsyXfKoPlr9sRQzD+QmdTF7WQIAAAAAAFyCrsrIyPje3JiI3+9XRUWF6urqzKIW1VrPS6383AAAAAAAAACv0QMSAAAAAAAAgGcIIAEAAAAAAAB4hgASAAAAAAAAgGcIIAEAAAAAAAB4hgASAAAAAAAAgGcIIAEAAAAAAAB4hgDSY8FgUHV1deZmAAAAAAAA4IpAAAkAAAAAAADAMwSQAAAAAAAAADxDAAkAAAAAAADAMwSQAAAAAAAAADxDAAkAAAAAAADAMwSQAAAAAAAAADxDAAkAAAAAAADAMwSQAAAAAAAAADxDAAkAAAAAAADAMwSQAAAAAAAAADxDAAkAAAAAAADAMwSQAAAAAAAAADxDAAkAAAAAAADAMwSQAAAAAAAAADxDAAkAAAAAAADAMwSQAAAAAAAAADxDAAkAAAAAAADAMwSQAAAAAAAAADxDAAkAAAAAAADAMwSQAAAAAAAAADxDAAkAAAAAAADAMwSQAAAAAAAAADxDAAkAAAAAAADAMwSQAAAAAAAAADxDAAkAAAAAAADAMwSQAAAAAAAAADxzVUZGxvfmxkT8fr8qKipUV1dnFrWo1npeMTo9qdUTBqiNjqmw4DmtN8sdJuesVU53x4YT2zSp8A+ODUjeSM17fZYG+8Lva1Ty8hQt3u6u5Y1/1suFE9Qr9LF+/cAC/cks9kQP/ebJ29VTx/XOSx9qjVncaD49Oy1Ht379oe4JHDcLkzI19wHdnSHV7C/U//4gZBanpv/tentsDyn0iX67+lPtMMsRq0tf/X7yLUqjzQAAAAAAzYgekK2QFT7W6sDmPE0qsF+Ejxdhpxb/Kle5ubnK3Ro0C5vHmePNFD4idT30mycf0O/HRBJq73Xpq98/+YB+098sAAAAAADg8kMA2ZxOv6RpBXmaVG/vx/vVt7ukE9u17LRZBiSjWl+HJIW+1lGzKMKnZ6c9oLeffEBv5/YwCz2zJvCm7nnpzYvv/ShJhz7UPS+9qXvoyZe8UyGdkqSvQ7QZAAAAAKDZEEC2UrVVx8xNuCSV6VwTZG1NrksP/aMvpH37j0sZGZpqlgMAAAAAADQR5oBsDpG5H23nD2rFhpe0y13Ldr+WzBinzodf07Rde8zCpA0qCOrOTru1asJknQxvHLtej80ZrqpNfr2xMlq366KDmj7MMfy0dKMWzpgTfS9Jmq5xm+dqSPvw+5D2Lh2gbUXRGtZ+KvVu9lvq6qxbbZxHMqbmK3BXZ5W8PEUn7gpovD9cENSW3Nla66g68pl1mjUkLbohuEW5s501HBz7jT8HZJ7yA+MVOVyc46XmZ1rw5r9p6JnNynnsP8zCFjNqTI6e6FWu364O6e4nb5eK3tS/HjJrRedsdDlmzwHZ/3a9PVZ6Z/3X+sXkW5Sm43rnpU/UfVqObvU56sXZz9E4xzPPqae9PWa+yPDcj2GO45jM4zr3NWpMjp4YlHjYdbSuY+7LD33WHIoxdcLsuo7dOuuY52My2yXmHM1r7X+73h7bXvvWF+rE7c59X9z8n3n5AY33N+dcqQAAAACAyxk9IJtDZOh1ngpPmIWSNExPTVqrDTPWasOMccqU1Kbfw/b7tdowY6We6mR+pmlYoaG0d6lfC7Ot16rT4/TgTGetpXqweK6GnN4YrbNHGjLnoMaNddaTpCzdWTxXWZ8tsetuVHn74ZpesNSsmIQ0DX48oPHaYs3fmLtcJSG/xr8+TyMle3GZgGYNqdSWXHuOx9wtCvrHKxCpk4LR87QuMF6d9y6395WrLUG/xgfylWfWvaT5NKqXTzVlx7VDx3XomNSztzkM2xqiffd1n+i3L1nDpu95qVD7Ynpzttcv7rpO77/0oY6qh34xbaT+saxQv90fcvWsDA+9vmf9J6ox9uDiu0VPPHmLvl5v1y86rrRBOe65EsNDr+OeT5QV9h3XO5Hzf1PvXz9Sz3axynd8UGhv/1BH7aAwXC/uMPGM2/X25Ez9dz3nNjV3pLQ1uo9wnfD8kmY7HC1y1H3JGT5a7f/EoGrH+X+ooxm36+1pfTUqekhJPt06+QHdLWe79NDdMfWSlaf+fklK003DU/4WAQAAAAAQgwCyVdijZRvCC85sU7mk2sOvRRegKZjp2XyQ3Tr5pOrD2u/oyXjy2QFGD8lxylSp3nX0ijz57KvaW+3TkImxwWL5Jr9eeXaV/W6ODpdK6tRDXY16yajZu9zRm3GndnxRI/mus3rHTb1bg301KnnZ2UNxrWZvDUq+wbo7xXHFeXcNVlqoRKte2BnZtnb2FgXlV/YzXgQx/6yXCwtVmOj1yj+bH2ga9vDr//7MCtjWfBFnGHb/W3SrL6R9WxuaX9EnlX0S6WmXpnL9LhLctVd3O+xLxdGiQi06Zb85dExHJXXpmLinYnw+db9O0rFjrl6AawKOfafsuN55qf5zi9n/oU+0LySl9eqRWhgYbv/1zl6Mx/WvRccl3y2621i8pmZ/oaNnZEg7ykLR70nK1upQUJJq9Pnu6HcBAAAAAIDGIoC8wlWcDknth2v65vUJAsLpGnSzTyrdp/2u7at08nS8YDGkM6WuDdo/w6+FqQ7BtlVWuAOQnS9MUa49JDqvn19SpU6YQ0TXHFJQUuduqYSGVq+vmi92yH3Eo/o6JKV1aFyUU7//0OM5OcpJ9PJoyPaomzOVFirXjnBQVvm1atRD/Z09+Xr3kJx1EooGmVJTLG5yXIfiDAVPXUgnvrZ7LTbVIjsxi/oc17/G6ynpYp9Hiqb27iGpWifM9o8TekrSqTPuc7B6dzZ+CPba2bnKzWX4NQAAAACgaRBAXuFOPjtACzeVWiFkcVDzi4Oa7xou3Usd20vKus8qc7zuzHJUaykxoVBUSqHh6O7qLCltyCwFAgHHa5YGp9r5Lo6a02XmphZiDb92BYWnjuu/Q1LP2xo7ZLd1WhN40x4Kfru12veTD0SGQnumS1/93j5W+FXfnI/1qu/Zvj4yGSsAAAAAAK0eASSklWMjczu+W2qHjZEQskxnqu2Faew6rlcjezY2h5qzieKbOLafUGV4yHdkPknHK9GiNhelBYZgd+mhf/TZPQMjIZm9aIovU6MaMWS6NYvO82jNF+mcj7HJdelrLVBzLDwXo/V6x4MF7WvOVZubAAAAAABotQggryBdR/dTurnRsH+GHUJGhlYnGmp9sawFZAKBgPJTnKsxbO3hoOS7SaNGGwVT+8uf8vx1Xg21/pMWPJCje5//k1nQIkOwR92caa9W7V78xFoUxad/vNkK546eizOHYP9bXKs7X1pCWrTaDiFjeg9WW/c+ZntqrLYNad+H8VfkdjkV0qk4Q6nD1nxxPH4g3D9DPc1h7x7Iyw8oEFineeZ3CwAAAACARiCAvExZczv20yB7lWprtWsz7JiucZuLNMi1ban6ZUk6fTzSs3H/pt2qavRK1gmMHqWb7NPx92vkGtNr3lFJKE2DpzpXvM5T/l1+KVic4vx1O7V4e1Dyj9e6plxw5ucL9FZhoQrfXKCfmWXNzh5+bSzMIkWHYYcXS9nxWblq1EO/CPcW7NJXvx/bXjXe5l5NqId+Y64Cbff+jO09GJ4v8pbICtmNseNMteQIcSMriccdgm2HnoNucS/+E3boE+0L+XTrXc5r6KHfjO0hHfvkIhbSSQarYAMAAAAAmtZVGRkZ35sbE/H7/aqoqFBdXZ1Z1KJa63mFjRixUo/0a2NuluzVrqft2uPYcr+WzBinzjHbUzeowDFPY/VurZpwXGOL75M2+R2rXC/Vg8X3KTP6MVXtWeJYxTostp7sFa/D+7JCTmnv0gHa5lhVO76Rmve6Nb9icGuuZpuJ2NR8Be7yxy9zie4nrGbvck1xrGSt0fO07vHBSotuiQqVaPmvFkcXnolbt0YlLzdyQY6fL9Bb/zpUaaGP9esHFiheP8hmYw8RPlX0pv41zkIvo8bk6IlB0r719krO/W/X22PDC7gc1zsvfSjlPqC79aG14nL/2/X22PZ2/R76zZO3q+cxq8y9L7vMOJ7F2u+ayPGrI+8t1me77C+MLPYyNTdRqCcddV5beEh0onIXn56dZg9Ft9VEjmmX6RP9dnX9q4Jb1xDdydGiN3Wo9wO6+7p4n41tF/f51XdONvseJb6uxsnLD2i8/yKeewAAAAAAHAggAQAAAAAAAHiGIdgAAAAAAAAAPEMACQAAAAAAAMAzBJAAAAAAAAAAPEMACQAAAAAAAMAzBJAAAAAAAAAAPEMACQAAAAAAAMAzBJAeu+eee9SxY0dzMwAAAAAAAHBFIIAEAAAAAAAA4BkCSAAAAAAAAACeIYAEAAAAAAAA4BkCSDS9Ps9rw4y12jDpSY0wy+C90fO0LhBQIJCvPLMMFyUvP6BAIKB1z4w0izzTEsdsdp49syM17/WAAvn17fU7bXjrmD5Z8J17c//b9faTD+jt3B6SfHp22gN6+8kH9Jv+7mqXtC599fsWu6YWbtMWvfbLSQ/95skH9PaTt2uqpFFjchzfG4eHqlX+XrVedG8FAADAFYQAErhE5OUHFHh9ni7jGApodi+uOKHhvnRtW/ADs8ghpBNfW//360qzrBUjZEMz23GmWpJUc876vxG/a6vdoSrd91aNprtLAAAAcIUggETTO/KcJhXkadKGl7TLLIP3ti/WlNxc5ebO1lqzrBUL9/Rzv9Zp3mizZstZOztXubm5mvLCTrPIM811zBZt/xZ6ZqcvOK37erXR7l+319NmYeXXqokXpDhMzX1Ab0/rq1FmQf/b9faTOXq2i1mAqJAWrX5T97z0pv71kFmGS0e1vg5JCn2to2aRyw806d6uKvWd0bwV35qFAAAAuAIQQAJoPUIlWp5rBW65ubnaEkzT4Mcv8+HHrYnR/sv36jJu/291309rFfrz9ZpUbJbFOnouJKlaJ06ZJQAi7OD+1JmQWSLpGv1ic7rU66Tef8gsAwAAwOXuqoyMjO/NjYn4/X5VVFSorq7OLGpRrfW8JOmee+7Rzp07debMGbOoFRimpyY9rIHV2zTpLz/W6gkD1MYuqT38mqbt2hOt2ulJV7lUqwObZ2rZ6WgV9XleG0ZlRN+f2KZJhX9wVIianLNWOd2j72OOJ0XPr134fZxjpmDkM+s0a0ha5H3N3uXRXmWj52nd44OVpqC2OHthJdqukZr3+iwN9oXf16jk5SlavD1SIak6efkBjdcW5W7tbh/HEtyaq9lrnMdPIFSi5b9arJ2KU9dZZjDbQsEtyp3t6Hs2ep7WPX6TPn95ik7cFdB4v7093j7N48a0VXLy8gMa38Hcf7gNzX3mKT8wXuHTij2mVd5573JNqbhbgbscNV1te5M+f7lY1z0+Xn77/kSu13GtefmONnDuIw6zrus5C0uizcz9JD6m2RaNeM4Stn/4PMx9msc0z98q19ZcvdPN+awl+n7Z4j1fEQ0d02K2mxTn+bZ7P8776dXaeEec3o9Jmpr7gO6+7hP9dvWn2uEs6H+73h7bXvvWF2rRKbuePtQ9H/r0+8m3RK73aFFs77+puQ/obsefUR37UPcEjkfejhqToycGVeudlz5U9HHood88ebu67C/U//4gFLsPQ+S4Xfrq95Nv0amiN3Wot+MzoTjXZB+jZ+R9KHJ9Fp+enZajW7+Ovc4a+7xc9SJ/F839WBJfw3Hj2sPt7Zhz0Ggzi3n+lnj3oGHmNZjX6JDUuZn7i98m1r2PHjTuMe17Gv3bEqe94uwr/nl54TtteOuEhqujFt+bplVmMQAAAC5b9ICE1H2cNky4UV9szrOGTu84pjb9HtaSPuEK92vJWOn1Aru8IE+FJ9po4ISVeqqTYz/hodcFr+nAecd2gxU+HlOhY38fpE9x70v3a8kMOxy166w4rNhjJikvP6BZQyq1Jdy76+USacisaM+u7Ys1ZWtQkl/Zkd5eIzVvapzwcfQ8rQvM0mA5e4utku5yzs+Yp/zALA0+u8XoTRZnSKt/vAKP36TPXw7Xq5H/LrteZGhqrrYEY3uo5TrDGrNuXNaiHK62yN2ioH98nPklrd6H2WeXR+v5BmuWc0EPO0DS3nCdXOW+/LWy6130IxU7deKssWn0PK2zw8XwMbcE/RofZwGTtCGzFLhLkWt1ta3tpqnZ+vrl5SoJpemmqevsoC4o+W7SKLteeBh07sslqol+NIYVfgUdbZur4g7T3fc8yTZL6phT8xUw2iLcazF/qlHXP16Bx69TcT1tEc/arSWqUZpuGm4/HSm0v/+ugGZ1KLbrLVdJyK/xzucsqWc22WNaz/b4Ds7vyHKVxMmEpO805uZaqezaRoePKcu4XW9Pvk7vv2QNO/7t/pB6jnUP0x41Jkf9v7DK73npTd2z/hPVZNweu6BHA9YEHJ+3Q7bIPuMMee451g5IX3pT97z0oY76btFDYxzhVP/b9bYdcIb38dv90q2T48wvmXG73p6cqf9ebx+v6LjSBuU46kWHXt9TlDjwilxD5PWhjko6WuQO00aNybHDXkc9s8269NXvjfMPt01jTM0dKW11nJt9jb93tll4iP7YHu72/yLD3WZd+ur3T+boVn2i30audad0u3to/9TcB+zgOXr+Mo9ph49yXefX+oXx/Fjhoxxt9qZ+e+6W2HvpiR/og8/aSL5ajck2ywAAAHA5I4CEpGMqLHD0LDzymcoldb5+mL3hD5przOe4/i8HVas26t07XCdZw3RDe0knPtN6x9b1he6ejSNGjFamjqnQ0YNy1651OnC+jQb+5P5oxWSMnqdsvxTc6ggRty/Wqr01ShtydzTAWDNby/fWKG2IFRiNfGa6BvtqVPKy0TPtrsFKi+mptVOLZ0ffj3wmW34FtcXR62rnC6tUEkrT4LvMmMbdu2znC8UKOgOfpjT17jjXtFaztwYl32DdbYZWwS2O3ntrdSgoqUP3aIDkv05pqtHnux191rYv1hSjt1njjVT3Du75xcLtv8rRq3Dt7C0KusJjW6hEyx3h8c7dn6tGabou0kMuTWlniyNtn+ardNwzZ71k2OcaPOR6XtbONnrGNlmbjdS80X7jHoWfM8k/2gyU3fc9ti3ql9bB6juWcvtHrmundnxRI/mui+mF1pCkjhl+ttck6kHpkF2nfj6p9OA1ZomHQtq3Phqe7fisXDXy6brO0Ro7Pih0h4OnPtX7xyRlZMj8ajYpV++34zp0TErr1cMOwHx69rYe0rEPXb3tdnywU/tCUs/bzDkwj+udlxy99w4d01FJXTq6w7lUTc29XT2PfWiEpz109yCfavbvdPQWPK5/LTouZdwSCXen3n6L0kKf6Hdmb8FGWhMweice+kT7Qs42s8LAX2TE6WF5yH0N4XNz9zgNaVHA8T6yL0f4eupT/W5/SGmDbok+G52vU5pC+u/PHNd56lP9b6NnY8/rfVKoXDsc1xDz7Hlo1c42CqlWnXuZJQAAALicEUBCOl+lcteGP2huQV6cIdEOp/9HjVsMdo++qrZ7XeYkChKHaURGm5iQMvLZ9j/WCNf2+o0cfpPSFNQhYwzazopKSZ3V3dEDLBISPh7QrCFpqtm7yhhWnaf+fqnmix31hBwjNap3WkwQFenN5wzwJCn0uXa4jnFUX4eigU9Tyuvnl1SpE67jSVpzSEFJnbu5A6Tg4QZCseDXqlFa/J6dTSAvf5YRKiVq/wRtdvaEu57d4845lNl1jQ0upFAf+/76xytQXw/Qpmqz0aN0k0+qOWuecYKgL+Y5S9L2E47vemrtH1uvMZI7Zl4/f/LX2Ovv8qmNKsvMAg8ZgU+yrLknvXX0i8Q9EdWlh/7RF28xnpB2lIXiPGfmd+i4/vWlN2OHCqei/+26OyOkfR8a59k/Qz3NwE3heQjD4W4P9c+QasqOG0PKm1J4lfSoUTdnKk3HdajeUC+5c0u0L2vF6fbqHu5Fa1/3rZPrXwDp6LmQ5LtFT8RbQKk5FP9QlZI6//g7swQAAACXMQJIJGXEiJXaMGOt4zVOmWalJK0vzNOKw7VWCGnvb/UIZ0/KDKW3s0NK1zHd80Ymq2eHNEl+jTdX+HXMCxi1U4vX2ENejR5XkqTR3dVZUmVFfbFKT13ns4Mo45gxc9O1hJiAIMoMkBq0fbGm5G5R0B6ubV1n7FDcpPkGa5azvTqUaHmuoweh3f5pQ2YZbeuca7PlrJ1tDW123vuYBVyauM0SP4vucL3R7DZ3/u9mbf+WOGaL6aHfPPmA3na8XPP0taD4i4rIHYB5ood+M7aH0cvRMqpje0k+3TrZ3WZvu+ZA9ECXvvq9cZ/M+SqtXoaJ/9ZKkrr41KXetrX0vN5n9fY0jumaW1J2b8eXPtRRV5vcHtN7dscHhdbwd98teiK8rxSH+QMAAACpIoBEg0aMWKlH+rVR+Y7onI2TCrYZvSZTs2vXTNd8kW36PewIIY+p6ry9iI1jnsjIyxgO3pCjZ2vsBSui8/JFX+bCMXnKf3yw0oLB2PkOFe0NZvYUdLN6ZikYnf/R9Uq4yEbLi+1Nl4y1mh2+NnsezXjzASalvjkuFW3/Guf8ic5XysOYm97OF6bY52PNP5jmnGs0ognbLKE4PV0bw3+d0sI9RVui/VvimC3CXiQl5JwL0JorsnXzdmXwqblWm8QbPm31AAy55jJ0vjwZUhxe5OVYeM5M6/XOMXc1q5dhA9MNnArpVBLD061esMej8z+6XuZiNVaP03teCs+x2UN3xwkhdSh6/u8cs+fuJIQEAACAhwgg0QB7OPT5gyo8YpY1hT1atsEOIdPDXUgaN9Q6kXhDrRPJyx9vz904W+/YPdnci3nYwz57jzLm13NKMNQ6WfbQWnP489GzcYbVpmjtYffiKhFT+8tvzkvYGGtm24Fa/PbOy0/QKzBp8Yf6tk47tfhXdghZ3/k20GYJbd+hz0OSv58ZWyaaAqAx7HkmI1MYtET7J3fMuN+PqXfH7yVZ9sOmm4POPGakZ16KwVz/DPWUdPQjc/XpJNifjZFkwFWvU8f13yGpZ28znPJpVC+fdOxYzArLTSY89HprgjZxDbVOpNp6fq5v79o69fbG9ZK0hkPHGQ5usMLRHupf78Iu9rk5546MI2aodbIOfWiHkPV/dk3ADiGv88WeR6S3Z5wQs7Gy/26NJPifH5glAAAAuIwRQKIBdhjY7kaNCK8+3elJrW70EOz7tWTSk+5gsdMw9W4n1VZFu5Cs/8tB1bYboEcSzhOZgjXv2PM61t/DbOQz6zTesVhNZDGPu5yf26nF260FW9y9I0dqXn500Y+1W0tUE1MnGfbK26ESvRN3zso4C32kItwWU40Vu+/yS8HoYizJGvnMupjVlhPOM2nP5Sc1FODWx25///iLCDG9kqd8cyXxOPM0ptZm9Ym2hXN/kcWTtl5s/DhS8163hjlHF3BqifZP7pjWojqO78foeVp3V2fVxHack4qv1eGQlDXgW7MkJWs+/EQ16qFfGCsRPzTIp5r9n6QWzFV+rRq5gz5r5WN3eBgTbPW/PXYoboQdcDkXKklZSIs+Oi5l3O5aJXnUmJG61ddwENd4iYdeR9iL9JiribvZc1U6FqUZNSZHd18XatQq2Fb7+/SPN4fvi0/PTosdgh1emCbm3Po729FuW98tesLV+9CnZ3Md8zMe+kT7Qj7dOrn+EHDUGOdq45apvXsYYbhPz04z92PNRamvQzFBrxW42nXqDVOTN31kbfPPwQoAAIAWd1VGRsb35sZE/H6/KioqVFdXZxa1qNZ6XpJ0zz33aOfOnTpz5oxZ1AoM01OTHtZAHdSKeoc12/Xahd8fU2HBZ+o7Y5w6H34tsljN5JzEczSW78jT3HAPyk5PavWEAWqTqDzifi2JE3TGr9uwvPw4czAGt1hDOKfmW3NCmqtbj56ndY8PVpqC2uJYTTm6Pcy9krUlT/mB8Yo55NboIij1nlMcI59Zp1lDHP12HOcbU+ZQs3e5Y6XkaLAUvzx6fZWOc1X4fDu42yjmGsw2dAjXjTlegn0nFNP+Mu6B3fb1tKX7Gu02kX18+3mw7lX8+2hp6Llw3++whtsshWOGn91E5Yna1rjHMeekep7FONcZr/07G/fZekYrI+eX/DObzDHNtrDaQfkBjVfsdUxfcFrzfnq1Nt7RXk+7SlIUHpLr2GSufDw19wHdfZ2x0rH9uVPOukaYWLO/UL/TSD0xqFrvvBRdAXnUmBxHMHlc77z0ibpPy9E/lhXGWezFHtrt2BI5v3jnkOh8Y4LO465zsoKtHN0qc0VnQ5z2inCsBj01N06oZzPb190eNmNladf+jn2oewLSb568XTJXqU6CebyjRW/qUO84bWYeV+aK47aYNglp33pzaHWcfSl2fzF1YlbYVtxnomZ/vGfHeW7m/W6s77ThrRMafrqrMh9pzlXoAQAA0NIIID3WugNItLS4wRCAZvCt3n/vpLLKCEKAZvNQtcon/E27f91Jk4rNQgAAAFzOGIINALgCXaONf24j9Tqp9x8yywA0vW/1/oQqqcxH+AgAAHAFIoAEAFyRVi3opI1lUtaE09qQbZYCaDrfacNbJ5UV6qjF9DgGAAC4IhFAAgCuWE8/0l27Q7XqN/I7swhAU3nogob70rXx3jStMssAAABwRWAOSI8xByQAAAAAAACuZPSABAAAAAAA///27jXGyzK9A/DPaEILLk4sh2HDZhiBJriksK7U6tQ1lDWB0NgEjWzGbGkTDhJr0prUAwoxshjdGtfEEmThQ90GopbhQyMZEqVkNUgtrqJBSRR0WN0dGMhkGGU4RGM/zOk/rzPAKK8z6nUlb8L73Pe8M3z95X6eB6A0AkgAAAAAoDSD2oL9qyceT5KsuO/+YmlIVVdXp7W1NWfOnCmWAAAAAICSnTx5srjUwwQkAAAAAFCaLzUB+S//fFexNKSG8yU0AAAAAPBdZgISAAAAACiNABIAAAAAKI0AEgAAAAAojQASAAAAACiNABIAAAAAKI0AEgAAAAAojQASAAAAACiNABIAAAAAKI0AEgAAAAAojQASAAAAACiNABIAAAAAKI0AEgAAAAAojQASAAAAACiNABIAAAAAKI0AEgAAAAAojQASAAAAACiNABIAAAAAKI0AEgAAAAAojQASAAAAACjNRTU1NZ8XFwfyqyceT5KsuO/+YmlIVVdXp7W1NWfOnCmWAAAAAICSnTx5srjUwwQkAAAAAFCaQU1A1tbWprm5OadOnSqWhtRw/bsAAAAA4LvOBCQAAAAAUBoBJAAAAABQGgEkAAAAAFAaASRDbsmDR9P03IksKRYYWkuPp2n78TxaXAcAAAAYBAHkN9Rt85/O5vq7UlcsfNMsPZ77/6ojB14clQ3FGkPr15fmlfa2LBQOAwAAAF+BAJKhM+dE3lrQlvb/nZif/rpY/A6Y8FB+uLIx16zckvETKguzM/7Oxlxz2+LKxSFwcepvrc6B0cdy/9rTxSIAAADAeRFAMmQeXXAso9vH5MkHLy6WvlM+aUsm/c1Qh40DGZGfbq1KJh/Oi0uLNQAAAIBzu6impubz4uJAamtr09zcnFOnThVLQ2q4/l09pj2UzT8Zm71bl+cPf/l05k/sLhzKtvWrsukLvTW97x81pn7bM53/HntXNi6YkZG91b4+fjNrNz+eXV1btOdf1vue9P58y0uLsmJ/klybu+tvz8zjjan/v+/3+XbHvqeyeNfuJEld3brcUfNe1m7+Y+Yvm5dJ/fQM2pwTeetfj6Vla02/04/Vv3gzS65tyfNzbswbPauP5Oc7FqZq98N58oHeDdudvaN73nPg2axedm/ve5diX1u/32nJ83OeS/XWFbn6sq7C8VeyYcFtOdzTeYFMeCg/XDwr2bMnJ2ZdntbV/5T2pGsC8u5Mam3Iq5s29rSPvq0x067o/fFP9vwyb2/f2fM+Yu6WzJz6TvY++ftMWHlzxg/QlyS56t9zzfzJve/v9/1dfX2Wzc99lOsyJmtutVUeAAAAGBwTkF+bkZm54OnMT2Pq1y9K/fqnsvfjmsyvOMexrm5dV1C5qKunMU0T52Xz/J91Nhx9PIvXd9a2fdQVOHa9169flPrKsHEwJs7L5gVT8273733pUEZOvz0PT6vo+d6M3LHshrSdrWcQllzfkdGpyu/6CR8HozM0TF57pDar53Q+G47Oy8+X9+370foPusLFrr5HXkmuXZE7f1E83XBK/nbHikx55+Gu7z2bpsuuy5L1jxT6LqSdaX1/cn4wd3ax0GVxJq1szLTL92Tv6nl5dfW8vLpxTzLr7i9u066alZkr5+bkxq6+bQdz6ay7M+mq3pYRc7fkmvnVaeruWd2QI1fc/MVv9bg4O98ZmYzuyOw5xRoAAADA2Qkgv0Yd+57qnWbM7uw61JF8r6provBnmT99ZDr2/Sa/PNr9E89kxUuHkok35O6x3WtlOJRt65f3/t7976QpybjLr+3T1fTSuXvOz2eZfWVHcvBPck+xNEgTxo5Oju/LGy/0rh1+YEb+c11F042b8tdTkqYtFdOUL9yW/9rdnqprb82PKlqTpGlLbcVk5L3ZdyDJ2B+kutB3IbX/z55k6uyMKBaSjJg7N+NzMPufXJWekxibV+XAnhPJFXML50cmR7bdkiPNXS+v782RJKPGdYebizNh1qh8smdtb082pmnbwX6/1W3DyyPTno6MqxiaBAAAADgfAsivUUtr3+3Ku3YtT333FuxpV2ZSOvLuu4Utzcfa0pGRqRrTd/mC+rgtTX0WnsmK9YsK26sP5e39Fa9fyacZNzppP3pJsTBozUfbk8uuy5KtmwYMCKtvmJ6qHMi+ylAyyeE/tCQZl+obK1fbc+xA5XvyxrLarC5jC3al5lX5sHVWJlRMKnaanaqpo5K21t7wscvpN9/JJxmVP+0TGh5M6+uV7wVXzcz4nMixNwtbsptb+/lWhR2XpCXJuO9/VqwAAAAAnJUAcpiou3xszzbtzcsqnrOd+UgOPzAjq7cc6Awhd3yQlTs+yMrCdukJY0d3ba3uqnc/t0zp0zfU2vcfzPi6h/qdgkzr778QQHbrnW48txHjqpOMyqTFjblmZcWzeFYuLTYDAAAAXAACyGFiV+vRJB0V5z/2fTovjaFf627sOf/x+QNJpizsE0I2H21PcqD3/Mc+z4w0VmzfHlKvN6QpV6ZqoCnEAZxoKUwznsXplsNJTlSc/9j3aTrb9CQAAADAlyCAHC4GudW6qa3y/MjzU/fnU4fJNOUlaWlPRo/9tFg4u+U/Puf/941lXSFkxZmN/W+1/uoWPdaQhoaG/Oa+64ulL2ln2t5LxsyoPGhxZ9reO5FcMTMV93wnSUbMuDKXnmvLddG5tloPZM6nGZek5Y8XFysAAAAAZyWAHC6OPp6dHyWTfrLuvC6c6ZyYrMnsuv4vgekMKKemrutbdXXrcsf04RE/9tyqPPlUHi2WunSGhlMyvfs26+Uv9LNleknmbX2hcInMI5k+JcnRD3vPbFz3XF47PjpX31vs/Squz8Q/6/zXqKv/LouK5S/p9PbtOTFrbipz6NPbt+dIJmda5S3VEx7KlFmj8smehrRX9J5T86p8+H4yfv6WAS+c6U/nreUj03KwWAEAAAA4OwHkMLJp26Ks3ZcvngNZf1fqis37V2Xtvo6MnH57v327di3Pto96z5S8o+a9rF3fWLhsZuh03qrclh8vLVa6rLsxG3a3Z9It3ec1Js/PeTivHa9s2pDGBb/L9D5nOy5M1e6Hs3rZvYW+2jx/oJ9zIAvnRZ6/l7Pmtx8UFy+AjWl9f1Qureq71rS6IUeuuLnPmY0nts3L29vPf/t1t/ZN87J3T754DuSdA5w/2XNr+ejU7yjWAAAAAM7uopqams+LiwOpra1Nc3NzTp06VSwNqeH6d3F2j649lIWTq/Ls3MtyT7H4jbAojzXclNr21/PEP67Jy8Xyt8XS42lacCav/NtYASQAAAAwaCYgGTL3bB2T9rRl4dqB7nce3hY9dlNqcyKv/8e3OHzM6by4oM30IwAAAPClCSAZOjtG5S+2ViWTD+etBz8rVoevf3gsDQ0Nuan2g/z3zX+fNb8tNnxbfJbNzx3OlPYxWXNH/5uzAQAAAM7FFmyG3JIHj+b+K0dmza2jsqFYZOgsPZ6mBfkGb5EHAAAAhgMBJAAAAABQGluwAQAAAIDSDGoCEgAAAABgMExAAgAAAAClEUACAAAAAKURQAIAAAAApRFAAgAAAAClEUACAAAAAKURQAIAAAAApRFAAgAAAAClEUACAAAAAKURQAIAAAAApRFAAgAAAAClEUACAAAAAKURQAIAAAAApRFAAgAAAAClEUACAAAAAKURQAIAAAAApRFAAgAAAAClEUACAAAAAKURQAIAAAAApRFAAgAAAAClEUACAAAAAKURQAIAAAAApRFAAgAAAAClEUACAAAAAKX5f9OvB1UHW7NpAAAAAElFTkSuQmCC;" vertex="1" parent="1">
          <mxGeometry x="10" y="10" width="1312" height="500" as="geometry" />
        </mxCell>
        <mxCell id="UwAfvahjtKnLQgjsBoZI-1" value="" style="endArrow=classic;html=1;rounded=0;strokeColor=#ff0000;" edge="1" parent="1">
          <mxGeometry width="50" height="50" relative="1" as="geometry">
            <mxPoint x="640" y="80" as="sourcePoint" />
            <mxPoint x="470" y="109" as="targetPoint" />
          </mxGeometry>
        </mxCell>
        <mxCell id="UwAfvahjtKnLQgjsBoZI-2" value="&lt;font color=&quot;#ffffff&quot;&gt;Instance that decodes the access token that was provided&lt;/font&gt;" style="text;html=1;align=center;verticalAlign=middle;whiteSpace=wrap;rounded=0;fontSize=18;" vertex="1" parent="1">
          <mxGeometry x="640" y="50" width="238" height="94" as="geometry" />
        </mxCell>
        <mxCell id="UwAfvahjtKnLQgjsBoZI-3" value="" style="endArrow=classic;html=1;rounded=0;strokeColor=#ff0000;exitX=0;exitY=0.25;exitDx=0;exitDy=0;" edge="1" parent="1" source="UwAfvahjtKnLQgjsBoZI-4">
          <mxGeometry width="50" height="50" relative="1" as="geometry">
            <mxPoint x="764" y="130" as="sourcePoint" />
            <mxPoint x="620" y="189" as="targetPoint" />
          </mxGeometry>
        </mxCell>
        <mxCell id="UwAfvahjtKnLQgjsBoZI-4" value="&lt;font color=&quot;#ffffff&quot;&gt;The access token is automatically accessed from the header of the request and validated&lt;/font&gt;" style="text;html=1;align=center;verticalAlign=middle;whiteSpace=wrap;rounded=0;fontSize=18;" vertex="1" parent="1">
          <mxGeometry x="810" y="144" width="238" height="94" as="geometry" />
        </mxCell>
        <mxCell id="UwAfvahjtKnLQgjsBoZI-5" value="" style="endArrow=classic;html=1;rounded=0;strokeColor=#ff0000;exitX=0;exitY=0.5;exitDx=0;exitDy=0;" edge="1" parent="1" source="UwAfvahjtKnLQgjsBoZI-6">
          <mxGeometry width="50" height="50" relative="1" as="geometry">
            <mxPoint x="394" y="180" as="sourcePoint" />
            <mxPoint x="250" y="239" as="targetPoint" />
          </mxGeometry>
        </mxCell>
        <mxCell id="UwAfvahjtKnLQgjsBoZI-6" value="&lt;font color=&quot;#ffffff&quot;&gt;If authentication fails, the error is caught using a try-except block, and a None is returned. When None is returned from this function, an error is returned to the front end&lt;/font&gt;" style="text;html=1;align=center;verticalAlign=middle;whiteSpace=wrap;rounded=0;fontSize=18;" vertex="1" parent="1">
          <mxGeometry x="460" y="238" width="410" height="94" as="geometry" />
        </mxCell>
        <mxCell id="UwAfvahjtKnLQgjsBoZI-7" value="" style="endArrow=classic;html=1;rounded=0;strokeColor=#ff0000;exitX=0;exitY=0.75;exitDx=0;exitDy=0;" edge="1" parent="1" source="UwAfvahjtKnLQgjsBoZI-6">
          <mxGeometry width="50" height="50" relative="1" as="geometry">
            <mxPoint x="394" y="300" as="sourcePoint" />
            <mxPoint x="250" y="359" as="targetPoint" />
          </mxGeometry>
        </mxCell>
        <mxCell id="UwAfvahjtKnLQgjsBoZI-8" value="" style="labelPosition=right;align=left;strokeWidth=2;shape=mxgraph.mockup.markup.curlyBrace;html=1;shadow=0;dashed=0;strokeColor=#FF0000;direction=north;flipH=1;" vertex="1" parent="1">
          <mxGeometry x="720" y="380" width="20" height="70" as="geometry" />
        </mxCell>
        <mxCell id="UwAfvahjtKnLQgjsBoZI-9" value="&lt;font color=&quot;#ffffff&quot;&gt;Makes sure that the user accessing the view has the appropriate permission assigned by the role&lt;/font&gt;" style="text;html=1;align=center;verticalAlign=middle;whiteSpace=wrap;rounded=0;fontSize=18;" vertex="1" parent="1">
          <mxGeometry x="750" y="368" width="238" height="94" as="geometry" />
        </mxCell>
        <mxCell id="UwAfvahjtKnLQgjsBoZI-10" value="" style="endArrow=classic;html=1;rounded=0;strokeColor=#ff0000;" edge="1" parent="1" source="UwAfvahjtKnLQgjsBoZI-11">
          <mxGeometry width="50" height="50" relative="1" as="geometry">
            <mxPoint x="424" y="410" as="sourcePoint" />
            <mxPoint x="280" y="469" as="targetPoint" />
          </mxGeometry>
        </mxCell>
        <mxCell id="UwAfvahjtKnLQgjsBoZI-11" value="&lt;font color=&quot;#ffffff&quot;&gt;Returns the user, indicating authentication success&lt;/font&gt;" style="text;html=1;align=center;verticalAlign=middle;whiteSpace=wrap;rounded=0;fontSize=18;" vertex="1" parent="1">
          <mxGeometry x="420" y="450" width="230" height="60" as="geometry" />
        </mxCell>
      </root>
    </mxGraphModel>
  </diagram>
  <diagram id="hY8dQZnyDybkPqcuK9rc" name="Combined">
    <mxGraphModel dx="1500" dy="936" grid="1" gridSize="10" guides="1" tooltips="1" connect="1" arrows="1" fold="1" page="1" pageScale="1" pageWidth="850" pageHeight="1100" math="0" shadow="0">
      <root>
        <mxCell id="0" />
        <mxCell id="1" parent="0" />
        <mxCell id="CXdVZdrTn3hYtHLvASBv-1" value="" style="shape=image;verticalLabelPosition=bottom;labelBackgroundColor=default;verticalAlign=top;aspect=fixed;imageAspect=0;image=data:image/png,iVBORw0KGgoAAAANSUhEUgAABPQAAAILCAYAAABvrcKZAAAAAXNSR0IArs4c6QAAAARnQU1BAACxjwv8YQUAAAAJcEhZcwAAEnQAABJ0Ad5mH3gAAKtHSURBVHhe7P17eFTlvf//v/y2P7EEhsgxbGEnA1GLgJxrAYHalP5kR/FTQj3AV0J/G0QuD7VutiKIF5ccipRtqcqFFPal4AaLZehPNDv+dmQrUKFWjopSNSGhwE4IB5OBYPTbbn9/rLVm1rpnTTITJiQDz8d1zdXOuu9Z6557HWTeed/3fUV2dvY3AgAAAAAAAJAW/i9zAwAAAAAAAIDWi4AeAAAAAAAAkEYI6AEAAAAAAABpJGUBvcDkYt00L/rKGWzWgNePdc1rv1Hu49eZBXFcp87//hsNeO03uqbQLLsIRk9RblOO3dTPoWlS2t/2Nbf0x2ZBwtotta7ZxK/z1iDZe7MF2Od5wGu/UDuzrIW15DmfPv+kKl6r03Sz4CJrt/Q3GvDvU3SlWdBqtPB/TxpS+AsNeK2199/li2v7AlzMazuvTh++dVIb8swCAABwKUlZQC+8fpzeXzBO76/5QOfMQgBoNVpvwO7Kxxe0yiBdagPFzeS+Ws39/nmVvp2h1WZZirXaoEYrPk+tts/gwrMxea20z7ZmqLjsvEb8a62eMcsAAMAlI2UBvUuFk10SebWaHyCf6dQ//1wH7vy5jq81y1pC9K/g3ldr/Ad362P9OLmY/eU6XxeQcZesc49Z12zpM5+ZRUm7+H3Wim1fp9I7f64Dd/661f0BJZXnPGF5dfpwQo3Cf+qhH/3WLESs1vbfE5e1v9aBO3+uA/+8Tl+bZS3ByaoyXq0pgMOz0Y1r2/H4Az20M1yju1pB1jIAAGgeBPQirL+y9s6pUNmd1j8GD9z5cx1YK3VpRf9wb3UqiqJ9decKHT+bo96tNEOk9bhOgesCqtuzR6eUow4Xo69Gf1+Z7cM6vqdCyumbhj/6WqDPkDaemXBKgXBnPT//W2YRkAJhHX/B9e+CogplDHmglQT1eDYinm9p0qrOCgdO6aH5fzcLAQDAJeCK7Ozsb8yNvga/oJvye0ffHw7p/fVr3DUs3Z9W32nDVFc0ThV7zUJJukXdHnpMOZnRLec+WKqP33rHXSmyn2jgoUyHFjyosKeS1ObWTRo4LCO6IV67GtFuqRPMazzjxaobfV+3Z0U0G2X0FOU+eK1qXtihNg/mq7PCOv7CPNXfZn/m7B4d+ud1+lo/1jWv5es7e1bor7pXfYYE7L2ZbbhOnf/9AV3T3nlv7e/U9kgFyWmTinTgzSzlPjhETo+cKvL5K3XhLzQg3/UFKop04LH/ctewA5z56mxsje7Pbtdp87P255zvOXqKch8coi+Lfq7avq5+i/SDi103ejbN7+o6pvE9o+fAqpP52QpVdXpAvXPssqp8+zsb+zT7Iqb/HQ2cB3sfnuvA5ntdRa4R+7qQ0YdmeUN91uh5slz5+AL1ue5zHfrnKnV5LV/yuy58rm3JdX0U/kID8qWyF04r68EhylCFyu4s0lVOv7iuI3M/Znvk0ybnO/j1Y0yf+PaZdZ25j9Nu6W/Uu5PVb3p8ges+ixU9bqL3puVKY79m+xu/N/3PYZTruOY94ntNRDXWttjr2lvHPI8m93k16/qdc4v5fc37PJE+c8mr04f/ekrVm7PjZ+eZ/RZzzOg5d/eP1X9nrP6P2YfBdS4i191a6R8ba7/5DDKex4ncJ2bfm2Ke237PMT+NtE1+x3bXSaLPEjmWw7yuzbqJ9FnCCn+hAfkd4/+3yOc5FP86szTWfodZz7f9jT0bE7i2vzbbY4i51hK8thtrf+PnyXxWmNzP5OSu7cbapkaubfPzJs/+kri2zWOa7Wq8z2I9s+KI7uqdqY23dtDjZqGtcFlI44N12vvcFC3aZpYCAIDWKqEMvcDkYt2U31sniux58haM0/uHBjZp4YvA5AekTa79FJWp3bDH1PfWW6KV7GCePlgarbfmjHpOnubelR3MkyrWRPe3//StTWjXj9UhR1LFxzE/1r3sLL5Oe3TI+Uv9C3ukIQ/EDGPMLBylr15YoeNnA8osXGD9I7uoQmp/rQKjXRWvu9f6x5k7w80zzDc6fORAUYXrgz5y8jXgwU6qstt2aE9YnfMXqLPreFc+vsD+ceJkGxTpVE6+t/2jpyjX/gEQyUh4YY/qojUaUKGvzprbpM759g8N55jth+gfPdkNP9Y1hdJfXdmRZRUBXfOgt/2S8z2vVY3zHexsCU9W4HX3Kuv0Ch3aE1bGdfcqN18qu7NIpxRQ5nD7uKOnKLfvxz4ZhsawpdFTlPvaA7pGrvN+5yvSbfZ5Wluk42eljOu+bwzP9r+urhx+rTLOfq7wduncx/Ey5gK65sHfKOu0cw6sPuvTpPNkZ3B89id9rf9SbYXUua857NYakuu5tu9coeMx57Kjsgo7qerOIp1SjrL+/V5lfmb1s/t7OMMu/dvj0n6I+rw2Sl81dC4T7rOGff3MvGhf2j+Aouc+dohoxpAHYu9N4z5vt/Q39o/i6PeVX+ZOg/fmf+m4a7v1IzXaLs+w2shQ25+rrMHHgXU++wyRJ7Por8r33E/tlt4rrXUdy8g8Ms/jqSJ3u7w/4M26vgp/oQHGNXtoj3TNgz5ZvQ32WdT0UecVUKb2xAvmJfNsaYjZ92fd94rPMLr2Q9TH9Zyy2u99tiT0PFbj94nZ9/HPU+L/PWm39DcakJ/j3dfHfT3n6crHF6jDx67yF/aozt3+ZPrMGY7o+9xxONe1655z+sycHqORPku9xK4zKxDkvS8PnR4V065Eny0t8WxM5NpOtP0Nn6ckno0JX9uJPRsbu7aT6rOEru3E/33ZcJ/FevxApqQaDbnPLHEUqn9QkjJ0/YhRZiEAAGjFGg/odX9aPXtJJ8yMu70PxsnAa1h4/USdqHRt2BtSRY3U7tpb1MbZ1r2j2qlOpw64svYqn9LHRuZdm04ZUs0nqnHt76u3JibfrsK+6izp1Mf+fzF1XPn4KHVWhcrcP0K2r9Nf94SlnFGufwwGlHF6R+Qvwxntz6gs8tfYgNoEnXpShj53Zdh8plPbK6T2Q9Qlzj/MGhbW8Rei/8D9etfnqvMc78fqMiSguj2vuP5q/V86XlThaX+724Yo4+we/dX8R3xCctSmvaTTVd4ft56/SFtBJW8A7L903PhBfO7NPapzB+AiKlR2p+sv72s/1ilJ38mK1stof0ZVTvvbB/RlUbRfMjrZf/7evk6lnr+S2/1vDFty+sObCfWZTj0WPW/hz8KxwdrCvlaG5pvuY7iDa07b4wyTqihy/Siw+kydsiJ9lvB5sofb1uyy6vn+6CvM1zXtwzq+Nn62lyUgfVYU7Ut97jp+R12VTIDEdqqo4XOZVJ+lkuec2+fY3W+jpygrRzrlurac50HGkHzjR3Vj92aKOefTyFD5+plfe96fe8zIYIkbnE6F69R5dI5xXUtfP/OKjp+VOo825ytNpM/+rltuOC+VXRU38yS5Z0sqefvfar/7uk3seexo/D5Joci1bWRdrf215/3Xz8zzlm9fp6oKxT5fUiVyXbsDOXaf+fx3s7n67MrH77Xa4Xm2J3adXdkpINkBOEdMPyb8bGmhZ2Nj13bC7bc013nyleCzMeacNPO1nfi/Ly1J9dlvr1KppK7/EG/Y7Vp9VC5Jdfp05w6zEAAAtGKNBvTaDLhB7VSmM8kGyRL2jr48Y2yqPKNzylDOtE3q1t0oc/nqdJ2UOUwDH3o6GgxsNtY/nHX2dEzAw++Hpic46PMZR+Qf4o7y06pr6B9mDTF+JMSwA0xOYCei/LSr/VZWWUy7EnKdOv97vvWPUmM4SWPBUl/bq/SluU1+/Wn9Fd/zF3FPVlxYX5VHixpk939UYv3hXAPuH27t+ubEnhMjuOZkNMZmzDXWZ4m1S0YGh+R8RyNo6ddWX8b1YwZuk1ahWnMIoimJPkulxvr2yuHXKsOn/V9XnYkNbibUt6mT+Pk0fab60+a2FBn9fWW2l+pOm9kzTkC8kzegl1D7/6auASl88ttmQcPiPVtSqbH2J/Q8dsReZ80p3rWdiK9PmxNjpE67vjmSzqje7FffgEbT2u/Pyph2FsToMyTgDajE43OdfX06bGVYmRmFLvH6P+bZ0kLPxsau7YTbL6X4PDWu6c/G5ry2k/v3ZfJ99m1Vh6VAl7+ZBRFrZxWooIDhtgAApJvGA3qdMqSaM/rKLGiq7k+r77xi3eR69ell1Kl8Sh8vCOmEMpQzzan3gszZSr56a6LeLyqzgnrO/oxhuSnXQACjSUE4k88PgFS5MqtjzA+TAa/9RgMamuOoMTn5rn3Zcwr5zDOWiCsjK/U5r4bmzkmNduaqxmZfjM7SdyR9WdVIFpz91/toZpMVcDu13ZuxYf3Qcf8gdTK/Yv8Cnxr2DwX3dbv9T6rxzYhqnS5+nyXmyk4BSdYiMJ5ryDMnY0u4Tld1avhZFTF6inKN9jc0F1sqxL+XzB/6qdMSz5bGNMvzOEWsLLLY4EIsa5igu/0NzSuWEg20K5J9nXJh76IYL+zRd/JjVwxP5Dr7+pl59vQbQ9THqWfuJ8FnC8/GZCXxbGyJa7uBdqXk35cAAOCS02hAz8qC65iaDDhnoYvDoejceAvG6dBhs6IkrVGFa549qbf6+AT1tPdB7356FSQf1LOzsi70r9rxf6gmIdEAUhNYfx03fpi4XuaE1gnxrHL787gTPTfGmWDaO/eTNTdNc7Emn479oebJ0LMDrIn8Y/rcx645Egv7qnPMX9Ht4JrxQ8f6kdBMw//srKiYwGt7xQ4RbpVaoM8SZGVrmHM6Oa8EsneajZ1l5xqe7cuZwN+4hxuem685+WRepUBLPFsS0SzP4xSxssiMjMkYrgWQXO225jprGbHZn83EZyhkUtdZZE41+34z5k1M7NnCszF5CT4bW+G13Rz/JgQAAOmv8YBedZWk3uqY9EITsazhu3Wq+O8kV6Hd+6Ad1MvSdxoYghtebwf1Ov5jcgFIO2Op4blRfObQssUbXtIU1r6SGCKaDN+hXCZryI6Z6dDutubMGnGGm+zRyRT0YWKcBSuicx36s/sjkTnF1hZZi6AMv84a1mMusmIH18wJ652JshM6RkRi58m5NmN+WL3gndvJ9wd8Yb5n9dMWcUF9Zp/jGP59lyz/4WMXJlX7tM5nwwFb51njnQcsjiQC23E5maExfzix73/zfklIY0PJLuTZ4gRMYvneL8lK6HmcpFScp8h12MhcbM7cs0YWcjyp6DPPH03c4g1fTtTUZQqFQgq9NFfJLQngBKGbfp2de8wO6rmCTAk9By7o2Rjv2ubZKCV7baeiz5r735eNT01QuCykUGid5o4xSwAAQGvWaEDPWbSiW74xn93gF5JeTdYKDmao8wBnRdtb1O2h2CG3bW7dFLPvQJ/ekqr0ZWQBjFvU7SEzY2+aOvaSdOavSQ4R/kyn1u5RnfxXOL3GXpXt62d26JSMlS5HT9E/Dgmobk90oYAmi+zLPUl6CtnDQv1WioyKHbJz5eML1LtTOP7KlRfM/qu5+x/Z9gqu5nCl1LFX43X/A7rwFz7D3aILlXhWmNV16rzUHLJq9V3GkAeszD8jUBL/H+ZxFtVoUCLnqYFAiR1ccX70OZOaZzkrEI6eotz8jqqLuyLfxZFwn9mBjGiwyM6wMD5lsa+3Cx2WZgdwr3nQeGZcCDvIc81tZtArOdazKrZtVz7+i8h3tn4guzN57JWOfX+X2j9afSa0T5x9L+XkGyul+i0wkKhv6Z1P2kq96/WMWSQl8WwxA/fXqfO/25msPpyAV+R+aYqEnsfJSsV5ii6OEtO2wl9Ez51PZru1sqlfoChFfebcc4XuZ++PdU1+TgJ/nImvsJ8dVQ1cr9GJBDTs/1ZHn62JXmfXqfO/m88L+w8P7uGWCTxbEn42JnVt82yUkr22U9Nnzfrvy/vqlSup+n++ZZbYWOUWAIB0dUV2dvY35kY/gclG4O1wSO9HVp2dppx5BermKo4q06EFD8oZqNDm1k0aOCwaMjlRNE5n+hSrT8cPtP/5pyKBuJjj1XjLLbHHPffBUn38lmt13KT4/EM3ZnXT2ECBZyVAexjbl0U/1/G19v5k76PwFxqQnxOpbw35dO3I3Jdcw+JcmyJcbWu39Dfq3cloq6ct0Y85Q4M8jO/paVtFkQ48Jl3zWr4U2Zf93U67V6/1EacNse01+75CZXd+rA6v5es7e1bYC14Y/RndnYu3XdZ3lb2inX3uIivuGufy7B4dWiv9o097Y89D7Cp5kqtezHXTSH/Zn9OeFSrd9f0E+6yR81Tu3/cOb9/YAc3IHEcVKrvz19LS36i37DYX/kID8jv69qVvPxvHs1j7PRc5/pnIe4v1WeucK/E+e+azmHN0qujnOpm1QH2uc68k7TCvN6kucp252xDN+PFvr/997F7V2e+8xbsvJPM8yKfP/H5UutvvaOg7Wsz9nSr6uWr7+rRXir1fPM+r2LKoaPulhr+fI6k+y6vTh/96StWbs/Wj37q2R5j94PdsUcx3qNuzQqVV+RqQr5j2yafvmut57H/d+V+j7jLf8xTzHHOJeWb5XNue1cpjz2XdnhX6q+71aa8l5ruafWbeRzbvfxfN8xnvujbb0ECfTV2m0O1BKbxXy3+2SJ51PmOuV0vMf6tj2pXYdSaf9jt8+6SiSAceq0ju2ZjUtW1+D2/7krm247ffanPS5ynmXLieHUld2w1/Ryn2WA1f2w3vz7cfbN7rKPbaMK+zpPtM0jMrjuiuLp216M4MrTYLbYXLQhofrNPe51gYAwCAdJJwQA9AAmJ+SAFobs+sOKK7emdq460d9LhZCACXq0b/4AEAANJZ40NuASTMGQZVRTAPuGge39xZYdXorhXJTbYAAJeuv2vDjFMKhDtrI8E8AAAuSQT0gFQp/IW9yqE5HAdAs9qaoRs3Z0q9q/Th/L+bpQBw2XlmxTGNCGRqYwNDbQEAQHojoAdcoCsfX6ABr/3GMz8igIvstx206E9tFbihXtPNMgC4nOTVaVzvttr5K6YhAADgUsYcegAAAAAAAEAaIUMPAAAAAAAASCMNBvSCwaCuuuoqczMAAAAAAACAFtJgQA8AAAAAAABA60JADwAAAAAAAEgjBPQAAAAAAACANEJADwAAAAAAAEgjBPQAAAAAAACANEJADwAAAAAAAEgjBPQAAAAAAACANEJADwAAAAAAAEgjBPQAAAAAAACANEJADwAAAAAAAEgjBPQAAAAAAACANEJADwAAAAAAAEgjBPQAAAAAAACANEJADwAAAAAAAEgjBPQAAAAAAACANEJADwAAAAAAAEgjBPQAAAAAAACANEJADwAAAAAAAEgjBPQAAAAAAACANEJADwAAAAAAAEgjBPQAAAAAAACANEJADwAAAAAAAEgjBPQAAAAAAACANEJADwAAAAAAAEgjBPQAAAAAAACANEJADwAAAAAAAEgjBPQAAAAAAACANHJFdnb2N+ZGRzAYVGVlperr682iViswuVh9On6g/c8/pa/MwkQNfkE35fd2bSjToQUPKuza0trcv+pX+mmXfVo8YYO2moWtQq4Wb56hmzpIpZv+VTNWmuVp5L5aVUyQNt7aQY+bZSkxXeM2z9HQDs77sHYvGaDiEm8tj7Hr9dDsEcqMbEjgM7hwzX4tAAAAAAAQiww9kx3MO/fBUr2/YJz9avlg3v2rfqWtmycpzyxoaWMn6fWtv9KqmWZBy2uWPsur04cTahT+U7tmDOCsVvGEoBbkBbVgU6lZGMsJ5pVutD6TF9SCPIJ5Fypr4QHN21qiQWaB22/baWe4Rne9VqfpZhkAAAAAAM2EgJ4h0Ke3pDIdfesdswgXpFRzJvyr8vLSOTvvK739r6cUKMvSjfO/ZRa2mKwx/ZSpsHZvmm0Wodl9S5PuzFJp4JTmrmhyTjAAAAAAAEkhoOen5kzTh+vikjV9fli5ytTGB9qYRa1AtarIyGshbfSjzZlS7yq9fZ9ZBgAAAABA6qX9HHptbt2kgcMyvBtrzDn0blG3hx5TTmSCsTpVrJmoE5WRChEpmYNP9lDU2YPULrLhrN5f8rTmRIIueVq19VZl7VqlO56MDqvMW/iU5gw/o9/nvaAXY/ZhqI3OmReZQ2+l9LDrM77z1c18UFsnZkffl76lvBnRmffyFj6lOTeUavGEE7pz663Ktbefc7X1/lW/0k+dAh/R40bnzrOY/WBopG3yO7a7ThJ9ZrHOQ3R3R6y+j7x3fKW336pS1z/1aCA7b4nu3XqXciLv481jZ9Yr1Zt5Y7XPU8c2s0TzJnaNsx9L1sIDmj68Ov4+Uih6rNeU5Z7nr3anVk+YrCp35ZklmjfRdaJKN2rBDDOL0OwLS8WmoF6xr9tBq8p1Wxdj//Yw4xpXPUXaF4i8r9m1WM8/uTpaQfI5pvs8mWWmeOfq79rw2jGNUGctujND5hElSWPmat3Dg5VRvkUFs9aapQAAAAAAJCytM/QCk4s1cFiVDkXmuhunQ4fNWtOUM+8x5ZwJRers/0DKmbZJ3bpbNdrcukk3zSvWTfOK1aeXpMxhGmi/v2lesfreeou500bkadVM6bk8a4hpXt6/6vel7XXT7Ke0eKxZtwElG3RH5PN2MMq1zzxzAYwOgzRndq4+XmKVL951VrkTH9T9rip5C5/S1okd9b5dJy/vLZXm3qqtq4yZ5joM0pytI3XaqbfpiNoNnxGZK+/FGfb2Jft0zg7gRdrlGVYbHWqbt+mI6wCx7l/1K22dmO3d1/4+nvn58hY+pUH7XeVL9umcu/3J9NnYSXrdDqo65b8vzdZPt3r7TJJ0X71y1VYHdzQSzPPMY1eszjPXK8tdbex6PbT1LmXuWhyp92Zprm5rbK4208wSzdtarnlby+0AVq5us9/P21queauWmJ9IoVzdtnWOcj9xvsNGVXQYoemuY2YtPGAHIp2+2KiK3Lu87fLpiwVLdqomWiMpg1aV28HG6L40fI4eWuie3a6x8zRbr9jbV+8K2wE8p15QC3yDeZL0Lb3zSVspcF63xJm0cdSI65UhScH+KjQLAQAAAABIQvoG9Lo/rZ69pBNFDS9Y0ebWW9VNZTq0fk1k21dvrVBFTYZyfjjNfj/RGxCs+UD7XUHCj5OeT2+rZhjBthc37dM5tVffMQ2ktV0wb/bb1m2lOqdsDYoExPJ05/D2OrdrgytDbqtmbDoi5Y6MCTaWbnJl0q08pFJJWdc0U/vHTtK4XJ+MwpUveN5vffJpb3nJBhWXSsrtExuEa8T9EwepXe0+PefKkHxxxlsqVbbGLfR+z2cG1Ejhtnon3hLCY3sqU1LFfncG2my9YmStDZo4Qpm1O/V7V9bYvhkbVaFc3ewJPDVi5dhIkMk38BSTCZdaFZuCrsy32TpYKqlLTzsotkRjhwdUs+sFV1bhbL2yqVTKHadx9nXm1xdNNna9bs6VKja5Am4lk/X7XWFlDr8zGixN8Dw1xeodbRXWeXV1L5DtsmPnp6qTpPKPRH4eAAAAAOBCpG1Ar82AG9ROZTqz1yxxu0WZ12ZIh/cbQb939OUZSR3/URdtNrSSExccMGhUbam2xhmWKUma2Ue5OquPtxkrp5ae0Tm1VydPDOuI9plDdZtR3phctWviMT8/edbclIA8DcqVzn3yZ2+Wo47odK3Urotr2K/+rp5dJJ38tv9QSkkqOaoaSTkTy3Vv3BV/l6hfrlTzybvGtVCmU7VSZpc4kaBWJ6xTxiW0b0ZQC5yg2MwhylFYpduM3iqtVo0C6pyrBvqiaayFQUp10Lh+qo5XS+qqLCdYndB5aqKt31a1pK7/8HezxLJtkaYUFDDcFgAAAABwwdI2oJeY3vpOpqReBZHhs56htc0ob+FT2rr1V66Xe562lpF3TUdJ7XXTbHe7fqWtDc05d5Fc26W9VHtGn5sFMfK0ytOvv9Kc4e3NSo0b201ZktoNn2GcJ/d8f8mYrVfyFmt3rRUssoa+Hohko0nR7LDM4XOiQ2O3lmveVtdcdJeArGu6Sgpo6Gz3dyzXvNkjFJnGMsW6d/EZdry13DuHn5TYeQIAAAAAoJW7xAN6ZfqyRtLh6Px5nteFLnwRh7WwRXtjXrm3ZCQ1XXRbj5+xh+V657tzXjGLZ1xEn588K3XoqGvNAg97AQtjXrzFu5qQoWdnTJ5zzZ/neRkLcSRmtYonuOeCC2jobFewyM4Oq3HPGXcRh8leLFZWXNg1f5735V7EIlUqT/oMO468zAVFGjlPAAAAAAC0cmkb0PuqukpSlr5jL2whRefVi2qBobXKVd4N7aXafXot6cCF/VkfiQW8GuE7tPYC2YGxC51bzwo2uuf78zGzj3IllZYYi4HE0XCf+Q2tjedbOnpSUpe/KeFZ7kom63k7WGQNMVWLD60tXBZSKBTSuidGmUWp5RlaG49/XwyamFgWnzXENipmaG2ifM+TJel95v1NXSVV/0+chVPGzNW6UEihZSyJAQAAAAC4MGkb0NPe/Tqh6MIW0jTlTBsm1dR5qoX/+wOdyxymgZOdes2tVH89KalDrvKcQIC9mqo3XmAHlG74nqxFMXO1eHP84Z5OwMtcrCEp9gISuROTXG23Qfb3GH5r0otSeKx8S+/X+rRt5oPRVW5Lz+icpNyB0WVE718Vf8htw31WqjklR6TcW/W6b7nX4wcyG1zBVDNLjNVUnaCTe7651SouKZVy74qp2/xGqUcn6/9lDL2jeVdZLZmsP5ZKORMbynpbrX2fhD2LZGQtPKDbuoRjVrmtPBmWOvTTIFc9a2Vfl5WvaXdtQENnN7JacELnyWYHJodOTGzF4OmjziugtqouM0ssrHILAAAAAEiVK7Kzs78xNzqCwaAqKytVX19vFrUO3Z9W32nD7Pnf6lSxZqJqBmzSwGs/0X7PcNppyplXoG6uj0rSiaJxqjAW1QhMLlafjh8Yn0+WGZw7ot/nHdKgrbcqa9cq3RFZVdUeQmq/O7drle44fqu2TpR+n/eCXnQ+7tS2h/JG1O7TYns13ftX/Uo/7RJ9L9mBxNmDVGWsHBuzH3n3ZZWfMdpgtdXbfm+ZOywWWa3WboPvHH2uYzruX/Ur/dSzo7e8w19nPqitE6NZded2rdJzmuTTXkvMdzWP6ds+72rBlq/09ltV6vqnHrpxvn8GVmygqVRv5rlWXXWMXa+HYuaTC2v3EntoqG+5rXanVhsrslrHrfY/ltvUZQrdHpRUri0Fs5q00qp1LEXb2oDY/oht/6BV5brNOd+lG7VgU089NHuEajZ5h+Z66tXu1OoJRzV2611SQ/UcpRs9w5lj2xXnPMkKAHrn4YtX9+/a8NoxjTiZpZwH4uQDj5mrdQ8PVkb5FhbGAAAAAABckPQO6AEX0fT5JzX3+9LOX3XRpETG/LY6hVoWGq9geK+W/2yRdpjFrYEdzDQDeq3efbWqmPB1Gl8bAAAAAIB0kr5DboGLbPX8gEp1XiNm1CU+l14rUrhsvIKq096XW2kwL219pbcn1EhlAYJ5AAAAAICLgoAekLA2+tGvOiscOKW5K5o+IPuim7pMoVBI44Pl2lIwRYu2mRXQdH/XhteqlBvurEXxhtoCAAAAAJBiBPSAZGzN0I2bM6Xe9XrGLGutXp6lgoICFTRx3jw04L5zGhHI1MY7M7TaLAMAAAAAoJkwhx4AAAAAAACQRsjQAwAAAAAAANIIAT0AAAAAAAAgjaRlQC8YDOqqq64yNwMAAAAAAACXvLQM6AEAAAAAAACXKwJ6AAAAAAAAQBohoAcAAAAAAACkEQJ6AAAAAAAAQBohoAcAAAAAAACkEQJ6AAAAAAAAQBohoAcAAAAAAACkEQJ6AAAAAAAAQBohoAcAAAAAAACkEQJ6AAAAAAAAQBohoAcAAAAAAACkEQJ6AAAAAAAAQBohoAcAAAAAAACkEQJ6AAAAAAAAQBohoAcAAAAAAACkEQJ6AAAAAAAAQBohoAcAAAAAAACkEQJ6AAAAAAAAQBohoAcAAAAAAACkEQJ6AAAAAAAAQBohoAcAAAAAAACkEQJ6AAAAAAAAQBohoAcAAAAAAACkEQJ6AAAAAAAAQBohoAcAAAAAAACkEQJ6AAAAAAAAQBohoAcAAAAAAACkEQJ6aF5j1+uhreW6d6ZZ0IrMLNG8reWat3m9sswyIJ4xc7UuFNKyqWZBKzJ1mUKhkEIvzdUos6xFjdLcl0IKtUj//V0bXjuiD+f/PcHtAAAAAND6ENDDhWnFAbtBq1ppkK4V9xmiRj2xTqHQMhWaBS2uUMtCIa17onWF6NSq+yzqmRXHNCKQqeL53zJKvqVJb2cq8P1jevs+owgAAAAAWhkCes3BDtjMM1+rlnjKH1o43fykJClr4QHN21qiQVqie819GK94+0ASVo7VgrygFkyYrCqzDE1SuMzKvvK+1mnuGHd5vMBPNGBlBYjM/bhf5j6sz4ZaacDront5lgoKClTws0XaYZa1qB1a9LMCFRQUaNbLZlnzmT7/pO7q3VY7f9VBj5uFkvTbDlr0p7bKnXBSG/LMQgAAAABoPQjoNYeSyXo+L2gFifKCWpC3WLtr3eVHVeN666u2WpWarVdc+1m9KyypVG+6tj3/5Grzk0CLWzvLCtZEXm+Ue8oPn67zvPdTXblDO345xbWfLSqXVLd7uWvbLK11f2hqfwVVrr2765Rx3ehWNswULesr3fX98wr/qaMmbTXLolbP76id4fMaMaNO/LkEAAAAQGt1RXZ29jfmRkcwGFRlZaXq6+vNohbVWtsV33SN2zxHQ09u1IIZsyUt0b1b71LmrsW+AbmshQc0/YaDWm1kjGUtPKDpw6v1Zt5Y7XNtT9agVeW6Lde1odRpl8X/ON42x+zDULEpqFdW2tmIs0eoZlNQBwe6PlO7M+b7Rfqpg/M+rN1LBqi4xHlvtUGbgiq55oCmDw/Y20ujbbWPl+l8xOQ+7swSzZvo+hJGP3g11ja/Y3vrJNxnNrN+jXm9zCzRvIldtXvJAFVNdNd19UdrMXWZQrd31d7npmjRNmto5iNDq7XFDMhJdpbdeOkNM3vL2t5193JN+aV/vlnhspDGa4sK3uihdQ9fr0/t4zn8j+veby8tC41XMPoRQ3n0s2Pmat3Dg1X9RoE+6hfSeOdD4b1aHpMRZx0jul/XflzleqNAr3dfp0eGZsTUs9rubI9V5+6XqcsUut31Lcq3qGBWbE9bGmtb9LtGj14XOZexnze59zdKc196RIOdW9ezH0PMMc12Nd5nbtPnn9Tc71+pjbfGyc5zu69WFRNqVLo5Wz/6rVkIAAAAAC2PDL0WUaZTtVJml95mQbPLWnhA/fa7sgeX7FRN7l3R4cAJ2jfD9Xk7GBXNSPQGpiQpZ2K5btNGu3yjKjqM0E89w4WX6N6tdtAzkpEoDZ19QOPGuqrZ+5repdiV/Zir25y58lzZkW+W2gE8d7akO4joDLU1MyhNY9froa1zNFTufb0gTXTPz7dE986Ufu861pulAU/7E+8za6j1bV1cx1uyUxo+x+c8BTR0trtvjf5opXZUVkvqqh72ENzUKFT/oFR+cK20bbs+DWfo+hHJ5uit1Sw7+2/57jo7OOTONowNFAVvt4OIThZhYLCmu4f7jpmrdXbA0NnPlvKgxscMF7b29UinrXa95dobDmq8vaBFNFvRL1OxwBvkdIbaFizX3rD7CIapyxQKjVew3Gl/gQoKPlL/Ze6WFWrZVGm161hbyjM0+GFnCHUyfRYdamtmbbqNemKdQnaw1Ntn0WHbjob6LOrvuuWG81LZVY0H8yTpt1epVFLugK/MEgAAAABoFQjotQZj1+uhrdHAT/cuAenk0WaZz63qyQHeYFvJZP2xVFLuEA1ybU45T/bbbB0slTJv+EEk6JS1cJxyVKo3XRlyVU++oN21AQ2daASxandqdaTeau37JCx16Kru3lopM2jiCGXGZBSuVvEM9/vZesXIONy3aadqFFDumOQG7kX6wr2/ksn6/a6wlDsuJsBZs2uxq2+b1h8/eOo1FRUVxXm9pvk/ND+RWoXLQgo5QaQxPdRVdfoifrzHnz3c9qOXJWmHtn92kYbderLf1uqjcnmOW3j7YGWE92q1K+C2dtYWlSuoPHOev/BeLY/sy/oOClytXt5aKTJKc8cEfbL31mqW+d7IOFz7xl7VqSkB00QU6o6hGarbvdyToWn1WYYG326EQRPps7x69QtIpQfauLc2oI32lEnq8jeG3QIAAABolQjotYjVqjoZfZc1pp8ymxD4SZXKkw2l8KRGxf54Q1klaboG3RCQSvcYw0TtfurS05NtVvPJu80S7PS3RP1ym3jMROZKjGH3RW21Ko2Sqm0HVaOAOhvDdmuOe4dtVz05QAuSHHL77tN3Kj8/P87rTs3/b/MTF6j8C0Vn0bMy6xTsH5OxlozCfkGp/KNINtiOymopcL1GpzQLMFb5QTNnz836bnWfbTeG4B7WF2Epo5M3VBdbrxmNGa3rA421P45tx1RtbkuVqf0VtOdQ9LKCperUwxOkTajPev9NAbVVdZlZEF/pybZS4G9qYJQ8AAAAALQYAnotqUtPZWm6Bt0g7d5V6slYqzmZxC/PpMSunBudi66l9FbnDpJy74pZxbehOecuirE9lekTNPNjrU7sbv9dyjErJaqBDM3Ma1om8Jt6Gbo6aAdwyvdqbzio/lOdsmod85tXLS47cHb6cHTTyx/5Z3RdTGN6qKukjKGPGKvzuueRayHBq5WRYCZk7GrDDc2ZlwoNtMvMvgMAAACAyxABvRYSyYob+wPl6qD2PblHFR36adDY6crqYtZOFWtRiRxjXjlr9dyWZM0pqNLo/HmeV8ziGReRnWXXWBDNWkgkYMyLt1EVZsUUSCS4mKyLPuTWleFV2C+o8oOLtP2zOgX7FdqBpiTZWV3ewJkddLrAzL8LYn9Pc767yCvuQhUXQfkXqnOCqg1wFuMod81n58zj1yLCX8gVtgUAAACAyxIBvYvCykCLybrr0FWDxvSTPnlXVZqtg6UB5Y5pxoUyZg5RjqSKkiYEyOzPxkgw4NUw/6G1F6ryZPJzycWyFzBxZU/GcobJ7lSJsRiIrwb7zJ4Dz2dOQ2todqkOJnKMJDX3kNtR3bv6Zt117T5X/YPWvHc7dn6quiYG3wr7Ba251MyA2RvlktyZfz7sYKApNQt3+A+tvTAp2qcdbAz2a6jHR2n0dRlSeK9e96w47C8lfWZnVsbOzxdv+HICyr6tsM6raxKP19wu56Xwt1VqFgAAAABAK0BArznMLNG9M6NvrUUOwirdZmZWdVXuDYps37e/VJnDxym3mbKwVFqtGkk5A6OLTAxaFTvktup4taRc9XO+w8wSzZsYb+yrHfAafmdMACoZ+zbtVE2HEZoes4pr0znf42bParrJWq3iklIppm3TNW6Vs5KsHZDs0E+DnAUrxq7XQ3GH3DbcZ1VPFqtCubrNfbyx6/XT4QHV7HotqbnxWsYozV3mXmXUWuTAPb9dxHXXK+hs37Zdn4aDyhvTNcksrAYCPS9/pHJX0MoKOLkCfFOXKXS7XzgvmsF2YUN2d2jRtnIpOF7rzAUwmmyHjp2WFMyLWfE1OWv1+u46n7YVallklVv7WO65CO1Ve317LSV9ZrUrY+h0z/crXDZeQZVrq3s130RtvUoHw8msWvuVhvSWdPLbaoYnMQAAAABcMAJ6zWHlWB0c6J6jTtq9ZICKS6JVrGBTQJkdqlXlbF+5RxUKKLNDtF5KlUzW85tKPXPV3XxyceyQ25VjtXpXWDkT7e8wUXozb7F213qrWVareMJGKwDlmj/OHdBMSMlkPZ+3URU+8+glvS+H/T0yh8+J7m+zE4SzgpnW9jkaaszh5znmyrFasGSnajxte1DaFM103DdjsbUi72y7fHZX/THukNvG+my2XjH7YvYI1WwK6vkn0yG8sEOL3pCmu4e+xqykameZBTJc897ZK9MGkhxwO7W/gqrTpzv9Aj32QgpO5t/Ls7R8d52Ct9ttu13aUrBce/1GnW9bpClvWMG46DDeZclnEL48SwXP7ZVi5tFb1+SA3NpZy7U3nKHBD0f35w7KFS5ztttz9bm+wzJXtuKOX05RwRvlxlDl/vrIda5ijvXw1doab8htY302Zq7WOdtvD0py7felaBB4xy+naPlueb7f+E57tbxgVmxQOCHf0juftJV61+sZs8jPffXKVVvt3JzoqrgAAAAAcHFdkZ2d/Y250REMBlVZWan6+nqzqEW11nYBAFqrr/T2W1XKLctSzgMNBer+rg2vHdOIk43VAwAAAICWQ4YeAOAy0EYb/9RW6l2lt+8zy6Kmzz+jEQGy8wAAAAC0bgT0AACXhdXzu2hjmZQ74aQ25Jmlku6r1dzvn1fp5i6atNUsBAAAAIDWgyG36W7sej00e4Qyze2m0o1aMGO2uRUALjPWkNp+n/TQjfO/lcB2AAAAAGh9COgBAAAAAAAAaYQhtwAAAAAAAEAaIaAHAAAAAAAApBECegAAAAAAAEAaIaAHAAAAAAAApBECegAAAAAAAEAaIaAHAAAAAAAApBECegAAAAAAAEAaIaAHAAAAAAAApBECegAAAAAAAEAaIaAHAAAAAAAApBECegAAAAAAAEAaIaAHAAAAAAAApBECegAAAAAAAEAaIaAHAAAAAAAApBECegAAAAAAAEAaIaAHAAAAAAAApBECegAAAAAAAEAaIaAHAAAAAAAApBECegAAAAAAAEAaIaAHAAAAAAAApBECegAAAAAAAEAaIaAHAAAAAAAApBECegAAAAAAAEAaIaAHAAAAAAAApBECegAAAAAAAEAauSI7O/sbc6MjGAzqzJkz+vrrr82iFpWVldUq29WaLf7lIknSnCfmmkUAAAAAAABII2ToAQAAAAAAAGkkoQy92tpas6hFBYNBVVZWqr6+3ixCHL9e/qwk6RePPGoWAQAAAAAAII2QoQcAAAAAAACkEQJ6AAAAAAAAQBohoNds7tbiGWu1ZuRwswAAAAAAAABoMgJ6AAAAAAAAQBohoAcAAAAAAACkEVa5TbGRI1fqgX5tzc0R5w++qGnv7ZI0XI9Nul8Da4s16c//oDUTBsj5VLTO3Vo8Y5xyzh7Qig3P6j33jvo8rQ2js1WxvVBzDrm2j5mrdQ8PVkb5FhXMWhvZzCq3AAAAAAAAlwYy9FLsvfdmatKqQk1aVawKOzhnvbdeVqDOpcc4bZhwrT7bbNfZfkRt+92vxX0k6XcqOnhean+tRnbxfmxyr2xJR/SxO5gnadSI65UhScH+KvQWAQAAAAAA4BJAQK/FHVHRqplaetJ+e+gTVUjq2tFaTOO9zz7XebXVdde5F9e4W317SOcPFmu9a6sk7dj5qeokqfwjRfPzAAAAAAAAcKkgoNfSztaowrPhd5rjzuQ7uUufnZXaZg/XSKdKnxuUo/P67DMj20+Sti3SlIICz3BbAAAAAAAAXDoI6LV6u7R03xHPsNvJvbKlY9uiWX0AAAAAAAC4bBDQSweHPlFFZNitNdy24vDvzFoAAAAAAAC4DBDQazZHVHNWapuZbRY0gbU4Rtvs4RrZ5wbl+CyGETFmrtaFQgotY0kMAAAAAACASxEBvWazS8drJfUYo8eMFWqb4r3PPtf59gP0wOhs38UwHKxyCwAAAAAAcGkjoNeM1he9qP1n22rghLXaMMN6rRnpXq02CfbiGIq3GIaNVW4BAAAAAAAubVdkZ2d/Y250BINBnTlzRrW1tWZRiwoGg6qsrFR9fb1ZdAkbrscm3a+BOqAVG57Ve2ZxI369/FlJ0i8eedQsAgAAAAAAQBohQy9ddBmu69pLFfuSD+YBAAAAAADg0kFALy3crcUTBqjtsWLNibcYBgAAAAAAAC4LBPRasy6Pas2MtdowY5xyjhVrUtHvzBoAAAAAAAC4zBDQa81OPqtpqwo1aVUhwTwAAAAAAABIiS6K8fXXX5tFLSorK6tVtqs1W/zLRZKkOU/MNYsAAAAAAACQRsjQAwAAAAAAANJIoxl6lZWVqq+vN4taVGttlyT95Cc/0Y4dO3Tq1CmzCAAAAAAAALhgZOgBAAAAAAAAaYSAHgAAAAAAAJBGCOgBAAAAAAAAaYSAHoBWbdCqcs3bvF5ZZkGrMV3jNpdr3tZy3TvTLEPzKdSyUEjrnhhlFrQeY+ZqXSikUGiZCs2ytPJ3bXjtiD6c/3ezAC7PrDiiihVfmZsBAACAZkFAD0ALWqJ7t5broYXTzYIWl7XwgOZtLdEgs6DFtd4+Syk7GLZsqlnQ8gqXhRR6aa5aXSixmfrsmRXHNCKQqeL53zKLLhuJ/GHh8c2dFe5dReATAAAAFwUBPaDViWZ8eV/R4NKgVd73Xk7AZ02c/bheq5aYH0bSVqt4QlAL8oJ6ZaVZhsvatkWaUlCggoJZWmuWpYnp80/qrt5ttfNXHfS4WQivrRm6cXOmAt8/prfvMwsBAACA1CKgB7Q60QCR81q9K+ypUXnS+95PzfFp3v1sKpUU1u4lrm0zZpsfAwDbV7rr++cV/lNHTdpqlsHXbztoY5mUO6FWz5hlAAAAQApdkZ2d/Y250REMBlVZWan6+nqzqEW11nZJ0k9+8hPt2LFDp06dMotagekat3mOhp7cqAWbeuqh2SOUaZfU7Fqs559cHVu3g/M+rN1LBqi4xFVFksau9+xHKtWbeWO1z1PeT6VLBqhqYrluy7W31+7U6gmTVRX5nOzMsruUE3lvHtMq16agSq45oOnDA/Z245i2Qatcx/P9jvI5pv++WlrWwgOaPrw60jbzvVe0nzwZYzNLNG9iV//zmIyZJZo30dWxMX1mHT/T6G93mysXus9fLPe5GrSqXLd12anVK6Wfuq61CvP7RY4R3a95zrMWHtD0Gw5q9YSjGus679F65vVgcn/XBO8RW2Ntk881q9KNkaCr+XlTzP4auzfd5+n4nZ5z6te3iShcFtL4oGtD+RYVzHLlpo2Zq3UPD1b1GwWa9XJ0c+GykMZ32qvlP1ukXuY+DOWRzxZqWWi8uu5ertWarkeGZjg1tCUmI26U5r70iAZHuq9Oe5+bokXbojUKl4U0XltU8EYPrXt4sCJ7c45nt93ZHiNstX+HfOq6y2I03raY/Rl1YvrdEO0zy6gn1rn6S6rbvVxTfhnbuunzT2ru96/Uxlv9s/Oi9/RrynLfCz7Pd/P6jble5XfNyrivGn+2RK/vBO/PmGO67pOYMoPP95Qk5dXpw389Jf2ph268jIcpAwAAoHmRoXc5yr1L82b3U6mTqbWpVJnD57gm9F+ie7fagb9Ihpg0dPYBjRvr2o/9Y0e7FkczvpZU6+aYYZwBDZ1drtvk7G+jKjqM0HR3vZklmmf/UPMeM3ahgZyJ5Zrepdiut1i7a3N1mzG3kRUYKdWbriy3P3Z5MLb9xjHfLM3VbXGHsrYeVcerJXVVlvv7XAxj1+uhgXui59vp/yT7rOrJAdFrwf5xH91nMPaHfocRmu66ZlfvCitnoveYg1aV2z/qnWtxpzR8Tuxccx1GaPrWcTrle/3P1iuR6y9s/7iPtmuBJ2DgyqTcVOo+gsEaQj19uDzZkb/XnZ7rMWvhAfXb7zrWkp2qyb0rMiw6mT7LWnhA82aPUM2maLl1bRv3sKTM4XM0b6Ii39Pq29h6jRn1xDr1P1igggL79dxe1QXHK7QsueUg1s5yfd4ORkX2WeANTElSxtBH9Mh1n2p5QYEKCpZrbzio8Z5jFmpZ6BENPr0lso/lu6XBD6/T3DGuapIUHK/Qw1dra6RenYK32/Uiw2cLtKXcDtK52lXgDtiZdeMZM1frQo9osNz7Wi3d7p6fr1DLpkqrXcfaUp7haX8yfVa4LKRHhlZri1P+3F5p6CM+i4v8XbfccF4qu8o3mBeVq9u2zlHuJ871GPt8T+jenFkSc802fF81JEX/DSuZrOcj948dwHPdcwv8gnmStPUqHQxLgRvqdYnPdAkAAIAWREDvslSqN/NcmQor96hCUuY11k+PrIXjlKNSvekajln15AvaXRvQ0ImuIFxuV2UqrNJtruBLyWQ97zeM05VpJM1Wya6wlDvEDshM17ixuVLpRk9QwjqmlDPWmIi8dqdWR/a1Wvs+CUsduqp7pMJ0ZXWRVLrHk722b4Y3O2PQxBHKrN2p37uOuW/GRlUoVzebQaAG/UDzXy1SUVGc16vz9QPzIyk2aJVrPryxPZWpsE419bdwQ2LO72oVl5RKylW/Zl3h1ZtdU7XtoGrcxxy7XjfnShWbXAG3ksn6/a6wMoffGRNsrNgU//pPuZl3amiH2OygqifHGu8HeLPiSibrj6Vy3SeJWqKxwwOq2bXYsz/r2jbuYTlBimi/WX0bUGd3pmACdvxyijfYtm2RtpZLCvZv3hVePdlvO7T9szrPMUc9kaegyrXFlSm445ertTecocG3my2r097notl9O3Z+qjpl6OoGst8uROHtg5URk723Q4tmud+v1Swju2/tG3tVpwxdP8IMwjVizFzlBaXyN1wZjNsWafXuOmUMvcN7nvLq1S8glR5o497qq2KTO6A8WwdLJXXpaT23E7o3o/8NaEpmqKlZ/huWlG/pnU/aSoG/KcnbCAAAAEgYAb3LUW21Kj0brKwk6wfZdA26IRATDJNWq+qk60eaJJVWq0aB2KwHHxX7vT+QPBlmY3+g3A5SzckyTx3/YJ1U88m7/lkREXZbXdlNsZaoX67fvsp0qlbK7NLbs7Vh72r+PfnKz4/zume+3jU/cqFKq1UTeWN9l+QDPyniaUszqT2ofeZQOZesMf2UqVIdNIIB/pmMsfWa06CBuY22P55E5kqMMXOIciTVHDeyHM1Ai+PkUe89YGclpSKwcvh0nbkp5eo+2x5nKKskjdLo6zKk8o+MIbg7dOy0pE49vCvVhj/VdvdQ12ZVqP7Bxtofx7Zjqja3JWDUiOuVoXJ9ZGQ57qi07pMe7ozF3n9TQG1VbT6WY8T+8WDfjGj2WkL3pv3fAPO/E03TPP8NS9bq/7lS0tfqmWeWAAAAAKlBQA+G3urcwQ6GGSuieub2kvPD3876mR27EmuyYgMQDjMg07h9M+whk67v4RneNbanMp3hhp7v6Z5zqbWzs6hmDlFO6U7trnVnyVWrqgkBpERYK+y6Xg3NMXWRdO8SsIf+GW3zzPXXEuxsUTNo5standjd/obmzGtYbJAlwgiQp06hloVCCrle7nnaWkYvXR2wh9IabWtozrmLYkwPdZVUXdl4OG/UE+uM9o9XU5rfq1OGpKDGG30Rur0pe0vMxb83W+6/YQAAAMDFREAPBitDTaXRuYc8r5g5g6JzjlnzHSU/n1rjmhacis45tli7a63gXSSoV3JUNT7zkEVeSQ25aoEht3b7ZWeAVeyfrH2fhJUzcIk9jKx5WHMTGivlLtnZ/Bl6jbAy2cz57pyXz0T4F41PVpAvezEOY44uc3XjlIjJ0E0Fa4GKoDGv3PLdzZ+h17DD+iJsL87hnu/OecVdqOIisLPsunZveNiss4CFd168LWpoar54rIzJ8uj8eZ6XsRBHilz8e7M1/jcMAAAASD0CejAkGoDwsXKs/YOo8Yw6zzDEkndVWisrGOURb+hUslareIId1IsMpW3K0Np4mn/IbfcuAd9ATOY169Uv1xrOVrXtoGqadditPbS3tLgJP8LtcxkjNefBf2jthUnVPitPhqUO/TSoof3Yw2QrSsxgg59G+mzlHlUooNwx5pyA8YaZJ2jMXK0LhRQKLYudE29qfwUllW9rSoDMGnoaI8GAV8PiDK29QIdP10mBq9XLLEiKFWzMuG50A22zhwyH9+p1Y5isr0b6zHdobTxl31ZY59U1zmWWqITuI/sPFN55LO159RplPlua579h1n2ceHbr9H/4WtKVOrrVLAEAAABSg4AeYuzbtFM15iq0PrIWHohZgXbQwNzGM+pmlui2XHfwwl5YIfcuz/6yFj5oLSawKZlsOVnZTsaqt7Hz9EWPGbMKaotbonvdfW9PKu8biLmhn3KcgGfJuyqtzdXNY7v6Bv8unJ354g4a2itTejMC7YDTDT+wz8F0jdscbyizM9/huAubw2rla9aE97NTmFnjzK9lLiKRpKoni+0hfd62ZS0siX5nex5Cd1DbWhnULwjaWJ9Zi85kDveu6jxo1V3KUan+aK4gnCBr/jVJCqr/VKOw/AvVSQr2i4b6rNVUjSG3dsApWs/O7PPWstkBL3OxhiStfWOv6gKD9UiSq+02xAqMBZUXszJsMnZo0bZyKaZtozR3mbPKrR2QDFyv0U4QbsxcrWtqn738urUYyMM+QVmTvVJr7oCvzJLkJHRvWvM7uhewGbRqjoYqbGT/JvZsaY7/hlmByUQXTLJXCA5/W/FGvgMAAAAX6ors7OxvzI2OYDCoyspK1dfXm0UtqrW2S5J+8pOfaMeOHTp16pRZ1ArYP360U6tjhh2Z7CGAxtaKTd7J8q0hmK4Ktca+x67XQzEBn9gVPyU7OOSZV6lUb7pW33TalLlrsWc13KyFBzR9eLW3rs9xzbZL/vXitu9iMvqixvjO7h+y7jKrLwKx50HOPrte4HczrovanVq9Uvrp7BGq8fSvt17NrsV6/vidmjdRxjmV749y93catKpct3Xxv668x/S5HuVdYdn3WolzXUmx58FzTfpeO7aY/m/4O0qxx6rZtVi/14M+7VVC+4tcC46YNtnnyLMCdQPGzNW6hwcrQ+XaUuBaJdUxdZlnLra63cu1WtP1yNBqb/3IfizlbxTo9e7r9Mh1nxqrvco34Ff+RoG9mq5V1nX3ck35ZfRT1hBV45g++5FnX1YAcnwnY8VZu63VrnoOZyhshGu12pgylzqjvWZ/WCvtuoe/jtLclx7R4MipLNeWgo/U3+e7W2K/q/t7yvmuMZ2xRQWulYAlafr8k5r7/Su18dYOetxTYrGuMSX0TGns3jSv6egzw3xmJfpsSdF/w1wav6dseXX68F9PqXpztn70W7MQAAAASA0CeinWugN6LSBO4AUA0Np9pbffqlJuWZZyHmhjFja/lPwR4uJ7ZsUR3dWlsxbdmaGm5cMCAAAAjWPILQAA8NFGG//UVupdpbfvM8vg675a3dVbKn2bYB4AAACaFwE9AADga/X8LtpYJuVOOKkNeWYpPPLq9OGEGoX/1IOhtgAAAGh2BPSAy9ygVeWat7Wx14E4CzAAuNQ9/kAP7QyfV79RfzeL4PLMhFMKlGXpxvnfMosAAACAlGMOvRRjDj0AAAAAAAA0JzL0AAAAAAAAgDRCQA8AAAAAAABIIwT0UuwPf/gDw20BAAAAAADQbAjoAQAAAAAAAGmEgB4AAAAAAACQRgjoAQAAAAAAAGmEgB6QSmPmal0opFBomQrNMniMemJdq++nwmUhhUIhrXtilFnUstL9Omus/VOXKRSy+j4UCim0zLdW09nHXzbVLAAAAACA9EBAD3HcrcUz1mrNyOFmwWUpHYJPrU3r7bNCLWuNQbpW3WcX2cuzVFBQoIKC5dobNgsBAAAAAAT0gFTatkhTCgpUUDBLa82ytGAFu1plVloLWDurQAUFBZryyx1mUcu6mNdZJJsu9tXkDLeL2X4AAAAAuAQR0AMQNbW/girX3t11yrhutAjpwVH+hhXcdL9mvWzWAgAAAABcDFdkZ2d/Y250BINBVVZWqr6+3ixqUa21XV7D9dik+zWwvfP+vPZvnqmlJ613I0eu1AP92krHijWp6HeRT8Xbbg2BHaecyPsjKlr1lNa7ajRexyrX9kIVdbSPY9SLHD+O8wdf1LT3dpmbGzXqiXV6ZGhG5H3d7uWurKdCLQuNV1B12vvcFC3a5tSKt32U5r70iAYHnPdmuV2rwWNa86ON1xYVvNFD6x4eLKdm+RtOoMI5fjzl2uJkGI2Z69mHwnu1/GeL5JvXZdZ17ydSfr0+fW6Kjt0e0ninAb77NNvo3xeJ8vaJ1Qb3vgqXhTS+k9EO+/tUv1GgWS+b7TFFv6t1fqq1peAj9Xd9xjxPFnO/yfeZeT2Y3MctXObah+ea8NNI22TPCXe7u1fcdczPm1r4OvOcX2ejP7PfVL5FBbNcPWG2yTxWDPteP23sx8U8r4ldPxa/8+rsz68MAAAAAFoLMvSaxd1aPON+Dawt1qRVhZq0qlArDkoDJ6zUY12sGu+9N1NFxyT1GBPZpi6P6md+wbw+T2vDjHHKORbd36RVn6hv/t3ROl0e1ZoZ49T14IuROkXHspU/42lNjtaSJOWMXqsHsj/XilWFmrTqRe0/m638SY9qpN0u6/PFqrADeNFjFjYpmFe4LGQHbuzMnuf2SkMfcQ3pXKtZz+1VnTI0+Pbo7GGFy3yCeWPmal3oEQ3WXi2PZAqtlm6f68kma/yYtuB4hR6+Xp8+Z9VbvrtOwdvXae4YWe2yP798d50dEHFnKLmCI5EhhAXaUu45gseoJ9YpZAdHnP1sKQ9qfMg5piNDgx8OKe/0crveFpUHBusRz+IAdpCifIurTVt19VRvXySuUP2DUvnBtdK27fo0nKHrRyS7pyT6TJIU1PjQeMnpjzfKlTF0urcvxszVutB4dd3t9IXTZ+Zccw332Y5fTolutwM/0XZ5h9U6Q20LnturOtcRYkxdplDMOfhI/d3nacxcrev3kat8ufaG3e1Pos9a5DpLzKgn1qn/QVe7n9uruuB474IWCbY/UQnd5z7XT/zzOkqjr7OCg8F+yfcBAAAAAFwsBPSawciRY5SjIypyBeXee2+d9p9tq4Hfiwbh1he9aG0b+6hGargeGztAbc8e0ApPZt5wPTYoOzbIp99pjuv95O9Zn33JFXBbX1SsCmXrFnNhi7MHtGLDs3pPkrRLS/cdkdpfq5FOYDGVxsxVXlAqf8MblFi9u04ZQ++IBmS2LdKUN8ql4HhrXq6pyzQ+KJW/YWSI3T5YGTFZPTu0aJY3oyihY0oxGW07frlV5WpKICsRhbpjaIbqdi/3ZP6snbVF5UYwU7Kym6JBprX6qFxSpx7RYN2YHuoqOwAXsVazGsx4aoA93PajlyVph7Z/dnGG3XoyoV7+KKb/nXO+2hNw26JyBZVnBmgb67OUGqW5Y4KxWWhaq1nu99sWaYqnfIcWbSuXFFT/ps5B16AUX2cJ2vHLKd6Mtm2LtLVcUrB/8yzykeB97nf9xGdd94q5rwAAAACgdSGgl3LDNTK7rXTsE2M47C4dr5XU4R800rVtackBnW8/QA/MuF8D25/X/hIn0GbrMlzXtZcqDruDeaa71beHdP7ILu9ndUQ1Z6W2mdmerTH1TtXovNoqs7N7Y2qMGnG9MiJBoqgdldWSuqqHO1vo5VnaUi4Fbw9ZwxPLtxhD3qwMsrrPtjcYsErqmOFPtd0zPPWwvghLGZ16uTemxtT+CkqqrjRb7x9EaTSgsO2YqmX1V5MXJ3Ap7BeUyj+KBEd2VFZLges12pPRlWqx58kr3jn3P0+N9lkqjRmt6wNNPGb5F3EyxFIg1deZLXi7uSiGmSEZ6/DpZvuWCd7n8a6f+JxMTobbAgAAAGjNCOilXLYy20vqMU4bZqz1vPJ7mHUlnXxWLx08L0k6f3BdZI69iM6ZaqvzqjllbHfr8g/qKqltv/uNY7rn8GsZvTpl2MMqjWCAZz6xKCuLSNawQ3POLDsjLTZQ4ZXsMS+uOn0Rb6hh4GolF0Zcq1kFy7U37A62mEMqE2UHPk4fjm6ys+ViMrouJvucZwx9xAgmuedQbCHBq5XR0Pl0KVxmXIueue2aQwPtSvo6s8QuimEOn46ukOy8Gpqz8EK17vscAAAAAJoXAb2Us7Li5JnvzvWKDHW19XlaD/Rrq4pjR9S23/1a3MddmGD23Mn/UbXPfHeRl2eo7sVlZeiYc4I5L3PxhlGa+9J4BcPlKg8HNf4lYy44OyOta/eGBwMmd8xWJPyFXOG0BO3Qop+55wXL0OCHmxDUs7O6vIEzexGB5hoymQj7nJvz3UVeZtD3Yir/QnXK0NWNxI+shSLqtNeepzF6rlpIk66zxtjzOYbdc1s6cwI2j7S9zwEAAAAgBQjopZzf0Np47tbi0db8eHOKirX/rJQz2ljEwg7W5fRyLYARw39obaJGXnet2uqIPj7k3nph+3T4DnONY9QT0zU4UKe9L8/SrG3lUmCwpnvmSLOHWTYyr1syx4wRZxjlBe3T4TM/nCX5YYG+ti3SFDuo5xdkcrLEYhYGcYbbGsGYggJrkYrG5nqzhj7GSkmfxRlae2FStE9nyHODiydY51blWxMKMKWkz5r7OvNjB4TLtzVx/sYmSKyv/M914e3xMyRHPbFOoVBqhrEDAAAAQHMhoNcM1v/ZnhfPvQptjOF6bNI41+IZ9nx6yla+53O/U9HB81KPcVrjWdzibi2O1LMXtoipkwB7Zd3zB4v95/xzr8LbFC+/rr3hDA1+uJH5tqYu0yNDM1S3e7UV+LDn0/OueGovJhCzCucozV3myuZL9JgxRmnuVGsC/dfN+bPsbKwLG366Vq/vrotZxdVazbdcWxOatN9l6rKY4JwVXPMbbmkHluQXEG0g0PPyRyp3Ba0On67zzKs36ol18YdVpqTP7HMeHB/zXZtuh46dlhTMSz6T0cM6n7FtK9SyyPVpBZQ8WY5Tl8UfcpuSPkvxdZYIe05Ad3DTWoHW91umRkL3ub3Ihetcj3pincZ3qouTIckqtwAAAADSwxXZ2dnfmBsdwWBQlZWVqq+vN4taVGttl9fdWjxjnHKMrRXbCzXnkDQ535pT7/zBFzXNtTLtyJEr9UC/trGr2vZ5WhtGu7Pljqho1VPeIFyXR7VmwgC1dW/Tee3fPNOem6/hNsUarscmeefhM9ubKGvYobHRWR10zFyte3iwMlSuLZ55uexhfMZKtNH6DqPc1uAxEyiPMXWZMT9XtL0NBbbqdi93rSLqU9dctdf+ftXu1V+d9nby1o3ZV0wfRjnf12yP9b26+vahIp+L7tfTb+G9Wv6zY7ojNF4y2isl0mfVvue8q9nGmHMu73lPos8sozT3Je88fNF+ca47Pz7928B3tBj7C+/V8pel6T7tlRreX+z5jjLPa0zdpl5ncerFMNpdt3u5Vmu65xzHtMnF3X7fe9PmWRU5Xl3jPvbUKd+iglnSsjjXrNNG8zgAAAAA0JoQ0LusWAG9rk0Myl1qYgIXAAAAAAAAaYAhtwAAAAAAAEAaIaAHAAAAAAAApBECegAAAAAAAEAaYQ49AAAAAAAAII2QoQcAAAAAAACkEQJ6KRYMBnXVVVeZmwEAAAAAAICUIKAHAAAAAAAApBECegAAAAAAAEAaIaAHAAAAAAAApBECegAAAAAAAEAaIaCHC9PlUa2ZsVaL+5gFAAAAAAAAaA4E9HB56v60+s4r1k3zNqlbd3fBLer2ULFumjzNvREAAAAAAKDVIKCHy9q5GinnhwTvAAAAAABA+rgiOzv7G3OjIxgMqrKyUvX19WZRi2qt7VIrb5s0XI9Nul8Da4s16c//oDUTBqitXXL+4Iua9t6u2LrtnffntX/zTC09ab2bnL9W+T1c1Q0V2ws155A9JHfCAFU7722T89cqv8MBrdjwrN6TpD5Pa8PoLtq/eaaOf8+97yMqWvWU1kuS7tbiGeOk7YUq6rhSD/RzWu+uk6DuT6vvtGHSBx+oblhHnVnwoMKSnaH3mHLOhPT++jWR6m1u3aSBwzKinz/sU37tJ9r//F/VfV6Butnbz32wVB+/9U6knmWaclx1pDIdihwfAAAAAACgYWToXY56jNOGCdfqs82FmrSqUJO2H1Hbfve75sG7W4tn2IG/VVadFQelgRNW6rEuVo31RfZnNx/QeTuA59SdtMobvEtcWw2csFb5co77ovafzVb+pEc10lUrZ/RaPZC5rcE6iXtHZw73Vs9bbzELbNYQ3IHDqnRowTi9v2Cc3l8Q0oleBbrpoafVxl01c5gGzrtVX66x6xWVqd2wx5Qz2FWn+9PqO69AGR8stfc1TocO91afeS8o4KoGAAAAAAAQDwG9y9IRFa2KZtvp0CeqkNS143BJ0siRY5SjIyoq+l3kE++9t077z7bVwO/dHdnWHM4ffFGTIsfdpfeOnJfaZyrHXensAa1orE4Swv/9gXTtLd7gnGNwgXIy61Sxxp1Bt0YVRWVS5jB1dwfrJJ0omqgTlfabvft1QlJG12iwMPDDYWpX84FKXVl74fUhnVBDQUUAAAAAAIAoAnqXo7M1qvBs+J3mrCq0h9wO18jsttKxT4whrLt0vFZSh39oYiZcYqrPuIf9Su+9N1OTjOG054/ssobppkrlUzp6JjY4J0mBPr0lVelLJ0jn8AnWSWU6s9f1NsY0dewlnfv8HX3l2V6mL2ukdp16e7YCAAAAAAD4IaAHQ7Yy29vDcmes9bwamjMv3YUPlanbSGMIraPmjBGAi0oqCNf9H5Uhqd2wx3TTvGLX6zHlZJqVAQAAAAAA/BHQg+GIas5KOhadP8/zchaxuNTsDalCNyizu1nQsHOny8xN8VX+VXX2QhnO/Hmel2uRDQAAAAAAgHgI6MGQ5NDak/+jatf8e4m5W31bXbbfO6r5XOo8wJtxFz5UJmX6BPoGD1Q31enUAXMF24YwtBYAAAAAAFw4AnqIsf7PB3S+/QA9kJ/IAhhWRl/bfuM02SxSNOCX08vZ191aPGNckxewaE5fvfWW6obdqs7ujXtDqqjJUM5E93DcacrJ7y0dfiu6AEZC3tGJ98qkXgXqywIYAAAAAACgiQjoIdbJZzVtVbEqfObRW9zHrLxLSzcUq0LZyvet9zvN2XxA5yP7GidtL9SKg+e9u2kV1ujM4Qy188xn945OPL9UFRqmgZE57wqU8cHSpg2R3fug3l/zgRQzj94mdTOzAAEAAAAAAHxckZ2d/Y250REMBlVZWan6+nqzqEW11naplbcNAAAAAAAA6Y8MPQAAAAAAACCNENADAAAAAAAA0ggBPQAAAAAAACCNENADAAAAAAAA0ggBPQAAAAAAACCNENADAAAAAAAA0ggBvRQrLy9XfX29uRkAAAAAAABICQJ6AAAAAAAAQBohoAcAAAAAAACkEQJ6AAAAAAAAQBohoAcAAAAAAACkEQJ6AAAAAAAAQBohoAcAAAAAAACkEQJ6AAAAAAAAQBohoAcAAAAAAACkEQJ6AAAAAAAAQBohoAcAAAAAAACkEQJ6AAAAAAAAQBohoAcAAAAAAACkEQJ6AAAAAAAAQBohoAcAAAAAAACkEQJ6AAAAAAAAQBohoAcAAAAAAACkEQJ6AAAAAAAAQBohoAcAAAAAAACkEQJ6AAAAAAAAQBohoAcAAAAAAACkEQJ6AAAAAAAAQBohoAcAAAAAAACkEQJ6AAAAAAAAQBohoAcAAAAAAACkEQJ6AAAAAAAAQBohoAcAAAAAAACkEQJ6AAAAAAAAQBq5Ijs7+xtzoyMYDKqyslL19fVmUYtqre2K0eVRrZkwQG11REWrntJ6s9xlcv5a5fdwbThWrElFv3NtQEsLTC5Wn17SuQ+W6uO33jGLAQAAAAAALgoy9FoBK5h3Xvs3F2rSKvtFMA8p1ObWTbpp3gsKmAUAAAAAACDtENBrTief1bRVhZrUYHbe3erbQ9KxbVp60ixDaxJeP07vLxh3+WbndX9afecV66Z5m9Stu7vgFnV7qFg3TZ7m3ggAAAAAAJoJAb1W4nzNEXMT0Cqdq5FyfkjwDgAAAACAlsIces0hMnee7ewBrdjwrN7z1rLdrcUzxqnrwRc17b1dZmHCshYe0PTh1Xoz7zVlbZ6joR3sgtqdWj1hsqrclWeWaN7E3Oj70o1aMGO2u4akJbp3613KibwPa/eSASouidYYtKpct2mjFmzqqYdmj1Cmvb1iU1CvrIzWi9R1HbJm12I9/+TqyPushQc0/YaDWj3hqMa6jmvWi9Qd7ho86tv+2Hp++0qEM3ee40TROFXsdddwTFPOvAJ1i7yvU8WaiTpR6anUuO5Pq++0G3RqzUR9+UPXsWs+0P7nn9JXnsoNHdMsM5Xp0IIHFTY3x9P9afWdNkz64APVDeuoM5HP3qJuDz2mnDMhvb9+TaR6m1s3aeCwjOjnD/uUX/uJ9j//V3V3tdN/jkLzu8Rve+GykMYH67T3uSlatM0sBQAAAAAg/RHQa2aT89cqv4MZ0Buuxybdr4HtPVVdzmv/5plJDcF1B6+igSs7KOcKeFn15ArOxdaJu21zT5W4goPRIF002Bd3/+7A4tj1VgAwpl0Bb+DQDjy6A4Sx+7e2jT0+wBNEtNpWqjfzxmqf65hqYlBPiga06nwDenbAyRO0mqach/5RlTFBuEbYx2nnCW757H/wC7opv7cnAOYE0cygo7W9Km4QLCGRgN5SHe30mHqedo5rBvTs95nuoJvdfldQMhrwcwUh7e/kab/ruM73tIKsfkG9Qi0LjVdQUt3u5Zryyx2eUgAAAAAALgUMuW0Ru7R0g7MARrEqJJ0/+GJ0QYxVyQXz3Co2BV0Bq9k6WCqpS09lSZKWaOzwgGp2veDKtJutVzaVSrnjNG6svWlsT2VKqtjvznqbrVfMTD8pJnOv6sliVSig3DHTJUlZC8cpR6V60/3Zksn6/a6w95i2ik2uLMCVe1QhKfMaa1+S1L1LQKo9qH2uTMGqJ73BPI1dr5tzpYpNdjBP0WNmDr9Tg1xVU6b7PypD0olD0Qw0aY0qkg3muR0OuTLV1ujMYUkd/1FtJCtoNrK3UUf66q0VqqiRuo182q7XPML//YF07S3+xxhcoJzMOlWscQfb1qiiqEzKHKbugz21daLIlcW4d79OSMroekukPPDDYWpX84FKXd8zvD6kE+qtnrdG61nW6qNySarTpzsJ5gEAAAAALk0E9C4pYZ0q9W7ZNyOoBU4wbeYQ5Sis0m1GhlpptWoUUGdnSGzJUdVIyplYrntneqvGMIJrUplO1UqZXXpLmq5BNwSk2mqZo06rth30HlOSVKqDxlBdU+XJsNRhhKZvXm8HKWNljemnTJ99VR2vltRVWUYQMSUq/6o6Sd3yi5VjBKyayhscNHS/RZ0zpXOny4yCd1TzeZ2U2dE/2JYqlU/p6JnY4JwkBfr0llSlL82T7hOsk8p0Jibb0W2aOvaSzn3+jhEYLdOXNVK7Tr09WyVp7awCFRQw3BYAAAAAcOkioHcZybqmq6SAhs4u17ytrpdr/jvLbL2St1i7a62gnlXvQEw2XcJOHvXJ7LO4s+8SUfXkAC3YVGoF9Zz2r1riqdO9S0BSrm5zf8et5d55A1NujSoWLLWy4/KLdZPvarCpV1dtzjXnyNJ3mvnY4UNl8TMBa87EzUz0C8LFZWc+thv2mN2nzusx5XgvWgAAAAAALhsE9C4jVoZaWLuXBLUgL/blXchitYon2GVLdqpGAQ2dfQFBvThqjjdhPruVYyNtfrNUUu5dnqBe5cmwpFK96fMdF+R5F/ZIrXd04vlxen/BOL2/5gOdU4ZypjV/UM+fT4Zcqu0NqUI3KDPJ7xebVdgAO/Px3AdLrX41X65FNgAAAAAAuFwQ0LucmENrE1UyWc/bQb1GPzv2B8rt4My/t1r7PglLuUNi5q2LNyw2Wftm2EG9yDyBzTy0NlGVT+ljO6jXLJlyle/oVI3Urc80o+AWZV6bIR3e71ks4qvqqmbI2ntHNZ9LnQd4M+7Ch8qkTJ9A3+CB6qY6nToQL6vQT/yhtfEULgspFFqnuWPMEgAAAAAALg0E9C4nJZP1x1IpZ2IjmXYzS/TQQu9QWCsAFztHn9d0jZs5Qpm1O1ViB+qsRTJydZt7WOzY9frp8IBqdr0WXbQiIdM1bnOJERxcon65xrDela9pd21AQ2ebdZvR4BfU11igoc2AG9ROdc2UKfeOTrxXJvUq8MzZ1+bWB6wFKf7byFyrPGNlDP7QDABemK/eekt1w25VZ/fGvSFV1GQoZ6J7OO405eT3lg6/FV0AIyHR72n2r79C9Q9KUoauHzHKLAQAAAAA4JJwRXZ29jfmRkcwGFRlZaXq6+vNohbVWtvlGDlypR7o19bcLNmr2U57b5dry91aPGOcusZsT07WwgOaPlyeFWfjseoGvBtrd2q1ayXa2DqlejPPtWqspEGrynWbmbFXulELZrhXx5WkJbp3613KcW2p2OQd4msdr9o4hvW5zF2LXSv3xu6rxlMelXj7GjJNOfMK1M3cLEkq06EF0ZVc29y6SQOHZcQtT1j3p9V32jDVFY1ThWvBiMDkYvXp+IH2u1fOHfyCbsp3Z681cMxk6vqx26UPlnpW1g1MLlafXtaqvNEhsLeo20Peee7OGZ+z+qvKaIPV3xlGXefY7aJbJNWpYo1rhVxb4bKQxgfrtPc5FsYAAAAAAFyaCOihyQatKtdtXbyBQAAAAAAAADQvhtwCAAAAAAAAaYSAHgAAAAAAAJBGCOgBAAAAAAAAaYQ59AAAAAAAAIA0QoYeAAAAAAAAkEYI6AEAAAAAAABphIBeigWDQV111VXmZgAAAAAAACAlCOgBAAAAAAAAaYSAHgAAAAAAAJBGCOgBAAAAAAAAaYSAHtCAQJfuGvfw08q7b7ZZBAAAAAAA0CII6OGSlXffbI17+GkFunQ3iwAAAAAAANIWAT0AAAAAAAAgjRDQAwAAAAAAANLIFdnZ2d+YGx3BYFCVlZWqr683i1pUa22XWnnbpCW6d+tdyty1WM8/uTqyNWvhAU0fXq0388Zqn1E3J/I+rN1LBqi4JLLBZtYr9d1P5q7Fev74nZo3MTdSUrEpqFdWRt6mRO5Nt6j/j/6P/q9vfdsskiSdrzmt915dqfDJSsmn/t+++lJ/+v2/68ThQ5I9h97Ie2bq6/rz2vrbJZKkbr366Ps//Wd9u813VPnZh9r5u1Weum0zO0mS/vfvf9NHb/9/Vfr+O/bRrWHAknTkwPue436+6219WPKHSL2LL5nz1Ng5t1jXVSC6oXSjFsyIzkWYtfCApt9wUKsnHNVY1/5qjOtTkjR2vR6aPUKZkQ3GMceu10Oz+6l0yQBVTSzXbU7za3dq9YTJqop8Tj7tj3Ntzyzx9IPZfgAAAAAAWgoZevBhBzxKN2pBXtB+FavzzPXKclcbu14P2UEgp96bpbm6bWuJBrnrScocPkfzJkpv2vVW7worZ+IBjRtrVLxApe+/oz8s+rlCTz+gmqqjOl9zWiUrFyr09AMKPf2Aip97KhLMG3H3DA34f09U2Z/fjZSf++KURtxzv3JvusXcteQK5knSH//jhUgwr1uvPrrl//Mv+rr+fGRfJ8o+Uf8f/Z+YfWVm9VTfH+Rr56svKvT0A6r87EP1/t4PYuq1hEbPU4Ln3ArmSbuXONdPUKtPjtO9M12VJKnDCE3fepe0ya63qVSZw+d46mUtPKB5s0eoxqkTOaZ5/QQ0dHa5bj7ptG2jKjqM0PRVViDWkti1nbXwgOZN7Opq/0ZV5N6leZ59AQAAAADQMgjoIdbYnsqUVLHfnY00W68YmU6DJo5QZu1O/d6VTbVvxkZVKFc3L5zuqmlnSrkyqqq2HVSNAursSoC6mLr16qMu2deq8rMPPZlxB99+Xf/7t/9H2QNu8tSXnYE3+LZ7JMmTxSdJvb83WrI/7zi4dYvqz9bG7Ot///43ffxuUeTz1eWfSZLaBqL5Z437gea/WqSiojivV+frB+ZHEtHIeUr0nHfvEpBqD2qfK+ut6skBvhmZngzAla9pd62UM9AJnC3R2OEB1exa7PmsdcyAhk40AmylG13ZfbN1sFRSl57RYF1C17ZzzBdcWXuz9cqmUil3XMqD0AAAAAAAJIuAHmKVHFWNpJyJ5bEZVRFL1C9XqvnkXWM4Y5lO1UqZXXp7turkUW+9ksl6Ps8cynnxdOv9XX27zXd07nS1Z/uJw4d07otTuvKqtp7Vcb/97f+XRt4zU1d+p21MMC/Qpbs6dL1G57445dkePlmpr+vPx+yr/mytqg//JfK+ad7V/HvylZ8f53XPfL1rfiQRDZ6nxM955cmwlX232cjqjFGqg55rYLWqTrqCcDOHKEdSzXFjCK5fsC4mUOcjkWt75hDlKKzSbcYxS6tbNAgNAAAAAICDgB58zNYreYutTKmJ5Zq3tVzzzOGNdqZT5vA5drnzmqOhHVz1WrH//fvfdD5cY26WJF35nbb6Tvtoxly7zllqm9lJX395Xl+e9X7mO+0zdeV32iozq6cKnlrheWVm9fTUTWtJnPOqJwdowaZSe0itXa/Jw1XDOlVqbrN16KpoqDQRjV/bWdd0jQzf9XxPzxx+AAAAAAC0HAJ6iGO1iifY84ct2akaBTR0tivwYWc61bjmUvO80nzxADNwV1N1VAf+f5t0VfsOGnnPTE/G3Zdna/T1l+dVU3U0Mn+e++Wety91mmnIbUOSPecrx0bK3iyV1Bxz0NVWK/mebfjarjpebS+U4fMdWzCrFAAAAAAABwG9y950DbrBtRKpn5LJet4OfESHG8YOs0yJMXO1LhRSKLRMhWZZkr4MfxGTaec4UfYX/e/f/h91DV7n2d6tVx+1u7qzaquPxwThSt9/R2V/fldtMztp2E+irYs3tLZ5NdOQ2wY1/Zzvm2EH9YwhsrGMYb0r96hCAeWOMeZkNOs1ld+1zdBaAAAAAEArR0DvsmIHZG74gR1Uma5xm2OHS2pmiR4yFrXIGtNPmZ6hj6tVXFIq5d4VU/eCBK9WhvV/lPfEKLM0KedOV+vbbb4TWbDC7cThQzp55HN1632DZ3XZfj+6Q5JU9uftrtpRH5b8QZWffajMrJ4acfeMyPYjB97XVe07eAJ9l55Ez/l0jdtsrnRsBeBi5ugzDFp1l3JUqj+6FrYo2RVW5vAHPcNiY+slKJFru2Sy/liqZlmFGQAAAACAVLgiOzv7G3OjIxgMqrKyUvX19WZRi2qt7VIrb5tlie7depdy7Hc1uxbr+eN3at5E6U3X6qZZCw9o+nB35l6ppzxi7Ho9FDO3WFi7lwywVwi1j1e6MXZIpq9RmvvSIxockOp2L9eUX+4wKyRlxN0z1P26GyPvz9ec1nuvroxk3zVWHujSXSPvmamv689r62+jw0Xz7putzKyeqqk6GtnerVcfff+n/6xvt/lOpJ4kfb7r7chKunn3zdaVV7X1HCP3plvU/0f/R2V/ftez4u7FlcR5avScK+Y6k3OtuQJwsdeYvcqusZqy/Oqa9ew21bhXzJU0aFW5buvirRuzrzjXdmw9n+MCAAAAANACCOilWGtuW7oY9cQ6PTI0Q+VvFGjWy2YpLhVWwKzaN5gGAAAAAADiY8gtWpcxczV9aIZUvoVgHgAAAAAAgA8CemglRmnuSyGFHh4s7V6ugllrzQoAAAAAAAAgoIfWY4cW/axABQUFFzxvHgAAAAAAwKWMgB6AFlH15AAtYP48AAAAAACSRkAPAAAAAAAASCME9FKsvLycFW4BAAAAAADQbAjoAQAAAAAAAGmEgB4AAAAAAACQRgjoAQAAAAAAAGnkiuzs7G/MjY5gMKjKyspWNydca21Xsibnr1V+j+j7iu2FmnPIXQMAAAAAAADwIkOvBa0vKtSkVYWatPmAzpuFAAAAAAAAgA8CegAAAAAAAEAaIaAHAAAAAAAApBHm0Gs2w/XYpPs1sL3z/rz2b56ppSe9tSRJXR7VmgkDVN3AHHrmfHvnD76oae/tcleRdLcWzxinnMj7Iypa9ZTWe+pYRj2xTo8MzVD5GwWa9bJZCgAAAAAAgNaKDL1mcbcWz7hfA2uLrTnyVhVqxUFp4ISVeqyLWbdxVjDviIrsfU1aVah3Mqd499XlUa2ZMU5dD74YqVN0LFv5M57WZFc1yyiNvi5DkhTsV2gWAgAAAAAAoBUjoNcMRo4coxwdUVHR7yLb3ntvnfafbauB37vbU7dxw3VNB0nHPvFk2q0v8mb7Tf7eALU9e0AvubL21hcVq0LZumXk8GhFSdIObf+sTpJUfnCtUQYAAAAAAIDWjIBeyg3XyOy2MQE4aZeO10rq8A8a6dneGPtzPcZpQ368YODd6ttDOn9kl97zbD+imrNS28xsz1ZJ2vHLKSooYLgtAAAAAABAumEOvZQz57EznD2gFRue9QbeEphDb+TIlXqgX9vIe88cevbno6WGY8Wa5MoWBAAAAAAAQPoioJdy9mIYtUkE0RII6EVFF9uIBvWsIGJX34UyAAAAAAAAcClhyG3KNXVobaJ2aemGF7XfM5Q2/tDaeEY9sU6hUEjLppolAAAAAAAAaM0I6DWD9X8+oPPtB+iBuHPeJeNuLZ70qDc42GW4rmsvna85Ym/YpaX7jkg9xmlNzAIYfljlFgAAAAAAIF0x5LbZ+M+lVxEZVutfbjmiolVPRRfV8JkjL7ofF5960nnt3+xdEVd2ht4jQzNU/gYLYwAAAAAAAKQTAnoAAAAAAABAGmHILQAAAAAAAJBGCOgBAAAAAAAAaYSAHgAAAAAAAJBGCOgBAAAAAAAAaYSAHgAAAAAAAJBGCOgBAAAAAAAAaYSAXooFg0FdddVV5mYAAAAAAAAgJQjoAQAAAAAAAGmEgB4AAAAAAACQRgjoAQAAAAAAAGmEgB4AAAAAAACQRgjo4cJ0eVRrZqzV4j5mAQAAAAAAAJoDAT1cnro/rb7zinXTvE3q1t1dcIu6PVSsmyZPc28EAAAAAABoNQjo4bJ2rkbK+SHBOwAAAAAAkD6uyM7O/sbc6AgGg6qsrFR9fb1Z1KJaa7vUytsmDddjk+7XwNpiTfrzP2jNhAFqa5ecP/iipr23K7Zue+f9ee3fPFNLT1rvJuevVX4PV3VDxfZCzTlkD8mdMEDVznvb5Py1yu9wQCs2PKv3JKnP09owuov2b56p499z7/uIilY9pfWSpLu1eMY4aXuhijqu1AP9nNa76ySo+9PqO22Y9MEHqhvWUWcWPKiwZGfoPaacMyG9v35NpHqbWzdp4LCM6OcP+5Rf+4n2P/9XdZ9XoG729nMfLNXHb70TqWeZphxXHalMhyLHBwAAAAAAaBgZepejHuO0YcK1+mxzoSatKtSk7UfUtt/9rnnw7tbiGXbgb5VVZ8VBaeCElXqsi1VjfZH92c0HdN4O4Dl1J63yBu8S11YDJ6xVvpzjvqj9Z7OVP+lRjXTVyhm9Vg9kbmuwTuLe0ZnDvdXz1lvMAps1BHfgsCodWjBO7y8Yp/cXhHSiV4FueuhptXFXzRymgfNu1Zdr7HpFZWo37DHlDHbV6f60+s4rUMYHS+19jdOhw73VZ94LCriqAQAAAAAAxENA77J0REWrotl2OvSJKiR17ThckjRy5Bjl6IiKin4X+cR7763T/rNtNfB7d0e2NYfzB1/UpMhxd+m9I+el9pnKcVc6e0ArGquThPB/fyBde4s3OOcYXKCczDpVrHFn0K1RRVGZlDlM3d3BOkkniibqRKX9Zu9+nZCU0TUaLAz8cJja1XygUlfWXnh9SCfUUFARAAAAAAAgioDe5ehsjSo8G36nOasK7SG3wzUyu6107BNjCOsuHa+V1OEfmpgJl5jqM+5hv9J7783UJGM47fkju6xhuqlS+ZSOnokNzklSoE9vSVX60gnSOXyCdVKZzux1vY0xTR17Sec+f0dfebaX6csaqV2n3p6tAAAAAAAAfgjowZCtzPb2sNwZaz2vhubMS3fhQ2XqNtIYQuuoOWME4KKSCsJ1/0dlSGo37DHdNK/Y9XpMOZlmZQAAAAAAAH8E9GA4opqzko5F58/zvJxFLC41e0Oq0A3K7G4WNOzc6TJzU3yVf1WdvVCGM3+e5+VaZAMAAAAAACAeAnowJDm09uT/qNo1/15i7lbfVpft945qPpc6D/Bm3IUPlUmZPoG+wQPVTXU6dcBcwbYhDK0FAAAAAAAXjoAeYqz/8wGdbz9AD+QnsgCGldHXtt84TTaLFA345fRy9nW3Fs8Y1+QFLJrTV2+9pbpht6qze+PekCpqMpQz0T0cd5py8ntLh9+KLoCRkHd04r0yqVeB+rIABgAAAAAAaCICeoh18llNW1WsCp959Bb3MSvv0tINxapQtvJ96/1OczYf0PnIvsZJ2wu14uB5725ahTU6czhD7Tzz2b2jE88vVYWGaWBkzrsCZXywtGlDZPc+qPfXfCDFzKO3Sd3MLEAAAAAAAAAfV2RnZ39jbnQEg0FVVlaqvr7eLGpRrbVdauVtAwAAAAAAQPojQw8AAAAAAABIIwT0AAAAAAAAgDRCQA8AAAAAAABIIwT0AAAAAAAAgDRCQA8AAAAAAABIIwT0AAAAAAAAgDRCQC/FysvLVV9fb24GAAAAAAAAUoKAHgAAAAAAAJBGCOgBAAAAAAAAaYSAHgAAAAAAAJBGCOgBAAAAAAAAaYSAHgAAAAAAAJBGCOgBAAAAAAAAaYSAHgAAAAAAAJBGCOgBAAAAAAAAaYSAHgAAAAAAAJBGCOgBAAAAAAAAaYSAHgAAAAAAAJBGCOgBAAAAAAAAaYSAHgAAAAAAAJBGCOgBAAAAAAAAaYSAHgAAAAAAAJBGCOgBAAAAAAAAaYSAHgAAAAAAAJBGCOgBAAAAAAAAaYSAHgAAAAAAAJBGCOgBAAAAAAAAaYSAHgAAAAAAAJBGCOgBAAAAAAAAaYSAHgAAAAAAAJBGCOgBAAAAAAAAaYSAHgAAAAAAAJBGCOgBAAAAAAAAaYSAHgAAAAAAAJBGrsjOzv7G3OgIBoOqrKxUfX29WdSiWmu7Lkndu2nMz7LVLrLhnD596ROVVnpqXToGZiv/nzIa/Y5Z93xPQzoe0bYVJ3TOXRDprxPas/iIqtxlSWuj3AcG6PoOUtV//ll79pvlLWBgtvL/qVv0fflfVPRq2F0j5eL2dbOx+/1M83+3eLLu+Z6GBF0bLkI/N4cLPnfO9VZ7AftoSalsf2PPlha4NwEAAAC0HDL0EJ/zA7L8Lypa/Gf71XCgCwno3k1j5nxPQwaaBWlg/xH7OjigT2vNQqSCFcw7p09fcu65PxOYQeO4NwEAAIDLCgG9ZhPQEHfQZmC28h/o5sp0S9DAbOXP+V7Ma8yP25g1U65d/05qp3P69F2CCQmrPKFti/+sIr8MmqR9pdIVVkCnVWTn4SII6JqgpPJjBM7lClJdaHZbS0ll+1P6bAEAAACQ7gjoNatzqj1h/b92XTPMwiQY2Tr/eULthg5oWoAwaXU6R2ABuKjOnf7K3AQAAAAAQARz6DWX7t005mdX6VM7myLrnu9piJowp1GcOd3a/fgGjRnazphbLaAhc76rrEgtc64l19xg737HMzfeud0HtO2/vEEE6xh1/vM1OWLm2DOPabWp3e4D2lad5ZnjKdL27t005meddPylY+rws+8qy56n79wP7HnEmjT/VHT+OYffd4xtv3znCXT628PdLnM/Pm2OmRfNED2XZttj2xNlnnOzrlWu//yzPu3q/g7meZLPceP0mZTaeeYamfsrMg/bZmmIq4/95hU0z1Pc9jd4TL/vFu1nc5/meTXLk+O6X+Luo7Fz7r53q9TOfU59rsuEmNe3zzHl0/+S65jJ3OcNnh9bZH+ufaip3zHR+ySB55kSa7913Zj7V/T8Op8x+77R7+d3/XqZ58n3mjWPG2Gc+wS+q1J+nwAAAAAgoJdqcX8ERSX1QyZOQM/5EeUNimVLrn3H/mB0B2xcP8rc+5Lx48zk+rHmF1SMzv/ltNcdfIi2xfqsrHqyfpirVjq+uUyaMEDX6JzanTmmokNX+3//RmTdc4PavRv7o9PT92YfRrZ5jxfbjw1P9t9QmRQ9V+d8AlIxfNrjLfN+p9hz4ur/yLmzrwN525hQn0U0HjRIhPMj3zwHQ3TEuKbkuWb9gs0x58nnnnDvL/4xze/m9GFs8CXmmH792KjYQKpX7L3a8Dn3BmyidY1AUcICGvLAd/Sp51ox7/N4feG6F+wAXHL3uXkuXFzP2pR8R+c+iQTM/O6TBJ5nibbf7/kT2e7XFwk8W6SGj+l3nvzuk5htzjXqPb+x39u//2OO2aT7BAAAAIAbQ25TzZnn6D9PWD8MXZOUn9t9QEWL/+wTHEmeNYQ3OqQ36wfZald7RHtc+6569S+qUjddHzPf3gntcS9usf8L60dp1zauidX/rG27z9l1/SbnD+j6oe10bvcBz49R65jtdP0PAtGNsn8ku37MnfvotM6pnTpEYoft1O5MdN6wdh3qtCdyLHe9xFS9avxQ3F+lT2uldtdm2sHWNsod2U0q/0vDQbXu3XR9UKr6TzOLpqVF2+++ns79V5k+rZWyRhrDsWuPaFukP79S1efnpA5Xeeo03mcpFulbI6CxPxrMi/IGj6zrp5uuceao9DtPlSe0Z/c5tRuaFc1mS+qYsgMZ/sE8qY3adZRUbt0/jph+bFR0rsSixX9RlR2gitxzkXs1yXNuZ41F64Z1vFxSx+/E1GtYWHuMAFLVu0d0Tu10TX/72eLX/75Se59LVqD6wr+jzZP99pVK3zshdeikrO4+9Rp8niXAfu5m9fE+K7P6dJNqT6sqqWsoQX7nyec+seZPPaFPI/1q94X7nov8N6DMdb2Htec/T0jBHsqN9Fmq7hMAAAAAbgT0mol3zrw26tBBOld94YE8ycrgGOP5IWVNpH/u8xoja+Mr1dZK7ToZAb3aeqNeWHuSDTQOvNoafhjzneL8oD7zpfeYduDTEww85MomiWnjhfpK58643nbP1DUdjGP6cH7YHvcN9rQgu/2xc635B+tir41EGH2WYkn1bSMBjnj7OlddJylD7ezgQrx6/r7jm5UUZfdP8LvKv8cIYDeHJM+5O+DvqHo1VQs0eO/nZPo11fd5Y/dwMmLukxP1/oG6BJ5njQvr093npKD1LLXEe5anRrzzFHOfdIoXDnVdUwOvVpbO6fhHxvUY02cX+T4BAAAALhME9JqT+aOvydrp+p+5Vrn9pwx9+pIrANfdCp61GzrAWA23oWF8qRAbMIiICS5cZN27aYyxMnBD89elq9iAqiP64zxhF7nP2nVql5KAjiIBiG4aYq4IbQwfT+qYwWzr/mmgftWrdiZr8LsXbQXqlJ7zBLX78Q3Gs8U9hx+aKibTdODVyvJkxqVWoveJlYHpzu62s0NdgXXrj1bGf5vmfE/5PlNOtMR9AgAAAFzqCOilWNY99o+Voe1cP16sH79Z//Q95c/JbsIPYWOVW/dwWUWzZbzD9PyGyV5EDQRBmp0zt1b5Xzz9sKfcrHgpS3J14hbos3On/bLKmubc6XOxw8N97pekjln+FxW9dETnOmRrTAMrSp/7r0/s41hD69sNHdBCwYokz3mC3HP0RfvUGhqMC1RZo+O10WG3WX26xQxNTaVE7xN1s+6R6B+JzLkEnaw+879N0ZeZrdh67hMAAADg0kBAL8WqXo3+YIkE2P7zhOtHlN/QvQsVZ2htc9r/harcc2hFNO+QsURYw8rO6dN3Gwhk2kHQdl3d7bezUFzMoWhSdB6qJvM9dpKMQEBUG2Vd2y7poEBCfZZiVt+65+RqOt/z5CPpY1ae0Lb/PCF1yNaYRocLfqXSFXawojnuxRSf88TY+649ok8bGE7q2/8Xep+0AvGGqKaOPTdd8Gpl2c/OVA4hNvmepxjRuRo9QTpzqHbM0NpENXKfDMy2gogNBNEBAAAAENBrVp6hcc2aseb8KPzuRcx4sOZ/aje0t2vycynrHmsBgeYaMpYI60erO9jYRrkPmMNHrbn+3BPBZ90zQNfrnPc82YHL6CIfAQ35WbZUeyFn0w7AuhdrSFr0nA9xBafa/bi3ru+QfGAusT5LMXvRjax/usFzDWlgtuc7JWR/lT6tbafrf9ZIBmxTjrn/SGS4oPf+CmiIGXSIO89dKqT2nCfGnv/MvTBE924aYw65bZb7pIV176YhQ9vp3O6qZgiUuuz/QlXqpmvuuVpZjQROL1hC94l9zs15UE2VJ/Rpuc+9FCO5+ySrjx0h9FuMBAAAAEDEFdnZ2d+YGx3BYFCVlZWqr683i1pUa21XVEBD5nxXslfSbPfjGzTm2tOe4UoJG5htz5mXwIqAzrBJz0b36qBtrEn+jaFT8VhD7eriLAhgcYbjRXhWiVSkL7LK/xJ/6K/d7nP/+Wft2W+0cWC28v+pW+yqpI0w21X1n3/W8T7f05CO7vbZx7LnGTy3+4C2fZSpMT/rpOPu/vb0q9WfVf2959Q8ntu53Qd8Fhyx+8W1JfIdfc+jzexfu3+izAUcrOO0M9rgd27N7+DXZ1n3xA/yJXuOHDH7NK6VrHvM82ZeM5GqsftS7P7kV89Tx74uzvi0I2jU9TlXTe0Hi//58mj0nDvnUok9NxrlvU+s432ha8x2NnafJHGfx5wfF/M+8b0GzOulUbH3o3zPZQLPM7/ryyV2n9H6fs8K8750c9dP5pi+dT3fyb8/5LMv3/aZz6lk7hPn+jb3AQAAAMCDgB4A4DKXQCD1smEH83wCalYg0P1HIgAAAAAthSG3AADAYq+a7jcPqrWoBgAAAIDWgIAeAACwOIv2XJtpzHtnzSmo2tOqIjsPAAAAaHEMuQUAXOYYcuvlP4ee3xx/AAAAAFoGAT0AAAAAAAAgjTDkFgAAAAAAAEgjBPQAAAAAAACANEJADwAAAAAAAEgjBPQAAAAAAACANEJADwAAAAAAAEgjrHLbnLo8qjUTBqitjqho1VNab5a7TM5fq/werg3HijWp6HeuDUjcKM196RENDjjv67T3uSlatM1bq3n8s54rmqDe4Q/0q3vm612zuFn01L89erN66ahef/aPetksbrKAnpyWryFf/FE/CR01CxMyteAe3ZEt1e0r0v/9TtgsTk7/m/WHsT2l8If69ZqPtd0sR6xuffUfk29URqvus1vU7aHHlHMmpPfXrzELkaipyxS6PRh9X75FBbPWums0nx/O12v/MkwZhzcr/6F/N0ubxehb8vWLQYELerZMLbhHd1zdmu+NluE8tw+XvKp/+cgsBQAAQGtBhl4rYAXzzmv/5kJNWmW/COZdgB1a9LMCFRQUqOCNcrPw4jh19CIF85C8nvq3R+/Rf9wSifg2v2599R+P3qN/628WACny8izrmVewXHubFt+6YHUny8xNAAAAAJoJAb3mdPJZTVtVqEkNZufdrb49JB3bpqUnzTIgEbX6Iiwp/IUOm0URAT057R794dF79IeCnmZhs3k59Kp+8uyrTc6g8fjoj/rJs6/qJ2TTJO5EWCck6YswfYZLyvZTtZKkE6d8ni39b7aedcbrogbx09jhM2FJYX1RbZYAAACgNSGg10qcrzlibkJaKtMZn9+XLa5bT303ENaefUel7GxNNcsBoKn++6iqzG0tLqw9660/KPzk2Vf1k5KjyhiUrz9M66vRZlUAAAAgDTGHXnOIzJ1nO3tAKzY8q/e8tWx3a/GMcep68EVNe2+XWZiwQavKdVuXnVo9YXL0h9XY9Xpo9gjVbArqlZXRulkLD2j6cFemQulGLZgxO/pekjRd4zbP0dAOzvuwdi8ZoOKSaA1rP9V6M+81Zbnr1hrtSMTUZQrd3lV7n5uiY7eHND4yFVS5thTMknsmqFFPrNMjQzOiGxqaK8q1X/859Aq1LDRe0ZmnYo+XnB9o/qv/qmGnLt5cUokYfUu+ftG7Qr9eE9Ydj94sxZkbyZk7yeOIPYde/5v1h7HS6+u/0I8m36gMHdXrz36oHtPyNSTgquezH7+5mMw29bK3x8yJ5cyd53Adx2Qe170vZ86teKJ1XXMH/jFgzUEXU8dh13Xt1l3HbI/J7JeYNprftf/N+sPYDtqzvkjHbnbvO9XzJxq6P62+04apXWRDnSrWTNSJSuf9NOXMK5CKxqmy6yYNHOb0WJkOLXhQZow7MLlYfZwT7jic7Bx6S3Tv1ruUuWuxnn9ydWRr9Lk0VvuMujmR97HPM4tZr9R3P5m7Fuv543dq3sTcSEmF8ZxtnD3X5+ktKnijh9Y9PDh6ne1erim/3OGpXbjM/Vz0r2Nx7bfB52Iq59uz5g7Nev9XuvPpVjDZgOs+WXgiutm5v5z7LjKH3hvSfa773Lwv5XcvN+XeTOIZ2tizxSPuM9LZh8/zwZ5fU/H22Zgxc61r9oKvHQAAADQVGXrNITLUtlBFx8xCSRquxyat1YYZa7VhxjjlSGrb7377/VptmLFSj3UxP5Ma1o9dafeSoBbkWa/VJ8fp3pnuWkt079Y5GnpyY7TOLmno7AMaN9ZdT5JyddvWOcr9ZLFdd6MqOozQ9FVLzIoJyNDgh0Mary2uuaCCGv/SXI2S7B+qIT0ytFpbCuw58gq2qDw4XqFInSSMmat1ofHqunu5va8CbSkPanxomQrNumktoNG9A6orO6rtOqqPjki9rjOH3VpDcu+4+kP92sloebZIe2J+53XQj26/Wm8/+0cdVk/9aNoofbesSL/eF/Zk/jlDbX+y/kPVGXvwCNyoXzx6o75wMmnsLBrPXHPOUFvf9kRZP7iP6vVI+1/V2x1H6cluVvn2d4rs7X/UYfvHcSR7x29YcPbN+sPkHP2lgbZNLRglvRGbBeQM7TP74XCJq+6z7qCB1f+/GFTrav8fdTj7Zp+MooCGTL5Hd8jdLz11R0y9VJmmnIlS6YJxet9+HTqcoZxpm9Stu7dmt/xiDez0ll1vqSpqeqvPQ0+rTaTGLer2ULH6dPxA+yP7W6qKGs9uUswO0pVGn2cL8orVeeZ6ZbmrjV2vh+xgnVPvzdJc3ba1RIPc9SRlDp+jeROlNyPPx7ByJvo9HxMQHK/Qw9fr0+ei835mDH1EyyJptIVaFgppfKe9Wu48957bKw19RKFlyT+pRj2xzv4jh/EMbcK+0o0zTNcjcKN+4brPf70vrF5jb/ZkMY++JV/9P3Pdu+s/VF32zT7TFyRybyb2DG3s2eKYWnCP/jC2p/fZ8lm2/ZwKa+H7RyX1VH9j/s7RN+QoQ2H95ZMGHqoNGDXieisAGux/if33EgAAIH0Q0GsRu7R0g7MARrEqJJ0/+GJ0QYxVM5ttPr3uXQJS7UHtc2WmVD05wMjgG6cclepNV9Ze1ZMvaHdtQEMnxgbqKjYFXRkys3WwVFKXnt4fywmq273c9df+Hdr+WZ0UuNrK3pp6hwYH6rT3OXcG3VrNeqNcCgzWHUmOIy28fbAywnu12pXlsnbWFpUrqLwnkg4PJuCf9VxRkYrivZ7/Z/MDqWEPt3V+uL38mc+w2/43akggrD1vNDY/XUAq+zCS6ZGhCv02EgjroB528CwZh0tcWTQfHdFhSd06x8+k8xdQj6slHTniyUJ5OeTN0EnOUb3+bMNti9n/Rx9qT1jK6N0zueCa0//r3Vk0R/UvJUelwI26w/gxXrevyJXJE9b2snD0Pkm5Nap4/il95doS/u8PdE4Z6jzgFtdWSTUfaH8ky+4d1XxeJ2V2jAb0BhcoJ7NOFZu8+2tWY3sqU1LFfncW8my9YmQRD5o4Qpm1O/V7V7bfvhkbVaFc3bxwuqumnYXsytyr2nZQNQqoczRhLwnl2lLgyiB++SOVS+ra3f4zxhN5CqpcW362SJEn1bZFWr27Tgrmae4YZ2MiCnXH0AzV7V7tyli2n6FJ7ysxP3jqtdhnXeT1mub/0PxE8xnduYPP3HBhTybf9k8qVGcEwLa/U+TN2Dvxsd4+otjnaEL3ZmLP0ISeLd366kd+q9F+9Mfoe/u55f0jjvVHHh35sMnPxx07P7X+WFP+0QVktAMAAOBCENC7zFSeDEsdRmj6ZiM7JWK6Bt0QkEr3uIaZSdJqVZ30C9SFdarUs0H7ZgS1INkht7bqSu8Qsh2/nKICewhsYb+gpGodM4fOGj+AE1Oo/kGp7rPt0R/JkqTD+iIsZXRqjtDIv+vh/Hzlx3s10xDd0TfkKCNcoe3OD7fqL2J+sE69rqfkrhOXkdFxwYstHNVHPkN/kxfWsS/srLqYrJkmillk5Kj+xS+Tz8NuR5KmXtdTUq2Omf3vE0SUz0IAVvZhMw65NVX+1Tfz8tzn7zQYqAv06S3VfKKayFDdi6DkqGok5UwsNzKR3ZaoX65U88m7xnOrTKdqpcwuvT1bddKYM65ksp7PS3bIrS3mOlurWQUF9nDaURp9XYZPHSegkqGrXSNnGzW1v4Kq06c7jaG65V8kv68Evfv0nbHPusjrTs3/b/MTzaT/zfrFoIDq9u3wBrESeu7FshaOiNX4vdnUZ2jss8XKsmvsGWplZXuCj9166rsB6fBn/lMXJGTbIk0pKGC4LQAAQAsioHeZqXpygBZsKrWCelvLNW9rueZ5hsf2VucOknLvsspcr9ualH2SYj4/bB1JBeHG9FBXSRlDH1EoFHK9HtHgZJPDfNSdLDM3tRA7E8P9o/HEUf0lLPW6qbmGaLaMl0PWcDllR1e4NIenpVy3vvoPYyXNhubMa1BD13bHyGSWLaLNrZt007xi16tATUjGbCGz9UreYu2utYJ61vPMGB5rZ/FlDp9jPPfc84i2oNPHjD88RCXzh4xR3btGpjbwPPdc8/ddiKrKVjB/XoQ1/DVyb47toD3rGwvIx9NT/2bc5w3Nx5kSCTxbenUMNPjccLz8xw89f8Sx/sjzoV5vMBAIAACA1o6A3uVo5VjXHFF28C4S1LMyUuSZb8r1amLm3cVQd7qxnzUu246p2hniG5mPz/VqlqyDFhhya2diuINcf3jUnmg9kKPR6ROVSUh0njxrvj2/OadSxp5UPuOIM1+W9Xq9GRasrjvjM/fXRdLmVmuRixNF0Tn03l8QUhOSmlrQahVPsJ9hS3aqRgHvnKB2Fl+Na/48zytm0aDWw8xqbsiOympJda7587yvWc2Q4tlyQ26NVW7dw+eT0lP/9ujN6hV2zy9q//GguST4bDl8xhzOG4fzR5zrehpzqgIAACCdEdC7hGWN6adMc6Nh3ww7qBcZShtvaO2Fsha0CIVCrsnek7P2YLkUuF6jzXme4g0ja1BzDa19V/PvyY+z0uPFH3LrDMlyLxTxk2edRRoC+u4NVrDL94dh/xs9Kyyml7AWrrGDejHZbbXWuY/ZnhxnUvk9f0xg2NqJsE74DJ11vPzZUf8Aa/9s9TKH6F1Utyjz2gyp5gNV7jXLkvfVaWNOPTnz6rk3XAh7yoCGlEzW83ZQLzrnXZyhtRdqzFytC4UUavJCO/Y8oj4LD1iLEpTro2SCcM02tNZ6tj0cnX4wotUMuW2q/tnqJenw+x9ftABYos8Wa5GP2AUvYtmLY2Rna6oxp2qTOdf2ZbCYCgAAQGtFQO8SYc2N10+D7IwTazVb84ftdI3bbK7YaM0d5Z4Tat+mnapp8kq1cYwZrevt5gT7NfEHwMuva284Q4Onule0LdSy24NS+VbXJO+J2KFF28ql4HitS+UCGD+cr9eKilT06nz9wCy76JyJz70LRUjRjA1ngnVnIvgfOdls3frqP8Z2UN0F/ua7eHrq38xVXu3sxNjsNme+vRsjK+A2hfVjOhoUjawU7Dvk1g4iDroxZhJ9yZnwPqAht7u/Q0/929ieFzRx/YV7R1+ekZR5gzKdFW27P62+TRxy+9WBT3ROvdXzVnsxje5Pq29+ls41aZVbOwh3ww/sPz5M17jNPkNkZ5boIWNRC+uPHe75P1eruKRUyr0rpu6FiKwEqqD6+574xu345VaVK6jx7sDJmLmaPjRDdbtfT25Bgm2LtLVcCt6+LrULYEx/rvmyjFta9ReqMxaVmFrQvENuE3622Atl9Bqb732W9b/Zu1K4nPk4e+qOyTcqIwXPFFa5BQAAaHkE9JrByJErtWHGWm2YsVb5PSS1H6AH7PdrRg43q6dE1ZMD9GZpQENnW3M/Tb/hoFbnbVSFp9ZqFU/Yo36eOaLuUuauxd4hZSWT9XzeRlX4zKMXf1L5Rmzbrk/t4FD5waR+grrs0KKfLddeDdYjkfmfxqurZ2Vcd1ZMSKHbg945o15yBQNfnqWC5/ZKMfPopfjHbktpcOJzZ/VFOyvsxMf6v0uOKmNQvjUsd/LVevvZIr3dhAUePPNNTb5RGZJ6jXWG+97sH9BqwNQCY6iwa/hw9EfrUf3LG9J97jmnJt+oEyX+c2a9HCqyAmiuObaSHpr70R/1633haJ89mq+r348dFmcJa+GaP1o/qF1tjLbfzijUjfpFpPxmdfOsmNkywuuXqqImQznT7PnzpnXU0aYOua18Sh8XlandsMdc+5qoo2fMiolYreIJG1URmQ90jnI/WWzNEeq2cqx+rwc9z7Hpw6v1Zt4AFbtW+9bKsVqwZKcUM4+eMd9eEiIrgSabSeexVrMKtqg8ON4z5131G87CGZbCZcY8oK767qzotbMKtHy3YufRcz8bEWU/G93PnR+dKWreIbcJP1vCWrjmVb1+xJgv8Loj3lVvpejiGIr334TksMotAABAy7siOzv7G3OjIxgMqrKyUvX19WZRi2qt7QIAAGiNphbcozuyj+r1i7kiNgAAAJoNGXoAAACXtJ7qny3V7fuQYB4AAMAlgoAeAADAJSugJ6dZK/X+1mcKAgAAAKQnAnoAAACXHGc+03wN0Yf69ZqLt1IvAAAAmh9z6AEAAAAAAABphAw9AAAAAAAAII0Q0AMAAAAAAADSCAG9FAsGg7rqqqvMzQAAAAAAAEBKENADAAAAAAAA0ggBPQAAAAAAACCNENADAAAAAAAA0ggBPVy4Pk9rw4y12jDpUY00y9D8xszVulBIodAyFZpluCCFy0IKhUJa98Qos6jZtMQxL7pmu2ZHae5LIYWWNbTXv2vDa0f04fy/ezf3v1l/ePQe/aGgp6SAnpx2j/7w6D36t/7eammtW1/9R4t9pxbu0xb97peSnvq3R+/RHx69WVMljb4l33XfuNxXq4q3avWMdysAAABSiIAe0EoVLgsp9NJcXcJhHeCie2bFMY0IZKp4/rfMIpewjn1h/e8X1WZZK0bQChfZ9lO1kqS6M9b/Rvy2nXaGa3TXa3Wa7i0BAABAihDQw4U79JQmrSrUpA3P6j2zDM1v2yJNKShQQcEsrTXLWjEnE837Wqe5Y8yaLWftrAIVFBRoyi93mEXN5mIds0X7v4Wu2enzT+qu3m2181cd9LhZWP2F6vwCEy5TC+7RH6b11WizoP/N+sOj+Xqym1mAqLAWrnlVP3n2Vf3LR2YZ0ketvghLCn+hw2aRx7c06c4slQZO6f/f3v3HRl3n+x5/bTSHvR0dyq8CXkgZQFiVX/LjuFgK4VYSSC8l0o0/yjm0m/BDwl2CHK6uVI0Ry7p7ukjYSxAhWeAK/rgWA9hgAlxCC7IuUH6KKwud9pTdQlEso9MLJ5K9f3y/M/P9fuY77bS0tCPPRzKJM5/PfH985lsSX3l/Pp/idTfNRgAAALQDAj0AnSdUpTX5VoCVn5+vXUGfxi75kU837UqM8V9zTD/i8b+pp3/epNCfeqpgv9kWr/paSNJ1XbpitgCIsoPwK1+HzBZJ3fTEjnRpyGXtW2C2AQAA4Hb9JDMz8x/mhxGBQED19fW6ceOG2dSpuup1qYtfmzRRLxQ8pzHX96jgzw9o0+zRSrNbms6+rXmHj8S69lnmapeadHLHIv3uaqyLHnpd2ydnxt5f2qOC8vcdHWLm5G5R7oDY+7jzSbHruz/y3uOcrZD90lYtHe+Lvg8fWxOreppSrK1LxsqnoHY5q4QSfa5sFf9xqcb6I+/Dqlo7VyUHox2S6lNYWqY87VL+7gH2eSzB3flavtl5/gRCVVrzyxJVyqOvs81gjoWCu5S/3FEbNaVYW5cM11dr5+rSzDLlBezPvY5pnjdurJJTWFqmvF7m8SNjaB6zUKVleYpcVvw5rfaMY2s0t36WymY6errGdri+WrtfPZbkKWD/PtH7ddxrYaljDJzH8GD2dT1nEUmMmXmcxOc0x6INz1nC8Y9ch3lM85zm9Vvt2p2vnf2dz1qivy+b1/MV1dI5Lea4SR7Pt12dV/zzf9IH0z2q85JUlP+sZvU4rbc2faEKZ8PISfp4Wncd31auN67Y/XRITx7y6905o6L3W703vjqtKP9ZzXL8M6raQ3qyrC76dvLUXD3/6HXtXH1IscdhoH6/bJL6nijXvxwIxR/DED1v30f07pxRurL3PZ0Z5vhOyOOe7HMMjr4PRe/P4tfL83I17tv4+wzb1+XqF/130TyOJfE91Bn3Hhlvx5ptxphZzOu3eP0GLTPvwbxHh6SuzTye95hYv33spJ7ntH/T2L8tHuPlcSzv6+oIt7T9w0t6XL1V8pRPG81mAAAAtBkVenejATO0ffaDOr+j0JoqW1GrtBHPadVDkQ7PaNU06Y8b7PYNhSq/lKYxs9frhT6O40Sm2m54Wye/c3xusMK8WpU7jncgfa77WHpGqxbaYaPdZ91ZxZ8zSYWlZVo6vkG7ItVHa6uk8UtjlUcHSzR3d1BSQDnRaqRsFRd5hHlTirW1bKnGylnNtFGa6VzfrlClZUs19ptdRrWTxxTGQJ7KlgzXV2sj/cIKzLT7Raci5mtXML6CKt8Zfph9PVmbBLjGIn+XgoE8j/X5rOq4nG/WxPr5x2qpc4MBO5DRsUiffOWv/VY5zW5C0BqVuvSN8dGUYm21w7rIOXcFA8rz2FDBN36pymYqeq+usbUNL8rRt2vXqCrk0/CirXbwFZT8wzXZ7heZ9pq/tkrh2FfjWGFS0DG2+drfa777N09yzJI6Z1GpyoyxiFTVlRYZfQN5KlvSQ/ubGQsvW3ZXKSyfhj9uPx2tGP/AzDIt7bXf7rdGVaGA8pzPWVLPbLLntJ7tvF7Ov5E1qvLIWKRbmvpwk3Txp20O81otc5I+ntND+1Zb00zfOhHS4GnuabmTp+Zq5Hmr/cnV7+nJbacVzpwUv8FACzaXOb5vh1bRY3pMcR08zQ4cV7+nJ1cfUrV/lBZMdYQ9IyfpYzswjBzjrRPSuDke6/NlTtLHcwbpL9vs8+2tk+/RXEe/2FTbJ/cmDpCi9xB9HVK1pOq97nBq8tRcOzx19DPHrO8jete4/sjYtEVRfra023Ft9j2+6xyzyJTsaQPd438+0z1mfR/Ru8tyNU6n9Vb0XiulSe6p3EX5z9pBbuz6ZZ7TDvPkus9v9YTx/Fhhnhxj9p7eujYq/rfsEPfowLk0yd+kqTlmGwAAAG4Hgd5dqVblGxyVb1+eU42kjJ4T7Q/e1wpjPbxtfz6lJqVp2LBIn2RN1H/tLunSOW1zfLqt3F15l5U1RYNUq3JHhd/hw1t18rs0jfnnZ2IdkzGlWDkBKbjbEcodLNHGY2H5xs+KBQKbl2vNsbB8460AJvul+RrrD6tqrVE5NXOsfHGVRJUqWR57n/1SjgIKapejKqjyNxtVFfJp7Ewz9nBXP1X+Zr+CzgClPRXN8rinLVq+Oyj5x2qWGQIFdzmqy7boTFBSrwGxQCbQQz6F9dVnjpqqgyWaa1RDtV22BvRyr88UGf+Njqq3Lct3KegKY22hKq1xhLGVn32lsHzqEa3g8sn3zf7o2Pv8DY7fzNkvGfa1Bs+4npcty43KzXYbs2wVTwkYv1HkOZMCU8yA1v27x49F83y9rNqmVo9/9L4qVXE+LPl7xFVJtSSpc0ae7c2JKvwccm5ohF+6cKqb2dKBQjq+LRZGVZyrUVh+9ciI9ag4UO4O2658oX21kjIzZf5ptitXdVadztRKviED7UDJr5cfGyjVHnJVg1UcqNTxkDT4MXMNwTrtXO2oLjtTq2pJfXu7w67WKsqfpMG1h4wwcqBmPepX+ESlo5qtTv+2t07KHBUNS4smjZIvdFrvmNVsbbS5zKieO3Nax0POMbPCtScyPSoAz7jvIXJt7orIkN4oc7yPHssRZl75Qu+cCMn36KjYs5HRQz6F9Jdzjvu88oX+xai8G9zTL4VqVOG4h7hnrwNtrExTSE3KGGK2AAAA4HYQ6N2NvmtUjeuD97ViQ6HHFFiHq39X2zZ7PKK/XberAnMTBXMTlZWZFhf6Rb/b/QFluT5vXvbjw+VTUGeMOUeV9Q2SMjTAUaEUDd2WlGnpeJ/CxzYa02gLNTIghc9XNBMaZGvyMF9csBOtNnMGYpIU+koVrnNU69tQLEBpT4UjApIadMl1PkmbzygoKaO/O5AJnm0hZAp+q7B83pWH7aCwdKkR0iQa/wRj9s0ldz+7Isw5ddV1jy0u7N4c+/cN5KmsuQrF9hqzKZM13C+FvzGvOEFwFvecJengJcffeuvGP75fWyR3zsIRgeTvccgP8itNDRfNhg5kBCjJstbu61jV5xNXyqnvQP3M77U5SEgVF0Mez5n5N1Snf1v9XvzU0NYYOUmzMkM6fsi4zpGZGmwGWIqs4xYJSwdqZKYUvlhnTCFuT5FdkGMmPzxIPtXpTLMhWXLXluhY1o6y3TUgUuVp3/e4Oc1vyFJ9LST5R+l5rw1d7oT996pBUsYDt8wWAAAA3AYCPXjKylqv7Qu3OF4zNMjslKRt5YVad7bJCvXs423Kclb6ZSr9fjv0c53Tve5esgb38kkKKM/cwdOxrlpMpUo221McjYogSdKUAcqQ1FDfXEwxWD38drBjnDNuba/OEPc/3DFmINOigyWam79LQXt6rnWf8VMvk+Yfq6XO8epVpTX5jgo3e/x945caY+tcq7DzbFluTWV1/vZxG0q085glfhbdYXWb2WPu/O87Ov6dcc5OM1C/X/asPna8XOucdSLvTQ7kDpQ6xED9ftpAowrPMrl3d0l+jZvjHrOPXWvIdYC+j+hd43cy1/uzquAS/1srSerrV99mx9YyuKffqkY0zulam092Nd7qQ6p2jcmkuOrOigPl1nRn/yg9HzlWK6d1AwAAoOsh0EOcrKz1WjwiTTUVsTXvCjbsMar6Wufw4UWu9fbSRjznCPVq1fidvamGY5296MuY/tuS6m/C9gL6sXXNYi9zI4tClS4ZK18wGL9enGLVSmYlm5tVOaRgbP081yvhov+dL77aKxlbtDxyb/Y6hF7rqSWluTUCFRv/sHP9Oeer1dNW21/lb+ba12Ot3+ZzrtUY1Y5jlpBHJWZbBHrIF6lk7Izx74xzdgp704aQcy01a629rq1jd/4tyrfGxGu6rFWhFnKtBed8dcgU0simE7WRNQet185adzerCq6F6eVXQrqSxHRkq0qzLrZ+nutlbp5hVUQ+uTqyRuFAzfII9XQmdv07a+21Dwn1AAAAUhqBHgz29NfvTqn8S7OtPRzR77bboV56pMShbVNrE/GaWptIYWmevfbdcu20K63cmwvY0/yGTTbWJ3NKMLU2WfZUSnO6a/U3HtMoW2nLWfdmD1FFIxUw13Vri83L7YDKe7wLSxNUrSXNe2pn11Spkl/aoV5z19vCmCV0sEJfhaTACDMGTDTluy3sdfqiU9Y7Y/yTO6fn30fRLO8qvov3tt8aXuY5o5VjrQy6RmZqsKTqz83dZZNgfzdOkoFRs67U6S8hafAwM+zxa/IQv1RbG7eDaruJTLXdnWBMXFNrE7luPT89u7s+LZrUtio+a/qrx/RfgxU2DtTIZjeasK/Nufaeh7iptck6c8gO9Zr/7uYyO9Tr4Y+/jmg1okco2FY5P1iV7n+/x2wBAADAbSDQg8EO1+5/UFmR3WX7LNOmNk+5fUarCpa5g7o+EzXsfqmpMVbisO3Pp9R0/2gtTrjOXits3mmvi9d8BVT2S1uV59g8I7q5wEzn9ypVctDaQMJdvZet4tLYJgRbdlcpHNcnGfbOuqEq7fRc889j44HWiIxFkbEj78yAFIxtDpGs7Je2xu2mmnCdPnstNKmlQLQ59vgH8m4jFOwohSo1dwr2WOeudWPWnNhYOI8X3cxl9+3Gedkq/qM1rTW2oUxnjH9y57Q2+XD8fUwp1taZGQrHF3ZJ+3+qsyFp6OibZkurbD50WmEN1BPGTqMLHvUrfOJ064Kuhm8Vljs4s3Y2dYdxcUHRyEnxUy+j7MDIuXFCq4X0xud1UuYk1y6ok6dma5y/5WCr7RJPtY2yNw0xdwt2s9f6c2ySMXlqrmb1CLVpl1tr/P362cOR38Wvl+fFT7mNbJQRd20jneNoj61/lJ53Vcf59XK+Y327M6d1POTXuDnNh2qTpzp3E7YUDRtohMt+vTzPPI61lp++DcUFp1aAafdpNpxM3vzspju/hiUAAMBd4CeZmZn/MD+MCAQCqq+v140bN8ymTtVVr0td/NqkiXqh4DmN0Smta3Yaq93v/sj7WpVvOKdHFs5Qxtm3o5tnzMlNvMZdTUWhVkQq/Pos06bZo5WWqD3qGa3yCA69+7assNRjDbvgLmvKXlGptaaeuXvtlGJtXTJWPgW1y7FbauzzCPdOtZZClZblKe6Uu2ObMjR7TR6yX9qqpeMddSWO641rcwgfW+PYCTUW1Hi3x+6vwXGtilxvL/cYxd2DOYYOkb5x50tw7ITixl/Gb2CPfTNj6b5He0xkn99+Hqzfyvt3tLT0XLh/74iWx6wV54w8u4naE42t8RvHXZOaeRY97tNr/DOM39l6Rhui15f8M5vMOc2xsMZBpWXKU/x9zH/tqop//k/6YHp3vehqaaXIFEzHR+bOpkX5z2pWD2MnU/t7V5x9jXAufKJc7yhbzz96XTtXx3Y4nTw11xH01Wnn6tMaMC9XP7tY7rH5hD2V1/FJ9Pq8riHR9cYFh3Wua7KColyNk7ljq8FjvKIcu70W5XuEZDZzfN3jYTN2jnUdr/aQniyTfr9skmTuQpsE83zVe9/TmWEeY2aeV+aOwra4MQnp+DZzKq3HsRR/vLg+cTvoyvOZCJ/wenac12b+3m11S9s/vKTHr/bToMV3cpdpAACAHz8CvXbWla8Nnc8zaAFwB9zUvk8va+hFggXgjllwXTWz/1Of/XsfFew3GwEAAHA7mHILALgLdNMHf0qThlzWvgVmG4D2d1P7ZjdKF/2EeQAAAB2AQA8AcFfY+FoffXBRGjr7qrbnmK0A2s8tbf/wsoaGequEilgAAIAOQaAHALhrvLh4gD4LNWlE9i2zCUB7WfC9Hven64OnfNpotgEAAKBdsIZeO+vK1wYAAAAAAIDUR4UeAAAAAAAAkEII9AAAAAAAAIAUQqDXzoLBINNtAQAAAAAA0GEI9AAAAAAAAIAUQqAHAAAAAAAApBACPQAAAAAAACCFEOgBAAAAAAAAKYRADwAAAAAAAEghBHoAAAAAAABACiHQAwAAAAAAAFIIgR4AAAAAAACQQgj0AAAAAAAAgBRCoAcAAAAAAACkEAI9AAAAAAAAIIUQ6AEAAAAAAAAphEAPAAAAAAAASCEEegAAAAAAAEAKIdADAAAAAAAAUgiBHgAAAAAAAJBCCPQAAAAAAACAFEKgBwAAAAAAAKQQAj0AAAAAAAAghRDoAQAAAAAAACmEQA8AAAAAAABIIQR6AAAAAAAAQAoh0AMAAAAAAABSCIEeAAAAAAAAkEII9AAAAAAAAIAUQqAHAAAAAAAApBACPQAAAAAAACCFEOjhjpv/2lXVfBjWfLMBnWvBddV8el2/NT8HAAAAAABdCoFeipiTu0XbC5Ypy2xINQuuq/jnTbqwz6eNZhs61zv36bNQo54mbAUAAAAAoEsj0MOdkxPW6dmNCv1pgJ54x2y8C/R/XY+8skePvfKR+vZ3NkxV31/t0WNz5jk/7AT3qOCpfrrg/1rF626ajQAAAAAAoIsg0MMd89vZX8sf6q0/vHaP2XRX+b5RGvTfOju8S6SbntiRLg25rH0LzDYAAAAAANAV/CQzM/Mf5ocRgUBA9fX1unHjhtnUqbrqdUU99Lq2T+6jkzsW6W//vEW5AyINtSrf8Kq2xfXNjL2/tEcF5e9b/91nmTbNHq20WKvbd6e0bvtqHban5OZ2j72XYt9vqCjUii8laaJeKHhOY67vUcGfH3Adu+ns25p3+IgkKStrvRZn/lXrtv9duQtnaJBHn1bLCev0//xaDTsyPavz+r1xSvMnNuiTnGk6Ef30Tf3r/qeVfmSV/vBybIKu1dcffa8LH2jlwl/H3tvMfo2ex2nQJzkfqt+OFRrf3W64/pk2zp6jy9Ge7aT/63pk3gTp6FGFJ/TUtZX/QyHJrtB7QYOulenzbZui3f1z9uihwbGvf3/0d/ri0wPR992mf6QxD57TyT/8h/q/kq++CfpJksb+Lz2WOyT2vtp9Lrdb2v7hJT2u3ip5iqnRAAAAAAB0NVTodZg0jZm9Rbnao4INhSrY8LZOfpepXMc6eFlZ6+3gr9Dus0c1A2Zoe+4zVoerqzVvg9VWfskO8Oz3BRsKVeAM71pjwAxtn/2gzkfOW1GrtBHPadVDjj73j9bihVPU2FyfVpif3SS/0nXcI8xrDSuEk469GdDKHOu18eoM/esid79HNwTtsM7u9+Zn0sQV+tUb5upwQ/Xf96/Q0HOr7ON9oJruj2v+hjeNfu3pgK5VD9HA6VPNBts8DXpljx7qeVQnV87Q5ytn6PNNR6UJL8RPy02foDGvTNf/22T3K7+o+ya8oEFjY126Tf9Ij+X2U02kz8oyXRmcH3+sqHt04Fya5G/S1ByzDQAAAAAAdDYCvQ7UdPbtWLWdjuhwbZN0f7pd8faMckekqensVv3uauQb72tFRa00YIpe6BP5rCPUqnzDoth5vzynGkkZPSe6etVUtNwnObc09eEm6eJP9aLZ1Er9+/il62d1Ym/ss8svj9b/Xu/oNG2bJg2Vaj5yVPvtnaP/cySk9IlP6VFHV0mq+SjgqNz7tc5ekNRnoPoZ/dpT6P8elR6cqm5mg6Ru06erry7qyz+8quhKdvWv6sLRsDR4urH+nnSl/Be6Um+/qTqpK5J8GZGwcJ76T/Dp+6PrYn20STXlFz2PFbGxMk0hNSnDUdQHAAAAAAC6BgK9DtRwzT099fDhRSqITLl96GENUpPOnzemsH7dqCalKb23++N29V2jalwfvK8VGwqN6bS1+uJLx9vb8oMy/FLo6r1mQ6vVXw1J3R/X/B3bEgZu/aaMULou6Kwz5JN0+W8NkjLUb5rz05C+vuB8L51YGNDKjphy61T/ququTVB/RyWdZarSH/RJjddiYZ7t5qlz+l4+/RdXCHdR16qc7w1jx6ivwvr6lDEFt/6ax7Ec9t+rBkkZD9wyWwAAAAAAQCcj0OskWT37RKflbl/oeDW3Zh50+eXRWvnRBSvU2x/UK/uDesWYHtu/j9+eSmu3R16/GOrq19lCX15U36zXPav0dO0/4gK9iFj1Xcu6ZfST5NOgeXv02CuO17wJus/sDAAAAAAAUgKBXic5fO2qpCbH+nnul7WJBTytnxZdP++TC5KGPu0K9eqvhiRdiK2f53qN1h7HdN1OVVWmGj2s9ERVcgmEG4xqu2bcbLgsKexYP8/9qmmuug8AAAAAAHRJBHqdpZVTa2sanevvJSdr2INdpNrvXjWEJH+fH8yG5i0a1+L9nlhoh3qONe+8p9bevsLSMpWVlWnrS9lmUxsdUONfpd6jnQvVHVDjX8PS4DFy7OMrSeo2+mHd19IUW1NLU2sTyflBGZIa/n6P2QIAAAAAADoZgV5nubpaBy5JgyavT2oDDKuiL1NTs7w3pbACvweVZR8rK2u9Fo/oGnFedNfUITf0W7PJZoVwQzUislvtor0eU2Tna8aOvcamFm9qxFBJV+tia96t/1DHrvs1/tdm39uRrQG9rP/yjZ+lQrO5jW5++qnCE6bLmeve/PRTXdEQPeTchbb/6xo6wafvj5Yp5OjbovpXVVct9c39KOEGGF6sXYnT1HDRbAEAAAAAAJ2NQK8TbSsv1Lqzil9Hr2CZsszOX76qdWeblDbiOc9+hw8vUvml2Jp8izP/qnUb9hibX3Qea9fURo1bYLbY1k/TxiMhDfpFZL076ZOcVTp23dlpo/bMPq4RrrXxnlb6kVVaufDXRr+APrngsY6esd5e8ipVcjBoftgONulatU/3pbs/q1lZpiuD811r3oXLZ+iLT5OfbhsR2jZDJ48qfh29XyVYvy+6K7FfBfvNNgAAAAAA0Nl+kpmZ+Q/zw4hAIKD6+nrduHHDbOpUXfW60LzfrqvV00PS9cH07nrRbEwJhSoty1MgVKU1vyxRpdn8Y7Hgumpm/6c++/c+BHoAAAAAAHRBVOjhjnlxR2+F1Kin1yXav7VrKyzNU0BhVW3+EYd5uql9sxupzgMAAAAAoAsj0MOds9+nUTvSpSGXdfq1W2Zr11VUqrKyMuUFgtqVP1clB80OPxa3tP3Dyxoa6q2Sxd6TcQEAAAAAQOdjyi3uuPmvXVXxw2kqecqnjWYjOs+C66qZrRSeEg0AAAAAwN2BQA8AAAAAAABIIUy5BQAAAAAAAFJIsxV6AAAAAAAAALoWKvQAAAAAAACAFEKgBwAAAAAAAKQQAj0AAAAAAAAghRDoAQAAAAAAACmEQA8AAAAAAABIIQR6AAAAAAAAQAoh0AMAAAAAAABSCIEeAAAAAAAAkEII9AAAAAAAAIAUQqAHAAAAAAAApBACPQAAAAAAACCFEOgBAAAAAAAAKYRADwAAAAAAAEghBHoAAAAAAABACiHQAwAAAAAAAFIIgR4AAAAAAACQQgj0AAAAAAAAgBRCoAcAAAAAAACkEAI9AAAAAAAAIIUQ6AEAAAAAAAAphEAPAAAAAAAASCEEegAAAAAAAEAKIdADAAAAAAAAUgiBHgAAAAAAAJBC/j88jbQ/yaK56gAAAABJRU5ErkJggg==;" vertex="1" parent="1">
          <mxGeometry x="750" y="550" width="1268" height="523" as="geometry" />
        </mxCell>
        <mxCell id="CXdVZdrTn3hYtHLvASBv-2" value="" style="endArrow=classic;html=1;rounded=0;strokeColor=#ff0000;exitX=0;exitY=0.5;exitDx=0;exitDy=0;" edge="1" parent="1" source="CXdVZdrTn3hYtHLvASBv-3">
          <mxGeometry width="50" height="50" relative="1" as="geometry">
            <mxPoint x="1070" y="520" as="sourcePoint" />
            <mxPoint x="930" y="579" as="targetPoint" />
          </mxGeometry>
        </mxCell>
        <mxCell id="CXdVZdrTn3hYtHLvASBv-3" value="&lt;font color=&quot;#ffffff&quot;&gt;Uses the same logic as an authentication class for a single role. However, in a combined authentication classes, multiple roles are checked for validity&lt;/font&gt;" style="text;html=1;align=center;verticalAlign=middle;whiteSpace=wrap;rounded=0;fontSize=18;" vertex="1" parent="1">
          <mxGeometry x="1430" y="580" width="360" height="94" as="geometry" />
        </mxCell>
        <mxCell id="4t6Qb6ZWZWTjVQijUsDI-1" value="" style="endArrow=classic;html=1;rounded=0;strokeColor=#ff0000;" edge="1" parent="1">
          <mxGeometry width="50" height="50" relative="1" as="geometry">
            <mxPoint x="1514" y="890" as="sourcePoint" />
            <mxPoint x="1370" y="949" as="targetPoint" />
          </mxGeometry>
        </mxCell>
        <mxCell id="4t6Qb6ZWZWTjVQijUsDI-2" value="&lt;font color=&quot;#ffffff&quot;&gt;If the user making the request has an administrator or pharmacy profile, access is granted&lt;/font&gt;" style="text;html=1;align=center;verticalAlign=middle;whiteSpace=wrap;rounded=0;fontSize=18;" vertex="1" parent="1">
          <mxGeometry x="1520" y="840" width="238" height="94" as="geometry" />
        </mxCell>
      </root>
    </mxGraphModel>
  </diagram>
</mxfile>
